M48
;GenerationSoftware,Autodesk,EAGLE,9.6.2*%
;CreationDate,2022-04-20T13:02:52Z*%
FMAT,2
ICI,OFF
METRIC,TZ,000.000
T8C0.350
T7C0.813
T6C1.000
T5C1.016
T4C1.100
T3C1.300
T2C1.500
T1C2.200
%
G90
M71
T1
X56130Y90170
X68330Y90170
T2
X10160Y36830
X59690Y3810
X69850Y13970
X43180Y3810
X53340Y13970
X26670Y3810
X36830Y13970
X10160Y3810
X20320Y13970
X59690Y20320
X69850Y30480
X43180Y20320
X53340Y30480
X26670Y20320
X36830Y30480
X10160Y20320
X20320Y30480
X59690Y36830
X69850Y46990
X43180Y36830
X53340Y46990
X26670Y36830
X36830Y46990
X20320Y63500
X10160Y53340
X36830Y63500
X26670Y53340
X53340Y63500
X43180Y53340
X69850Y63500
X59690Y53340
X20320Y46990
T3
X48260Y63500
X48260Y41910
X48260Y46990
X64770Y41910
X64770Y46990
X15240Y25400
X15240Y30480
X31750Y25400
X31750Y30480
X48260Y25400
X48260Y30480
X64770Y25400
X64770Y30480
X15240Y8890
X15240Y13970
X31750Y8890
X31750Y13970
X48260Y8890
X48260Y13970
X64770Y8890
X64770Y13970
X48260Y58420
X64770Y58420
X15240Y58420
X15240Y63500
X31750Y46990
X31750Y41910
X15240Y46990
X31750Y58420
X31750Y63500
X15240Y41910
X64770Y63500
T4
X7620Y83335
X7620Y80335
X7620Y71835
T5
X74930Y91440
X77470Y25400
X77470Y91440
X74930Y88900
X77470Y88900
X74930Y86360
X77470Y86360
X74930Y83820
X77470Y83820
X74930Y81280
X77470Y81280
X74930Y78740
X77470Y78740
X74930Y76200
X77470Y76200
X74930Y73660
X77470Y73660
X50800Y93980
X50800Y91440
X50800Y88900
X50800Y86360
X77470Y7620
X74930Y7620
X77470Y10160
X74930Y10160
X77470Y12700
X74930Y12700
X77470Y15240
X74930Y15240
X77470Y17780
X74930Y17780
X77470Y20320
X74930Y20320
X77470Y22860
X74930Y22860
X74930Y25400
X77470Y40640
X74930Y40640
X77470Y43180
X74930Y43180
X77470Y45720
X74930Y45720
X77470Y48260
X74930Y48260
X77470Y50800
X74930Y50800
X77470Y53340
X74930Y53340
X77470Y55880
X74930Y55880
X77470Y58420
X74930Y58420
T6
X11956Y15766
X41384Y45194
X44976Y65296
X26670Y13970
X24874Y12174
X28466Y15766
X28466Y65296
X24874Y61704
X43180Y13970
X41384Y12174
X44976Y15766
X59690Y63500
X57894Y61704
X59690Y13970
X57894Y12174
X61486Y15766
X43180Y63500
X61486Y65296
X26670Y63500
X59730Y82670
X62230Y82670
X64730Y82670
X59730Y97170
X64730Y97170
X11956Y65296
X10160Y46990
X41950Y79970
X41950Y74970
X46950Y74970
X46950Y79970
X26710Y79970
X26710Y74970
X31710Y74970
X31710Y79970
X8364Y12174
X10160Y13970
X8364Y45194
X11956Y48786
X61486Y32276
X57894Y28684
X59690Y30480
X8364Y61704
X10160Y63500
X44976Y32276
X41384Y28684
X43180Y30480
X26670Y46990
X24874Y45194
X28466Y32276
X24874Y28684
X26670Y30480
X41384Y61704
X44976Y48786
X43180Y46990
X11956Y32276
X8364Y28684
X10160Y30480
X28466Y48786
X59690Y46990
X61486Y48786
X57894Y45194
T7
X21590Y73660
X21590Y81280
X36830Y73660
X36830Y81280
X40005Y86360
X12065Y86360
X14605Y86360
X17145Y86360
X19685Y86360
X22225Y86360
X24765Y86360
X27305Y86360
X29845Y86360
X32385Y86360
X34925Y86360
X37465Y86360
X67310Y68580
X42545Y86360
X45085Y86360
X45085Y93980
X42545Y93980
X40005Y93980
X37465Y93980
X34925Y93980
X32385Y93980
X29845Y93980
X27305Y93980
X24765Y93980
X22225Y93980
X19685Y93980
X17145Y93980
X14605Y93980
X12065Y93980
X3810Y59690
X3810Y57150
X3810Y54610
X3810Y52070
X3810Y49530
X3810Y46990
X3810Y44450
X3810Y41910
X3810Y39370
X3810Y22860
X3810Y20320
X3810Y17780
X3810Y15240
X3810Y12700
X3810Y10160
X3810Y7620
X3810Y5080
X3810Y2540
X12700Y68580
X15240Y68580
X17780Y68580
X20320Y68580
X22860Y68580
X25400Y68580
X27940Y68580
X30480Y68580
X33020Y68580
X46990Y68580
X49530Y68580
X52070Y68580
X54610Y68580
X57150Y68580
X59690Y68580
X62230Y68580
X64770Y68580
T8
X71755Y12700
X46355Y5715
X62865Y1270
X13335Y22860
X26670Y7620
X13970Y10160
X62865Y17145
X46355Y18415
X29210Y19050
X13335Y43180
X29845Y40640
X46355Y40005
X62865Y38735
X59055Y7620
X71755Y5080
X26670Y65405
X73025Y13970
X73025Y6350
X45085Y11430
X66675Y15875
X66675Y8890
X12304Y3175
X68580Y2540
X67945Y15875
X17780Y65405
M30