G04 EAGLE Gerber RS-274X export*
G75*
%MOMM*%
%FSLAX34Y34*%
%LPD*%
%INSoldermask Top*%
%IPPOS*%
%AMOC8*
5,1,8,0,0,1.08239X$1,22.5*%
G01*
%ADD10P,2.330602X8X22.500000*%
%ADD11P,1.852186X8X67.500000*%
%ADD12C,1.703200*%
%ADD13C,1.853200*%
%ADD14R,1.711200X1.711200*%
%ADD15R,3.419200X3.419200*%
%ADD16C,1.711200*%
%ADD17P,1.869504X8X292.500000*%
%ADD18C,1.524000*%
%ADD19C,1.727200*%
%ADD20P,1.649562X8X112.500000*%
%ADD21P,1.869504X8X112.500000*%
%ADD22C,0.959600*%


D10*
X152400Y584200D03*
X152400Y635000D03*
D11*
X101600Y635000D03*
X83640Y617039D03*
D12*
X203200Y635000D03*
X101600Y533400D03*
D11*
X119561Y652961D03*
D10*
X317500Y584200D03*
X317500Y635000D03*
D11*
X266700Y635000D03*
X248740Y617039D03*
D12*
X368300Y635000D03*
X266700Y533400D03*
D11*
X284661Y652961D03*
D10*
X482600Y584200D03*
X482600Y635000D03*
D11*
X431800Y635000D03*
X413840Y617039D03*
D12*
X533400Y635000D03*
X431800Y533400D03*
D11*
X449761Y652961D03*
D10*
X647700Y584200D03*
X647700Y635000D03*
D11*
X596900Y635000D03*
X578940Y617039D03*
D12*
X698500Y635000D03*
X596900Y533400D03*
D11*
X614861Y652961D03*
D10*
X152400Y419100D03*
X152400Y469900D03*
D11*
X101600Y469900D03*
X83640Y451939D03*
D12*
X203200Y469900D03*
X101600Y368300D03*
D11*
X119561Y487861D03*
D10*
X317500Y419100D03*
X317500Y469900D03*
D11*
X266700Y469900D03*
X248740Y451939D03*
D12*
X368300Y469900D03*
X266700Y368300D03*
D11*
X284661Y487861D03*
D10*
X482600Y419100D03*
X482600Y469900D03*
D11*
X431800Y469900D03*
X413840Y451939D03*
D12*
X533400Y469900D03*
X431800Y368300D03*
D11*
X449761Y487861D03*
D10*
X647700Y419100D03*
X647700Y469900D03*
D11*
X596900Y469900D03*
X578940Y451939D03*
D12*
X698500Y469900D03*
X596900Y368300D03*
D11*
X614861Y487861D03*
D10*
X152400Y254000D03*
X152400Y304800D03*
D11*
X101600Y304800D03*
X83640Y286839D03*
D12*
X203200Y304800D03*
X101600Y203200D03*
D11*
X119561Y322761D03*
D10*
X317500Y254000D03*
X317500Y304800D03*
D11*
X266700Y304800D03*
X248740Y286839D03*
D12*
X368300Y304800D03*
X266700Y203200D03*
D11*
X284661Y322761D03*
D10*
X482600Y254000D03*
X482600Y304800D03*
D11*
X431800Y304800D03*
X413840Y286839D03*
D12*
X533400Y304800D03*
X431800Y203200D03*
D11*
X449761Y322761D03*
D10*
X647700Y254000D03*
X647700Y304800D03*
D11*
X596900Y304800D03*
X578940Y286839D03*
D12*
X698500Y304800D03*
X596900Y203200D03*
D11*
X614861Y322761D03*
D10*
X152400Y88900D03*
X152400Y139700D03*
D11*
X101600Y139700D03*
X83640Y121739D03*
D12*
X203200Y139700D03*
X101600Y38100D03*
D11*
X119561Y157661D03*
D10*
X317500Y88900D03*
X317500Y139700D03*
D11*
X266700Y139700D03*
X248740Y121739D03*
D12*
X368300Y139700D03*
X266700Y38100D03*
D11*
X284661Y157661D03*
D10*
X482600Y88900D03*
X482600Y139700D03*
D11*
X431800Y139700D03*
X413840Y121739D03*
D12*
X533400Y139700D03*
X431800Y38100D03*
D11*
X449761Y157661D03*
D10*
X647700Y88900D03*
X647700Y139700D03*
D11*
X596900Y139700D03*
X578940Y121739D03*
D12*
X698500Y139700D03*
X596900Y38100D03*
D11*
X614861Y157661D03*
D13*
X76200Y718350D03*
X76200Y803350D03*
X76200Y833350D03*
D14*
X597300Y826700D03*
X622300Y826700D03*
X647300Y826700D03*
X597300Y971700D03*
X647300Y971700D03*
D15*
X561300Y901700D03*
X683300Y901700D03*
D16*
X419500Y799700D03*
X419500Y749700D03*
X469500Y749700D03*
X469500Y799700D03*
X267100Y799700D03*
X267100Y749700D03*
X317100Y749700D03*
X317100Y799700D03*
D17*
X749300Y584200D03*
X774700Y584200D03*
X749300Y558800D03*
X774700Y558800D03*
X749300Y533400D03*
X774700Y533400D03*
X749300Y508000D03*
X774700Y508000D03*
X749300Y482600D03*
X774700Y482600D03*
X749300Y457200D03*
X774700Y457200D03*
X749300Y431800D03*
X774700Y431800D03*
X749300Y406400D03*
X774700Y406400D03*
X749300Y254000D03*
X774700Y254000D03*
X749300Y228600D03*
X774700Y228600D03*
X749300Y203200D03*
X774700Y203200D03*
X749300Y177800D03*
X774700Y177800D03*
X749300Y152400D03*
X774700Y152400D03*
X749300Y127000D03*
X774700Y127000D03*
X749300Y101600D03*
X774700Y101600D03*
X749300Y76200D03*
X774700Y76200D03*
D18*
X120650Y856996D02*
X120650Y870204D01*
X146050Y870204D02*
X146050Y856996D01*
X171450Y856996D02*
X171450Y870204D01*
X196850Y870204D02*
X196850Y856996D01*
X222250Y856996D02*
X222250Y870204D01*
X247650Y870204D02*
X247650Y856996D01*
X273050Y856996D02*
X273050Y870204D01*
X298450Y870204D02*
X298450Y856996D01*
X323850Y856996D02*
X323850Y870204D01*
X349250Y870204D02*
X349250Y856996D01*
X374650Y856996D02*
X374650Y870204D01*
X400050Y870204D02*
X400050Y856996D01*
X425450Y856996D02*
X425450Y870204D01*
X450850Y870204D02*
X450850Y856996D01*
X450850Y933196D02*
X450850Y946404D01*
X425450Y946404D02*
X425450Y933196D01*
X400050Y933196D02*
X400050Y946404D01*
X374650Y946404D02*
X374650Y933196D01*
X349250Y933196D02*
X349250Y946404D01*
X323850Y946404D02*
X323850Y933196D01*
X298450Y933196D02*
X298450Y946404D01*
X273050Y946404D02*
X273050Y933196D01*
X247650Y933196D02*
X247650Y946404D01*
X222250Y946404D02*
X222250Y933196D01*
X196850Y933196D02*
X196850Y946404D01*
X171450Y946404D02*
X171450Y933196D01*
X146050Y933196D02*
X146050Y946404D01*
X120650Y946404D02*
X120650Y933196D01*
X44704Y596900D02*
X31496Y596900D01*
X31496Y571500D02*
X44704Y571500D01*
X44704Y546100D02*
X31496Y546100D01*
X31496Y520700D02*
X44704Y520700D01*
X44704Y495300D02*
X31496Y495300D01*
X31496Y469900D02*
X44704Y469900D01*
X44704Y444500D02*
X31496Y444500D01*
X31496Y419100D02*
X44704Y419100D01*
X44704Y393700D02*
X31496Y393700D01*
X31496Y228600D02*
X44704Y228600D01*
X44704Y203200D02*
X31496Y203200D01*
X31496Y177800D02*
X44704Y177800D01*
X44704Y152400D02*
X31496Y152400D01*
X31496Y127000D02*
X44704Y127000D01*
X44704Y101600D02*
X31496Y101600D01*
X31496Y76200D02*
X44704Y76200D01*
X44704Y50800D02*
X31496Y50800D01*
X31496Y25400D02*
X44704Y25400D01*
X127000Y679196D02*
X127000Y692404D01*
X152400Y692404D02*
X152400Y679196D01*
X177800Y679196D02*
X177800Y692404D01*
X203200Y692404D02*
X203200Y679196D01*
X228600Y679196D02*
X228600Y692404D01*
X254000Y692404D02*
X254000Y679196D01*
X279400Y679196D02*
X279400Y692404D01*
X304800Y692404D02*
X304800Y679196D01*
X330200Y679196D02*
X330200Y692404D01*
X469900Y692404D02*
X469900Y679196D01*
X495300Y679196D02*
X495300Y692404D01*
X520700Y692404D02*
X520700Y679196D01*
X546100Y679196D02*
X546100Y692404D01*
X571500Y692404D02*
X571500Y679196D01*
X596900Y679196D02*
X596900Y692404D01*
X622300Y692404D02*
X622300Y679196D01*
X647700Y679196D02*
X647700Y692404D01*
X673100Y692404D02*
X673100Y679196D01*
D19*
X515620Y863600D02*
X500380Y863600D01*
X500380Y889000D02*
X515620Y889000D01*
X515620Y914400D02*
X500380Y914400D01*
X500380Y939800D02*
X515620Y939800D01*
D20*
X215900Y736600D03*
X215900Y812800D03*
X368300Y736600D03*
X368300Y812800D03*
D21*
X774700Y736600D03*
X749300Y736600D03*
X774700Y762000D03*
X749300Y762000D03*
X774700Y787400D03*
X749300Y787400D03*
X774700Y812800D03*
X749300Y812800D03*
X774700Y838200D03*
X749300Y838200D03*
X774700Y863600D03*
X749300Y863600D03*
X774700Y889000D03*
X749300Y889000D03*
X774700Y914400D03*
X749300Y914400D03*
D22*
X177800Y654050D03*
X266700Y654050D03*
X730250Y139700D03*
X730250Y63500D03*
X450850Y114300D03*
X666750Y158750D03*
X666750Y88900D03*
X123042Y31750D03*
X685800Y25400D03*
X679450Y158750D03*
X717550Y127000D03*
X717550Y50800D03*
X590550Y76200D03*
X628650Y387350D03*
X463550Y400050D03*
X298450Y406400D03*
X133350Y431800D03*
X292100Y190500D03*
X463550Y184150D03*
X628650Y171450D03*
X139700Y101600D03*
X266700Y76200D03*
X463550Y57150D03*
X628650Y12700D03*
X133350Y228600D03*
M02*
