G04 EAGLE Gerber RS-274X export*
G75*
%MOMM*%
%FSLAX34Y34*%
%LPD*%
%INBoard Outline*%
%IPPOS*%
%AMOC8*
5,1,8,0,0,1.08239X$1,22.5*%
G01*
%ADD10C,0.000000*%
%ADD11C,0.254000*%


D10*
X0Y0D02*
X800100Y0D01*
X800100Y990600D01*
X0Y990600D01*
X0Y0D01*
X195700Y635000D02*
X195702Y635184D01*
X195709Y635368D01*
X195720Y635552D01*
X195736Y635735D01*
X195756Y635918D01*
X195781Y636100D01*
X195810Y636282D01*
X195844Y636463D01*
X195882Y636643D01*
X195925Y636822D01*
X195972Y637000D01*
X196023Y637177D01*
X196079Y637353D01*
X196138Y637527D01*
X196203Y637699D01*
X196271Y637870D01*
X196343Y638039D01*
X196420Y638207D01*
X196501Y638372D01*
X196586Y638535D01*
X196674Y638697D01*
X196767Y638856D01*
X196864Y639012D01*
X196964Y639167D01*
X197068Y639319D01*
X197176Y639468D01*
X197287Y639614D01*
X197402Y639758D01*
X197521Y639899D01*
X197643Y640037D01*
X197768Y640172D01*
X197897Y640303D01*
X198028Y640432D01*
X198163Y640557D01*
X198301Y640679D01*
X198442Y640798D01*
X198586Y640913D01*
X198732Y641024D01*
X198881Y641132D01*
X199033Y641236D01*
X199188Y641336D01*
X199344Y641433D01*
X199503Y641526D01*
X199665Y641614D01*
X199828Y641699D01*
X199993Y641780D01*
X200161Y641857D01*
X200330Y641929D01*
X200501Y641997D01*
X200673Y642062D01*
X200847Y642121D01*
X201023Y642177D01*
X201200Y642228D01*
X201378Y642275D01*
X201557Y642318D01*
X201737Y642356D01*
X201918Y642390D01*
X202100Y642419D01*
X202282Y642444D01*
X202465Y642464D01*
X202648Y642480D01*
X202832Y642491D01*
X203016Y642498D01*
X203200Y642500D01*
X203384Y642498D01*
X203568Y642491D01*
X203752Y642480D01*
X203935Y642464D01*
X204118Y642444D01*
X204300Y642419D01*
X204482Y642390D01*
X204663Y642356D01*
X204843Y642318D01*
X205022Y642275D01*
X205200Y642228D01*
X205377Y642177D01*
X205553Y642121D01*
X205727Y642062D01*
X205899Y641997D01*
X206070Y641929D01*
X206239Y641857D01*
X206407Y641780D01*
X206572Y641699D01*
X206735Y641614D01*
X206897Y641526D01*
X207056Y641433D01*
X207212Y641336D01*
X207367Y641236D01*
X207519Y641132D01*
X207668Y641024D01*
X207814Y640913D01*
X207958Y640798D01*
X208099Y640679D01*
X208237Y640557D01*
X208372Y640432D01*
X208503Y640303D01*
X208632Y640172D01*
X208757Y640037D01*
X208879Y639899D01*
X208998Y639758D01*
X209113Y639614D01*
X209224Y639468D01*
X209332Y639319D01*
X209436Y639167D01*
X209536Y639012D01*
X209633Y638856D01*
X209726Y638697D01*
X209814Y638535D01*
X209899Y638372D01*
X209980Y638207D01*
X210057Y638039D01*
X210129Y637870D01*
X210197Y637699D01*
X210262Y637527D01*
X210321Y637353D01*
X210377Y637177D01*
X210428Y637000D01*
X210475Y636822D01*
X210518Y636643D01*
X210556Y636463D01*
X210590Y636282D01*
X210619Y636100D01*
X210644Y635918D01*
X210664Y635735D01*
X210680Y635552D01*
X210691Y635368D01*
X210698Y635184D01*
X210700Y635000D01*
X210698Y634816D01*
X210691Y634632D01*
X210680Y634448D01*
X210664Y634265D01*
X210644Y634082D01*
X210619Y633900D01*
X210590Y633718D01*
X210556Y633537D01*
X210518Y633357D01*
X210475Y633178D01*
X210428Y633000D01*
X210377Y632823D01*
X210321Y632647D01*
X210262Y632473D01*
X210197Y632301D01*
X210129Y632130D01*
X210057Y631961D01*
X209980Y631793D01*
X209899Y631628D01*
X209814Y631465D01*
X209726Y631303D01*
X209633Y631144D01*
X209536Y630988D01*
X209436Y630833D01*
X209332Y630681D01*
X209224Y630532D01*
X209113Y630386D01*
X208998Y630242D01*
X208879Y630101D01*
X208757Y629963D01*
X208632Y629828D01*
X208503Y629697D01*
X208372Y629568D01*
X208237Y629443D01*
X208099Y629321D01*
X207958Y629202D01*
X207814Y629087D01*
X207668Y628976D01*
X207519Y628868D01*
X207367Y628764D01*
X207212Y628664D01*
X207056Y628567D01*
X206897Y628474D01*
X206735Y628386D01*
X206572Y628301D01*
X206407Y628220D01*
X206239Y628143D01*
X206070Y628071D01*
X205899Y628003D01*
X205727Y627938D01*
X205553Y627879D01*
X205377Y627823D01*
X205200Y627772D01*
X205022Y627725D01*
X204843Y627682D01*
X204663Y627644D01*
X204482Y627610D01*
X204300Y627581D01*
X204118Y627556D01*
X203935Y627536D01*
X203752Y627520D01*
X203568Y627509D01*
X203384Y627502D01*
X203200Y627500D01*
X203016Y627502D01*
X202832Y627509D01*
X202648Y627520D01*
X202465Y627536D01*
X202282Y627556D01*
X202100Y627581D01*
X201918Y627610D01*
X201737Y627644D01*
X201557Y627682D01*
X201378Y627725D01*
X201200Y627772D01*
X201023Y627823D01*
X200847Y627879D01*
X200673Y627938D01*
X200501Y628003D01*
X200330Y628071D01*
X200161Y628143D01*
X199993Y628220D01*
X199828Y628301D01*
X199665Y628386D01*
X199503Y628474D01*
X199344Y628567D01*
X199188Y628664D01*
X199033Y628764D01*
X198881Y628868D01*
X198732Y628976D01*
X198586Y629087D01*
X198442Y629202D01*
X198301Y629321D01*
X198163Y629443D01*
X198028Y629568D01*
X197897Y629697D01*
X197768Y629828D01*
X197643Y629963D01*
X197521Y630101D01*
X197402Y630242D01*
X197287Y630386D01*
X197176Y630532D01*
X197068Y630681D01*
X196964Y630833D01*
X196864Y630988D01*
X196767Y631144D01*
X196674Y631303D01*
X196586Y631465D01*
X196501Y631628D01*
X196420Y631793D01*
X196343Y631961D01*
X196271Y632130D01*
X196203Y632301D01*
X196138Y632473D01*
X196079Y632647D01*
X196023Y632823D01*
X195972Y633000D01*
X195925Y633178D01*
X195882Y633357D01*
X195844Y633537D01*
X195810Y633718D01*
X195781Y633900D01*
X195756Y634082D01*
X195736Y634265D01*
X195720Y634448D01*
X195709Y634632D01*
X195702Y634816D01*
X195700Y635000D01*
X94100Y533400D02*
X94102Y533584D01*
X94109Y533768D01*
X94120Y533952D01*
X94136Y534135D01*
X94156Y534318D01*
X94181Y534500D01*
X94210Y534682D01*
X94244Y534863D01*
X94282Y535043D01*
X94325Y535222D01*
X94372Y535400D01*
X94423Y535577D01*
X94479Y535753D01*
X94538Y535927D01*
X94603Y536099D01*
X94671Y536270D01*
X94743Y536439D01*
X94820Y536607D01*
X94901Y536772D01*
X94986Y536935D01*
X95074Y537097D01*
X95167Y537256D01*
X95264Y537412D01*
X95364Y537567D01*
X95468Y537719D01*
X95576Y537868D01*
X95687Y538014D01*
X95802Y538158D01*
X95921Y538299D01*
X96043Y538437D01*
X96168Y538572D01*
X96297Y538703D01*
X96428Y538832D01*
X96563Y538957D01*
X96701Y539079D01*
X96842Y539198D01*
X96986Y539313D01*
X97132Y539424D01*
X97281Y539532D01*
X97433Y539636D01*
X97588Y539736D01*
X97744Y539833D01*
X97903Y539926D01*
X98065Y540014D01*
X98228Y540099D01*
X98393Y540180D01*
X98561Y540257D01*
X98730Y540329D01*
X98901Y540397D01*
X99073Y540462D01*
X99247Y540521D01*
X99423Y540577D01*
X99600Y540628D01*
X99778Y540675D01*
X99957Y540718D01*
X100137Y540756D01*
X100318Y540790D01*
X100500Y540819D01*
X100682Y540844D01*
X100865Y540864D01*
X101048Y540880D01*
X101232Y540891D01*
X101416Y540898D01*
X101600Y540900D01*
X101784Y540898D01*
X101968Y540891D01*
X102152Y540880D01*
X102335Y540864D01*
X102518Y540844D01*
X102700Y540819D01*
X102882Y540790D01*
X103063Y540756D01*
X103243Y540718D01*
X103422Y540675D01*
X103600Y540628D01*
X103777Y540577D01*
X103953Y540521D01*
X104127Y540462D01*
X104299Y540397D01*
X104470Y540329D01*
X104639Y540257D01*
X104807Y540180D01*
X104972Y540099D01*
X105135Y540014D01*
X105297Y539926D01*
X105456Y539833D01*
X105612Y539736D01*
X105767Y539636D01*
X105919Y539532D01*
X106068Y539424D01*
X106214Y539313D01*
X106358Y539198D01*
X106499Y539079D01*
X106637Y538957D01*
X106772Y538832D01*
X106903Y538703D01*
X107032Y538572D01*
X107157Y538437D01*
X107279Y538299D01*
X107398Y538158D01*
X107513Y538014D01*
X107624Y537868D01*
X107732Y537719D01*
X107836Y537567D01*
X107936Y537412D01*
X108033Y537256D01*
X108126Y537097D01*
X108214Y536935D01*
X108299Y536772D01*
X108380Y536607D01*
X108457Y536439D01*
X108529Y536270D01*
X108597Y536099D01*
X108662Y535927D01*
X108721Y535753D01*
X108777Y535577D01*
X108828Y535400D01*
X108875Y535222D01*
X108918Y535043D01*
X108956Y534863D01*
X108990Y534682D01*
X109019Y534500D01*
X109044Y534318D01*
X109064Y534135D01*
X109080Y533952D01*
X109091Y533768D01*
X109098Y533584D01*
X109100Y533400D01*
X109098Y533216D01*
X109091Y533032D01*
X109080Y532848D01*
X109064Y532665D01*
X109044Y532482D01*
X109019Y532300D01*
X108990Y532118D01*
X108956Y531937D01*
X108918Y531757D01*
X108875Y531578D01*
X108828Y531400D01*
X108777Y531223D01*
X108721Y531047D01*
X108662Y530873D01*
X108597Y530701D01*
X108529Y530530D01*
X108457Y530361D01*
X108380Y530193D01*
X108299Y530028D01*
X108214Y529865D01*
X108126Y529703D01*
X108033Y529544D01*
X107936Y529388D01*
X107836Y529233D01*
X107732Y529081D01*
X107624Y528932D01*
X107513Y528786D01*
X107398Y528642D01*
X107279Y528501D01*
X107157Y528363D01*
X107032Y528228D01*
X106903Y528097D01*
X106772Y527968D01*
X106637Y527843D01*
X106499Y527721D01*
X106358Y527602D01*
X106214Y527487D01*
X106068Y527376D01*
X105919Y527268D01*
X105767Y527164D01*
X105612Y527064D01*
X105456Y526967D01*
X105297Y526874D01*
X105135Y526786D01*
X104972Y526701D01*
X104807Y526620D01*
X104639Y526543D01*
X104470Y526471D01*
X104299Y526403D01*
X104127Y526338D01*
X103953Y526279D01*
X103777Y526223D01*
X103600Y526172D01*
X103422Y526125D01*
X103243Y526082D01*
X103063Y526044D01*
X102882Y526010D01*
X102700Y525981D01*
X102518Y525956D01*
X102335Y525936D01*
X102152Y525920D01*
X101968Y525909D01*
X101784Y525902D01*
X101600Y525900D01*
X101416Y525902D01*
X101232Y525909D01*
X101048Y525920D01*
X100865Y525936D01*
X100682Y525956D01*
X100500Y525981D01*
X100318Y526010D01*
X100137Y526044D01*
X99957Y526082D01*
X99778Y526125D01*
X99600Y526172D01*
X99423Y526223D01*
X99247Y526279D01*
X99073Y526338D01*
X98901Y526403D01*
X98730Y526471D01*
X98561Y526543D01*
X98393Y526620D01*
X98228Y526701D01*
X98065Y526786D01*
X97903Y526874D01*
X97744Y526967D01*
X97588Y527064D01*
X97433Y527164D01*
X97281Y527268D01*
X97132Y527376D01*
X96986Y527487D01*
X96842Y527602D01*
X96701Y527721D01*
X96563Y527843D01*
X96428Y527968D01*
X96297Y528097D01*
X96168Y528228D01*
X96043Y528363D01*
X95921Y528501D01*
X95802Y528642D01*
X95687Y528786D01*
X95576Y528932D01*
X95468Y529081D01*
X95364Y529233D01*
X95264Y529388D01*
X95167Y529544D01*
X95074Y529703D01*
X94986Y529865D01*
X94901Y530028D01*
X94820Y530193D01*
X94743Y530361D01*
X94671Y530530D01*
X94603Y530701D01*
X94538Y530873D01*
X94479Y531047D01*
X94423Y531223D01*
X94372Y531400D01*
X94325Y531578D01*
X94282Y531757D01*
X94244Y531937D01*
X94210Y532118D01*
X94181Y532300D01*
X94156Y532482D01*
X94136Y532665D01*
X94120Y532848D01*
X94109Y533032D01*
X94102Y533216D01*
X94100Y533400D01*
X360800Y635000D02*
X360802Y635184D01*
X360809Y635368D01*
X360820Y635552D01*
X360836Y635735D01*
X360856Y635918D01*
X360881Y636100D01*
X360910Y636282D01*
X360944Y636463D01*
X360982Y636643D01*
X361025Y636822D01*
X361072Y637000D01*
X361123Y637177D01*
X361179Y637353D01*
X361238Y637527D01*
X361303Y637699D01*
X361371Y637870D01*
X361443Y638039D01*
X361520Y638207D01*
X361601Y638372D01*
X361686Y638535D01*
X361774Y638697D01*
X361867Y638856D01*
X361964Y639012D01*
X362064Y639167D01*
X362168Y639319D01*
X362276Y639468D01*
X362387Y639614D01*
X362502Y639758D01*
X362621Y639899D01*
X362743Y640037D01*
X362868Y640172D01*
X362997Y640303D01*
X363128Y640432D01*
X363263Y640557D01*
X363401Y640679D01*
X363542Y640798D01*
X363686Y640913D01*
X363832Y641024D01*
X363981Y641132D01*
X364133Y641236D01*
X364288Y641336D01*
X364444Y641433D01*
X364603Y641526D01*
X364765Y641614D01*
X364928Y641699D01*
X365093Y641780D01*
X365261Y641857D01*
X365430Y641929D01*
X365601Y641997D01*
X365773Y642062D01*
X365947Y642121D01*
X366123Y642177D01*
X366300Y642228D01*
X366478Y642275D01*
X366657Y642318D01*
X366837Y642356D01*
X367018Y642390D01*
X367200Y642419D01*
X367382Y642444D01*
X367565Y642464D01*
X367748Y642480D01*
X367932Y642491D01*
X368116Y642498D01*
X368300Y642500D01*
X368484Y642498D01*
X368668Y642491D01*
X368852Y642480D01*
X369035Y642464D01*
X369218Y642444D01*
X369400Y642419D01*
X369582Y642390D01*
X369763Y642356D01*
X369943Y642318D01*
X370122Y642275D01*
X370300Y642228D01*
X370477Y642177D01*
X370653Y642121D01*
X370827Y642062D01*
X370999Y641997D01*
X371170Y641929D01*
X371339Y641857D01*
X371507Y641780D01*
X371672Y641699D01*
X371835Y641614D01*
X371997Y641526D01*
X372156Y641433D01*
X372312Y641336D01*
X372467Y641236D01*
X372619Y641132D01*
X372768Y641024D01*
X372914Y640913D01*
X373058Y640798D01*
X373199Y640679D01*
X373337Y640557D01*
X373472Y640432D01*
X373603Y640303D01*
X373732Y640172D01*
X373857Y640037D01*
X373979Y639899D01*
X374098Y639758D01*
X374213Y639614D01*
X374324Y639468D01*
X374432Y639319D01*
X374536Y639167D01*
X374636Y639012D01*
X374733Y638856D01*
X374826Y638697D01*
X374914Y638535D01*
X374999Y638372D01*
X375080Y638207D01*
X375157Y638039D01*
X375229Y637870D01*
X375297Y637699D01*
X375362Y637527D01*
X375421Y637353D01*
X375477Y637177D01*
X375528Y637000D01*
X375575Y636822D01*
X375618Y636643D01*
X375656Y636463D01*
X375690Y636282D01*
X375719Y636100D01*
X375744Y635918D01*
X375764Y635735D01*
X375780Y635552D01*
X375791Y635368D01*
X375798Y635184D01*
X375800Y635000D01*
X375798Y634816D01*
X375791Y634632D01*
X375780Y634448D01*
X375764Y634265D01*
X375744Y634082D01*
X375719Y633900D01*
X375690Y633718D01*
X375656Y633537D01*
X375618Y633357D01*
X375575Y633178D01*
X375528Y633000D01*
X375477Y632823D01*
X375421Y632647D01*
X375362Y632473D01*
X375297Y632301D01*
X375229Y632130D01*
X375157Y631961D01*
X375080Y631793D01*
X374999Y631628D01*
X374914Y631465D01*
X374826Y631303D01*
X374733Y631144D01*
X374636Y630988D01*
X374536Y630833D01*
X374432Y630681D01*
X374324Y630532D01*
X374213Y630386D01*
X374098Y630242D01*
X373979Y630101D01*
X373857Y629963D01*
X373732Y629828D01*
X373603Y629697D01*
X373472Y629568D01*
X373337Y629443D01*
X373199Y629321D01*
X373058Y629202D01*
X372914Y629087D01*
X372768Y628976D01*
X372619Y628868D01*
X372467Y628764D01*
X372312Y628664D01*
X372156Y628567D01*
X371997Y628474D01*
X371835Y628386D01*
X371672Y628301D01*
X371507Y628220D01*
X371339Y628143D01*
X371170Y628071D01*
X370999Y628003D01*
X370827Y627938D01*
X370653Y627879D01*
X370477Y627823D01*
X370300Y627772D01*
X370122Y627725D01*
X369943Y627682D01*
X369763Y627644D01*
X369582Y627610D01*
X369400Y627581D01*
X369218Y627556D01*
X369035Y627536D01*
X368852Y627520D01*
X368668Y627509D01*
X368484Y627502D01*
X368300Y627500D01*
X368116Y627502D01*
X367932Y627509D01*
X367748Y627520D01*
X367565Y627536D01*
X367382Y627556D01*
X367200Y627581D01*
X367018Y627610D01*
X366837Y627644D01*
X366657Y627682D01*
X366478Y627725D01*
X366300Y627772D01*
X366123Y627823D01*
X365947Y627879D01*
X365773Y627938D01*
X365601Y628003D01*
X365430Y628071D01*
X365261Y628143D01*
X365093Y628220D01*
X364928Y628301D01*
X364765Y628386D01*
X364603Y628474D01*
X364444Y628567D01*
X364288Y628664D01*
X364133Y628764D01*
X363981Y628868D01*
X363832Y628976D01*
X363686Y629087D01*
X363542Y629202D01*
X363401Y629321D01*
X363263Y629443D01*
X363128Y629568D01*
X362997Y629697D01*
X362868Y629828D01*
X362743Y629963D01*
X362621Y630101D01*
X362502Y630242D01*
X362387Y630386D01*
X362276Y630532D01*
X362168Y630681D01*
X362064Y630833D01*
X361964Y630988D01*
X361867Y631144D01*
X361774Y631303D01*
X361686Y631465D01*
X361601Y631628D01*
X361520Y631793D01*
X361443Y631961D01*
X361371Y632130D01*
X361303Y632301D01*
X361238Y632473D01*
X361179Y632647D01*
X361123Y632823D01*
X361072Y633000D01*
X361025Y633178D01*
X360982Y633357D01*
X360944Y633537D01*
X360910Y633718D01*
X360881Y633900D01*
X360856Y634082D01*
X360836Y634265D01*
X360820Y634448D01*
X360809Y634632D01*
X360802Y634816D01*
X360800Y635000D01*
X259200Y533400D02*
X259202Y533584D01*
X259209Y533768D01*
X259220Y533952D01*
X259236Y534135D01*
X259256Y534318D01*
X259281Y534500D01*
X259310Y534682D01*
X259344Y534863D01*
X259382Y535043D01*
X259425Y535222D01*
X259472Y535400D01*
X259523Y535577D01*
X259579Y535753D01*
X259638Y535927D01*
X259703Y536099D01*
X259771Y536270D01*
X259843Y536439D01*
X259920Y536607D01*
X260001Y536772D01*
X260086Y536935D01*
X260174Y537097D01*
X260267Y537256D01*
X260364Y537412D01*
X260464Y537567D01*
X260568Y537719D01*
X260676Y537868D01*
X260787Y538014D01*
X260902Y538158D01*
X261021Y538299D01*
X261143Y538437D01*
X261268Y538572D01*
X261397Y538703D01*
X261528Y538832D01*
X261663Y538957D01*
X261801Y539079D01*
X261942Y539198D01*
X262086Y539313D01*
X262232Y539424D01*
X262381Y539532D01*
X262533Y539636D01*
X262688Y539736D01*
X262844Y539833D01*
X263003Y539926D01*
X263165Y540014D01*
X263328Y540099D01*
X263493Y540180D01*
X263661Y540257D01*
X263830Y540329D01*
X264001Y540397D01*
X264173Y540462D01*
X264347Y540521D01*
X264523Y540577D01*
X264700Y540628D01*
X264878Y540675D01*
X265057Y540718D01*
X265237Y540756D01*
X265418Y540790D01*
X265600Y540819D01*
X265782Y540844D01*
X265965Y540864D01*
X266148Y540880D01*
X266332Y540891D01*
X266516Y540898D01*
X266700Y540900D01*
X266884Y540898D01*
X267068Y540891D01*
X267252Y540880D01*
X267435Y540864D01*
X267618Y540844D01*
X267800Y540819D01*
X267982Y540790D01*
X268163Y540756D01*
X268343Y540718D01*
X268522Y540675D01*
X268700Y540628D01*
X268877Y540577D01*
X269053Y540521D01*
X269227Y540462D01*
X269399Y540397D01*
X269570Y540329D01*
X269739Y540257D01*
X269907Y540180D01*
X270072Y540099D01*
X270235Y540014D01*
X270397Y539926D01*
X270556Y539833D01*
X270712Y539736D01*
X270867Y539636D01*
X271019Y539532D01*
X271168Y539424D01*
X271314Y539313D01*
X271458Y539198D01*
X271599Y539079D01*
X271737Y538957D01*
X271872Y538832D01*
X272003Y538703D01*
X272132Y538572D01*
X272257Y538437D01*
X272379Y538299D01*
X272498Y538158D01*
X272613Y538014D01*
X272724Y537868D01*
X272832Y537719D01*
X272936Y537567D01*
X273036Y537412D01*
X273133Y537256D01*
X273226Y537097D01*
X273314Y536935D01*
X273399Y536772D01*
X273480Y536607D01*
X273557Y536439D01*
X273629Y536270D01*
X273697Y536099D01*
X273762Y535927D01*
X273821Y535753D01*
X273877Y535577D01*
X273928Y535400D01*
X273975Y535222D01*
X274018Y535043D01*
X274056Y534863D01*
X274090Y534682D01*
X274119Y534500D01*
X274144Y534318D01*
X274164Y534135D01*
X274180Y533952D01*
X274191Y533768D01*
X274198Y533584D01*
X274200Y533400D01*
X274198Y533216D01*
X274191Y533032D01*
X274180Y532848D01*
X274164Y532665D01*
X274144Y532482D01*
X274119Y532300D01*
X274090Y532118D01*
X274056Y531937D01*
X274018Y531757D01*
X273975Y531578D01*
X273928Y531400D01*
X273877Y531223D01*
X273821Y531047D01*
X273762Y530873D01*
X273697Y530701D01*
X273629Y530530D01*
X273557Y530361D01*
X273480Y530193D01*
X273399Y530028D01*
X273314Y529865D01*
X273226Y529703D01*
X273133Y529544D01*
X273036Y529388D01*
X272936Y529233D01*
X272832Y529081D01*
X272724Y528932D01*
X272613Y528786D01*
X272498Y528642D01*
X272379Y528501D01*
X272257Y528363D01*
X272132Y528228D01*
X272003Y528097D01*
X271872Y527968D01*
X271737Y527843D01*
X271599Y527721D01*
X271458Y527602D01*
X271314Y527487D01*
X271168Y527376D01*
X271019Y527268D01*
X270867Y527164D01*
X270712Y527064D01*
X270556Y526967D01*
X270397Y526874D01*
X270235Y526786D01*
X270072Y526701D01*
X269907Y526620D01*
X269739Y526543D01*
X269570Y526471D01*
X269399Y526403D01*
X269227Y526338D01*
X269053Y526279D01*
X268877Y526223D01*
X268700Y526172D01*
X268522Y526125D01*
X268343Y526082D01*
X268163Y526044D01*
X267982Y526010D01*
X267800Y525981D01*
X267618Y525956D01*
X267435Y525936D01*
X267252Y525920D01*
X267068Y525909D01*
X266884Y525902D01*
X266700Y525900D01*
X266516Y525902D01*
X266332Y525909D01*
X266148Y525920D01*
X265965Y525936D01*
X265782Y525956D01*
X265600Y525981D01*
X265418Y526010D01*
X265237Y526044D01*
X265057Y526082D01*
X264878Y526125D01*
X264700Y526172D01*
X264523Y526223D01*
X264347Y526279D01*
X264173Y526338D01*
X264001Y526403D01*
X263830Y526471D01*
X263661Y526543D01*
X263493Y526620D01*
X263328Y526701D01*
X263165Y526786D01*
X263003Y526874D01*
X262844Y526967D01*
X262688Y527064D01*
X262533Y527164D01*
X262381Y527268D01*
X262232Y527376D01*
X262086Y527487D01*
X261942Y527602D01*
X261801Y527721D01*
X261663Y527843D01*
X261528Y527968D01*
X261397Y528097D01*
X261268Y528228D01*
X261143Y528363D01*
X261021Y528501D01*
X260902Y528642D01*
X260787Y528786D01*
X260676Y528932D01*
X260568Y529081D01*
X260464Y529233D01*
X260364Y529388D01*
X260267Y529544D01*
X260174Y529703D01*
X260086Y529865D01*
X260001Y530028D01*
X259920Y530193D01*
X259843Y530361D01*
X259771Y530530D01*
X259703Y530701D01*
X259638Y530873D01*
X259579Y531047D01*
X259523Y531223D01*
X259472Y531400D01*
X259425Y531578D01*
X259382Y531757D01*
X259344Y531937D01*
X259310Y532118D01*
X259281Y532300D01*
X259256Y532482D01*
X259236Y532665D01*
X259220Y532848D01*
X259209Y533032D01*
X259202Y533216D01*
X259200Y533400D01*
X525900Y635000D02*
X525902Y635184D01*
X525909Y635368D01*
X525920Y635552D01*
X525936Y635735D01*
X525956Y635918D01*
X525981Y636100D01*
X526010Y636282D01*
X526044Y636463D01*
X526082Y636643D01*
X526125Y636822D01*
X526172Y637000D01*
X526223Y637177D01*
X526279Y637353D01*
X526338Y637527D01*
X526403Y637699D01*
X526471Y637870D01*
X526543Y638039D01*
X526620Y638207D01*
X526701Y638372D01*
X526786Y638535D01*
X526874Y638697D01*
X526967Y638856D01*
X527064Y639012D01*
X527164Y639167D01*
X527268Y639319D01*
X527376Y639468D01*
X527487Y639614D01*
X527602Y639758D01*
X527721Y639899D01*
X527843Y640037D01*
X527968Y640172D01*
X528097Y640303D01*
X528228Y640432D01*
X528363Y640557D01*
X528501Y640679D01*
X528642Y640798D01*
X528786Y640913D01*
X528932Y641024D01*
X529081Y641132D01*
X529233Y641236D01*
X529388Y641336D01*
X529544Y641433D01*
X529703Y641526D01*
X529865Y641614D01*
X530028Y641699D01*
X530193Y641780D01*
X530361Y641857D01*
X530530Y641929D01*
X530701Y641997D01*
X530873Y642062D01*
X531047Y642121D01*
X531223Y642177D01*
X531400Y642228D01*
X531578Y642275D01*
X531757Y642318D01*
X531937Y642356D01*
X532118Y642390D01*
X532300Y642419D01*
X532482Y642444D01*
X532665Y642464D01*
X532848Y642480D01*
X533032Y642491D01*
X533216Y642498D01*
X533400Y642500D01*
X533584Y642498D01*
X533768Y642491D01*
X533952Y642480D01*
X534135Y642464D01*
X534318Y642444D01*
X534500Y642419D01*
X534682Y642390D01*
X534863Y642356D01*
X535043Y642318D01*
X535222Y642275D01*
X535400Y642228D01*
X535577Y642177D01*
X535753Y642121D01*
X535927Y642062D01*
X536099Y641997D01*
X536270Y641929D01*
X536439Y641857D01*
X536607Y641780D01*
X536772Y641699D01*
X536935Y641614D01*
X537097Y641526D01*
X537256Y641433D01*
X537412Y641336D01*
X537567Y641236D01*
X537719Y641132D01*
X537868Y641024D01*
X538014Y640913D01*
X538158Y640798D01*
X538299Y640679D01*
X538437Y640557D01*
X538572Y640432D01*
X538703Y640303D01*
X538832Y640172D01*
X538957Y640037D01*
X539079Y639899D01*
X539198Y639758D01*
X539313Y639614D01*
X539424Y639468D01*
X539532Y639319D01*
X539636Y639167D01*
X539736Y639012D01*
X539833Y638856D01*
X539926Y638697D01*
X540014Y638535D01*
X540099Y638372D01*
X540180Y638207D01*
X540257Y638039D01*
X540329Y637870D01*
X540397Y637699D01*
X540462Y637527D01*
X540521Y637353D01*
X540577Y637177D01*
X540628Y637000D01*
X540675Y636822D01*
X540718Y636643D01*
X540756Y636463D01*
X540790Y636282D01*
X540819Y636100D01*
X540844Y635918D01*
X540864Y635735D01*
X540880Y635552D01*
X540891Y635368D01*
X540898Y635184D01*
X540900Y635000D01*
X540898Y634816D01*
X540891Y634632D01*
X540880Y634448D01*
X540864Y634265D01*
X540844Y634082D01*
X540819Y633900D01*
X540790Y633718D01*
X540756Y633537D01*
X540718Y633357D01*
X540675Y633178D01*
X540628Y633000D01*
X540577Y632823D01*
X540521Y632647D01*
X540462Y632473D01*
X540397Y632301D01*
X540329Y632130D01*
X540257Y631961D01*
X540180Y631793D01*
X540099Y631628D01*
X540014Y631465D01*
X539926Y631303D01*
X539833Y631144D01*
X539736Y630988D01*
X539636Y630833D01*
X539532Y630681D01*
X539424Y630532D01*
X539313Y630386D01*
X539198Y630242D01*
X539079Y630101D01*
X538957Y629963D01*
X538832Y629828D01*
X538703Y629697D01*
X538572Y629568D01*
X538437Y629443D01*
X538299Y629321D01*
X538158Y629202D01*
X538014Y629087D01*
X537868Y628976D01*
X537719Y628868D01*
X537567Y628764D01*
X537412Y628664D01*
X537256Y628567D01*
X537097Y628474D01*
X536935Y628386D01*
X536772Y628301D01*
X536607Y628220D01*
X536439Y628143D01*
X536270Y628071D01*
X536099Y628003D01*
X535927Y627938D01*
X535753Y627879D01*
X535577Y627823D01*
X535400Y627772D01*
X535222Y627725D01*
X535043Y627682D01*
X534863Y627644D01*
X534682Y627610D01*
X534500Y627581D01*
X534318Y627556D01*
X534135Y627536D01*
X533952Y627520D01*
X533768Y627509D01*
X533584Y627502D01*
X533400Y627500D01*
X533216Y627502D01*
X533032Y627509D01*
X532848Y627520D01*
X532665Y627536D01*
X532482Y627556D01*
X532300Y627581D01*
X532118Y627610D01*
X531937Y627644D01*
X531757Y627682D01*
X531578Y627725D01*
X531400Y627772D01*
X531223Y627823D01*
X531047Y627879D01*
X530873Y627938D01*
X530701Y628003D01*
X530530Y628071D01*
X530361Y628143D01*
X530193Y628220D01*
X530028Y628301D01*
X529865Y628386D01*
X529703Y628474D01*
X529544Y628567D01*
X529388Y628664D01*
X529233Y628764D01*
X529081Y628868D01*
X528932Y628976D01*
X528786Y629087D01*
X528642Y629202D01*
X528501Y629321D01*
X528363Y629443D01*
X528228Y629568D01*
X528097Y629697D01*
X527968Y629828D01*
X527843Y629963D01*
X527721Y630101D01*
X527602Y630242D01*
X527487Y630386D01*
X527376Y630532D01*
X527268Y630681D01*
X527164Y630833D01*
X527064Y630988D01*
X526967Y631144D01*
X526874Y631303D01*
X526786Y631465D01*
X526701Y631628D01*
X526620Y631793D01*
X526543Y631961D01*
X526471Y632130D01*
X526403Y632301D01*
X526338Y632473D01*
X526279Y632647D01*
X526223Y632823D01*
X526172Y633000D01*
X526125Y633178D01*
X526082Y633357D01*
X526044Y633537D01*
X526010Y633718D01*
X525981Y633900D01*
X525956Y634082D01*
X525936Y634265D01*
X525920Y634448D01*
X525909Y634632D01*
X525902Y634816D01*
X525900Y635000D01*
X424300Y533400D02*
X424302Y533584D01*
X424309Y533768D01*
X424320Y533952D01*
X424336Y534135D01*
X424356Y534318D01*
X424381Y534500D01*
X424410Y534682D01*
X424444Y534863D01*
X424482Y535043D01*
X424525Y535222D01*
X424572Y535400D01*
X424623Y535577D01*
X424679Y535753D01*
X424738Y535927D01*
X424803Y536099D01*
X424871Y536270D01*
X424943Y536439D01*
X425020Y536607D01*
X425101Y536772D01*
X425186Y536935D01*
X425274Y537097D01*
X425367Y537256D01*
X425464Y537412D01*
X425564Y537567D01*
X425668Y537719D01*
X425776Y537868D01*
X425887Y538014D01*
X426002Y538158D01*
X426121Y538299D01*
X426243Y538437D01*
X426368Y538572D01*
X426497Y538703D01*
X426628Y538832D01*
X426763Y538957D01*
X426901Y539079D01*
X427042Y539198D01*
X427186Y539313D01*
X427332Y539424D01*
X427481Y539532D01*
X427633Y539636D01*
X427788Y539736D01*
X427944Y539833D01*
X428103Y539926D01*
X428265Y540014D01*
X428428Y540099D01*
X428593Y540180D01*
X428761Y540257D01*
X428930Y540329D01*
X429101Y540397D01*
X429273Y540462D01*
X429447Y540521D01*
X429623Y540577D01*
X429800Y540628D01*
X429978Y540675D01*
X430157Y540718D01*
X430337Y540756D01*
X430518Y540790D01*
X430700Y540819D01*
X430882Y540844D01*
X431065Y540864D01*
X431248Y540880D01*
X431432Y540891D01*
X431616Y540898D01*
X431800Y540900D01*
X431984Y540898D01*
X432168Y540891D01*
X432352Y540880D01*
X432535Y540864D01*
X432718Y540844D01*
X432900Y540819D01*
X433082Y540790D01*
X433263Y540756D01*
X433443Y540718D01*
X433622Y540675D01*
X433800Y540628D01*
X433977Y540577D01*
X434153Y540521D01*
X434327Y540462D01*
X434499Y540397D01*
X434670Y540329D01*
X434839Y540257D01*
X435007Y540180D01*
X435172Y540099D01*
X435335Y540014D01*
X435497Y539926D01*
X435656Y539833D01*
X435812Y539736D01*
X435967Y539636D01*
X436119Y539532D01*
X436268Y539424D01*
X436414Y539313D01*
X436558Y539198D01*
X436699Y539079D01*
X436837Y538957D01*
X436972Y538832D01*
X437103Y538703D01*
X437232Y538572D01*
X437357Y538437D01*
X437479Y538299D01*
X437598Y538158D01*
X437713Y538014D01*
X437824Y537868D01*
X437932Y537719D01*
X438036Y537567D01*
X438136Y537412D01*
X438233Y537256D01*
X438326Y537097D01*
X438414Y536935D01*
X438499Y536772D01*
X438580Y536607D01*
X438657Y536439D01*
X438729Y536270D01*
X438797Y536099D01*
X438862Y535927D01*
X438921Y535753D01*
X438977Y535577D01*
X439028Y535400D01*
X439075Y535222D01*
X439118Y535043D01*
X439156Y534863D01*
X439190Y534682D01*
X439219Y534500D01*
X439244Y534318D01*
X439264Y534135D01*
X439280Y533952D01*
X439291Y533768D01*
X439298Y533584D01*
X439300Y533400D01*
X439298Y533216D01*
X439291Y533032D01*
X439280Y532848D01*
X439264Y532665D01*
X439244Y532482D01*
X439219Y532300D01*
X439190Y532118D01*
X439156Y531937D01*
X439118Y531757D01*
X439075Y531578D01*
X439028Y531400D01*
X438977Y531223D01*
X438921Y531047D01*
X438862Y530873D01*
X438797Y530701D01*
X438729Y530530D01*
X438657Y530361D01*
X438580Y530193D01*
X438499Y530028D01*
X438414Y529865D01*
X438326Y529703D01*
X438233Y529544D01*
X438136Y529388D01*
X438036Y529233D01*
X437932Y529081D01*
X437824Y528932D01*
X437713Y528786D01*
X437598Y528642D01*
X437479Y528501D01*
X437357Y528363D01*
X437232Y528228D01*
X437103Y528097D01*
X436972Y527968D01*
X436837Y527843D01*
X436699Y527721D01*
X436558Y527602D01*
X436414Y527487D01*
X436268Y527376D01*
X436119Y527268D01*
X435967Y527164D01*
X435812Y527064D01*
X435656Y526967D01*
X435497Y526874D01*
X435335Y526786D01*
X435172Y526701D01*
X435007Y526620D01*
X434839Y526543D01*
X434670Y526471D01*
X434499Y526403D01*
X434327Y526338D01*
X434153Y526279D01*
X433977Y526223D01*
X433800Y526172D01*
X433622Y526125D01*
X433443Y526082D01*
X433263Y526044D01*
X433082Y526010D01*
X432900Y525981D01*
X432718Y525956D01*
X432535Y525936D01*
X432352Y525920D01*
X432168Y525909D01*
X431984Y525902D01*
X431800Y525900D01*
X431616Y525902D01*
X431432Y525909D01*
X431248Y525920D01*
X431065Y525936D01*
X430882Y525956D01*
X430700Y525981D01*
X430518Y526010D01*
X430337Y526044D01*
X430157Y526082D01*
X429978Y526125D01*
X429800Y526172D01*
X429623Y526223D01*
X429447Y526279D01*
X429273Y526338D01*
X429101Y526403D01*
X428930Y526471D01*
X428761Y526543D01*
X428593Y526620D01*
X428428Y526701D01*
X428265Y526786D01*
X428103Y526874D01*
X427944Y526967D01*
X427788Y527064D01*
X427633Y527164D01*
X427481Y527268D01*
X427332Y527376D01*
X427186Y527487D01*
X427042Y527602D01*
X426901Y527721D01*
X426763Y527843D01*
X426628Y527968D01*
X426497Y528097D01*
X426368Y528228D01*
X426243Y528363D01*
X426121Y528501D01*
X426002Y528642D01*
X425887Y528786D01*
X425776Y528932D01*
X425668Y529081D01*
X425564Y529233D01*
X425464Y529388D01*
X425367Y529544D01*
X425274Y529703D01*
X425186Y529865D01*
X425101Y530028D01*
X425020Y530193D01*
X424943Y530361D01*
X424871Y530530D01*
X424803Y530701D01*
X424738Y530873D01*
X424679Y531047D01*
X424623Y531223D01*
X424572Y531400D01*
X424525Y531578D01*
X424482Y531757D01*
X424444Y531937D01*
X424410Y532118D01*
X424381Y532300D01*
X424356Y532482D01*
X424336Y532665D01*
X424320Y532848D01*
X424309Y533032D01*
X424302Y533216D01*
X424300Y533400D01*
X691000Y635000D02*
X691002Y635184D01*
X691009Y635368D01*
X691020Y635552D01*
X691036Y635735D01*
X691056Y635918D01*
X691081Y636100D01*
X691110Y636282D01*
X691144Y636463D01*
X691182Y636643D01*
X691225Y636822D01*
X691272Y637000D01*
X691323Y637177D01*
X691379Y637353D01*
X691438Y637527D01*
X691503Y637699D01*
X691571Y637870D01*
X691643Y638039D01*
X691720Y638207D01*
X691801Y638372D01*
X691886Y638535D01*
X691974Y638697D01*
X692067Y638856D01*
X692164Y639012D01*
X692264Y639167D01*
X692368Y639319D01*
X692476Y639468D01*
X692587Y639614D01*
X692702Y639758D01*
X692821Y639899D01*
X692943Y640037D01*
X693068Y640172D01*
X693197Y640303D01*
X693328Y640432D01*
X693463Y640557D01*
X693601Y640679D01*
X693742Y640798D01*
X693886Y640913D01*
X694032Y641024D01*
X694181Y641132D01*
X694333Y641236D01*
X694488Y641336D01*
X694644Y641433D01*
X694803Y641526D01*
X694965Y641614D01*
X695128Y641699D01*
X695293Y641780D01*
X695461Y641857D01*
X695630Y641929D01*
X695801Y641997D01*
X695973Y642062D01*
X696147Y642121D01*
X696323Y642177D01*
X696500Y642228D01*
X696678Y642275D01*
X696857Y642318D01*
X697037Y642356D01*
X697218Y642390D01*
X697400Y642419D01*
X697582Y642444D01*
X697765Y642464D01*
X697948Y642480D01*
X698132Y642491D01*
X698316Y642498D01*
X698500Y642500D01*
X698684Y642498D01*
X698868Y642491D01*
X699052Y642480D01*
X699235Y642464D01*
X699418Y642444D01*
X699600Y642419D01*
X699782Y642390D01*
X699963Y642356D01*
X700143Y642318D01*
X700322Y642275D01*
X700500Y642228D01*
X700677Y642177D01*
X700853Y642121D01*
X701027Y642062D01*
X701199Y641997D01*
X701370Y641929D01*
X701539Y641857D01*
X701707Y641780D01*
X701872Y641699D01*
X702035Y641614D01*
X702197Y641526D01*
X702356Y641433D01*
X702512Y641336D01*
X702667Y641236D01*
X702819Y641132D01*
X702968Y641024D01*
X703114Y640913D01*
X703258Y640798D01*
X703399Y640679D01*
X703537Y640557D01*
X703672Y640432D01*
X703803Y640303D01*
X703932Y640172D01*
X704057Y640037D01*
X704179Y639899D01*
X704298Y639758D01*
X704413Y639614D01*
X704524Y639468D01*
X704632Y639319D01*
X704736Y639167D01*
X704836Y639012D01*
X704933Y638856D01*
X705026Y638697D01*
X705114Y638535D01*
X705199Y638372D01*
X705280Y638207D01*
X705357Y638039D01*
X705429Y637870D01*
X705497Y637699D01*
X705562Y637527D01*
X705621Y637353D01*
X705677Y637177D01*
X705728Y637000D01*
X705775Y636822D01*
X705818Y636643D01*
X705856Y636463D01*
X705890Y636282D01*
X705919Y636100D01*
X705944Y635918D01*
X705964Y635735D01*
X705980Y635552D01*
X705991Y635368D01*
X705998Y635184D01*
X706000Y635000D01*
X705998Y634816D01*
X705991Y634632D01*
X705980Y634448D01*
X705964Y634265D01*
X705944Y634082D01*
X705919Y633900D01*
X705890Y633718D01*
X705856Y633537D01*
X705818Y633357D01*
X705775Y633178D01*
X705728Y633000D01*
X705677Y632823D01*
X705621Y632647D01*
X705562Y632473D01*
X705497Y632301D01*
X705429Y632130D01*
X705357Y631961D01*
X705280Y631793D01*
X705199Y631628D01*
X705114Y631465D01*
X705026Y631303D01*
X704933Y631144D01*
X704836Y630988D01*
X704736Y630833D01*
X704632Y630681D01*
X704524Y630532D01*
X704413Y630386D01*
X704298Y630242D01*
X704179Y630101D01*
X704057Y629963D01*
X703932Y629828D01*
X703803Y629697D01*
X703672Y629568D01*
X703537Y629443D01*
X703399Y629321D01*
X703258Y629202D01*
X703114Y629087D01*
X702968Y628976D01*
X702819Y628868D01*
X702667Y628764D01*
X702512Y628664D01*
X702356Y628567D01*
X702197Y628474D01*
X702035Y628386D01*
X701872Y628301D01*
X701707Y628220D01*
X701539Y628143D01*
X701370Y628071D01*
X701199Y628003D01*
X701027Y627938D01*
X700853Y627879D01*
X700677Y627823D01*
X700500Y627772D01*
X700322Y627725D01*
X700143Y627682D01*
X699963Y627644D01*
X699782Y627610D01*
X699600Y627581D01*
X699418Y627556D01*
X699235Y627536D01*
X699052Y627520D01*
X698868Y627509D01*
X698684Y627502D01*
X698500Y627500D01*
X698316Y627502D01*
X698132Y627509D01*
X697948Y627520D01*
X697765Y627536D01*
X697582Y627556D01*
X697400Y627581D01*
X697218Y627610D01*
X697037Y627644D01*
X696857Y627682D01*
X696678Y627725D01*
X696500Y627772D01*
X696323Y627823D01*
X696147Y627879D01*
X695973Y627938D01*
X695801Y628003D01*
X695630Y628071D01*
X695461Y628143D01*
X695293Y628220D01*
X695128Y628301D01*
X694965Y628386D01*
X694803Y628474D01*
X694644Y628567D01*
X694488Y628664D01*
X694333Y628764D01*
X694181Y628868D01*
X694032Y628976D01*
X693886Y629087D01*
X693742Y629202D01*
X693601Y629321D01*
X693463Y629443D01*
X693328Y629568D01*
X693197Y629697D01*
X693068Y629828D01*
X692943Y629963D01*
X692821Y630101D01*
X692702Y630242D01*
X692587Y630386D01*
X692476Y630532D01*
X692368Y630681D01*
X692264Y630833D01*
X692164Y630988D01*
X692067Y631144D01*
X691974Y631303D01*
X691886Y631465D01*
X691801Y631628D01*
X691720Y631793D01*
X691643Y631961D01*
X691571Y632130D01*
X691503Y632301D01*
X691438Y632473D01*
X691379Y632647D01*
X691323Y632823D01*
X691272Y633000D01*
X691225Y633178D01*
X691182Y633357D01*
X691144Y633537D01*
X691110Y633718D01*
X691081Y633900D01*
X691056Y634082D01*
X691036Y634265D01*
X691020Y634448D01*
X691009Y634632D01*
X691002Y634816D01*
X691000Y635000D01*
X589400Y533400D02*
X589402Y533584D01*
X589409Y533768D01*
X589420Y533952D01*
X589436Y534135D01*
X589456Y534318D01*
X589481Y534500D01*
X589510Y534682D01*
X589544Y534863D01*
X589582Y535043D01*
X589625Y535222D01*
X589672Y535400D01*
X589723Y535577D01*
X589779Y535753D01*
X589838Y535927D01*
X589903Y536099D01*
X589971Y536270D01*
X590043Y536439D01*
X590120Y536607D01*
X590201Y536772D01*
X590286Y536935D01*
X590374Y537097D01*
X590467Y537256D01*
X590564Y537412D01*
X590664Y537567D01*
X590768Y537719D01*
X590876Y537868D01*
X590987Y538014D01*
X591102Y538158D01*
X591221Y538299D01*
X591343Y538437D01*
X591468Y538572D01*
X591597Y538703D01*
X591728Y538832D01*
X591863Y538957D01*
X592001Y539079D01*
X592142Y539198D01*
X592286Y539313D01*
X592432Y539424D01*
X592581Y539532D01*
X592733Y539636D01*
X592888Y539736D01*
X593044Y539833D01*
X593203Y539926D01*
X593365Y540014D01*
X593528Y540099D01*
X593693Y540180D01*
X593861Y540257D01*
X594030Y540329D01*
X594201Y540397D01*
X594373Y540462D01*
X594547Y540521D01*
X594723Y540577D01*
X594900Y540628D01*
X595078Y540675D01*
X595257Y540718D01*
X595437Y540756D01*
X595618Y540790D01*
X595800Y540819D01*
X595982Y540844D01*
X596165Y540864D01*
X596348Y540880D01*
X596532Y540891D01*
X596716Y540898D01*
X596900Y540900D01*
X597084Y540898D01*
X597268Y540891D01*
X597452Y540880D01*
X597635Y540864D01*
X597818Y540844D01*
X598000Y540819D01*
X598182Y540790D01*
X598363Y540756D01*
X598543Y540718D01*
X598722Y540675D01*
X598900Y540628D01*
X599077Y540577D01*
X599253Y540521D01*
X599427Y540462D01*
X599599Y540397D01*
X599770Y540329D01*
X599939Y540257D01*
X600107Y540180D01*
X600272Y540099D01*
X600435Y540014D01*
X600597Y539926D01*
X600756Y539833D01*
X600912Y539736D01*
X601067Y539636D01*
X601219Y539532D01*
X601368Y539424D01*
X601514Y539313D01*
X601658Y539198D01*
X601799Y539079D01*
X601937Y538957D01*
X602072Y538832D01*
X602203Y538703D01*
X602332Y538572D01*
X602457Y538437D01*
X602579Y538299D01*
X602698Y538158D01*
X602813Y538014D01*
X602924Y537868D01*
X603032Y537719D01*
X603136Y537567D01*
X603236Y537412D01*
X603333Y537256D01*
X603426Y537097D01*
X603514Y536935D01*
X603599Y536772D01*
X603680Y536607D01*
X603757Y536439D01*
X603829Y536270D01*
X603897Y536099D01*
X603962Y535927D01*
X604021Y535753D01*
X604077Y535577D01*
X604128Y535400D01*
X604175Y535222D01*
X604218Y535043D01*
X604256Y534863D01*
X604290Y534682D01*
X604319Y534500D01*
X604344Y534318D01*
X604364Y534135D01*
X604380Y533952D01*
X604391Y533768D01*
X604398Y533584D01*
X604400Y533400D01*
X604398Y533216D01*
X604391Y533032D01*
X604380Y532848D01*
X604364Y532665D01*
X604344Y532482D01*
X604319Y532300D01*
X604290Y532118D01*
X604256Y531937D01*
X604218Y531757D01*
X604175Y531578D01*
X604128Y531400D01*
X604077Y531223D01*
X604021Y531047D01*
X603962Y530873D01*
X603897Y530701D01*
X603829Y530530D01*
X603757Y530361D01*
X603680Y530193D01*
X603599Y530028D01*
X603514Y529865D01*
X603426Y529703D01*
X603333Y529544D01*
X603236Y529388D01*
X603136Y529233D01*
X603032Y529081D01*
X602924Y528932D01*
X602813Y528786D01*
X602698Y528642D01*
X602579Y528501D01*
X602457Y528363D01*
X602332Y528228D01*
X602203Y528097D01*
X602072Y527968D01*
X601937Y527843D01*
X601799Y527721D01*
X601658Y527602D01*
X601514Y527487D01*
X601368Y527376D01*
X601219Y527268D01*
X601067Y527164D01*
X600912Y527064D01*
X600756Y526967D01*
X600597Y526874D01*
X600435Y526786D01*
X600272Y526701D01*
X600107Y526620D01*
X599939Y526543D01*
X599770Y526471D01*
X599599Y526403D01*
X599427Y526338D01*
X599253Y526279D01*
X599077Y526223D01*
X598900Y526172D01*
X598722Y526125D01*
X598543Y526082D01*
X598363Y526044D01*
X598182Y526010D01*
X598000Y525981D01*
X597818Y525956D01*
X597635Y525936D01*
X597452Y525920D01*
X597268Y525909D01*
X597084Y525902D01*
X596900Y525900D01*
X596716Y525902D01*
X596532Y525909D01*
X596348Y525920D01*
X596165Y525936D01*
X595982Y525956D01*
X595800Y525981D01*
X595618Y526010D01*
X595437Y526044D01*
X595257Y526082D01*
X595078Y526125D01*
X594900Y526172D01*
X594723Y526223D01*
X594547Y526279D01*
X594373Y526338D01*
X594201Y526403D01*
X594030Y526471D01*
X593861Y526543D01*
X593693Y526620D01*
X593528Y526701D01*
X593365Y526786D01*
X593203Y526874D01*
X593044Y526967D01*
X592888Y527064D01*
X592733Y527164D01*
X592581Y527268D01*
X592432Y527376D01*
X592286Y527487D01*
X592142Y527602D01*
X592001Y527721D01*
X591863Y527843D01*
X591728Y527968D01*
X591597Y528097D01*
X591468Y528228D01*
X591343Y528363D01*
X591221Y528501D01*
X591102Y528642D01*
X590987Y528786D01*
X590876Y528932D01*
X590768Y529081D01*
X590664Y529233D01*
X590564Y529388D01*
X590467Y529544D01*
X590374Y529703D01*
X590286Y529865D01*
X590201Y530028D01*
X590120Y530193D01*
X590043Y530361D01*
X589971Y530530D01*
X589903Y530701D01*
X589838Y530873D01*
X589779Y531047D01*
X589723Y531223D01*
X589672Y531400D01*
X589625Y531578D01*
X589582Y531757D01*
X589544Y531937D01*
X589510Y532118D01*
X589481Y532300D01*
X589456Y532482D01*
X589436Y532665D01*
X589420Y532848D01*
X589409Y533032D01*
X589402Y533216D01*
X589400Y533400D01*
X195700Y469900D02*
X195702Y470084D01*
X195709Y470268D01*
X195720Y470452D01*
X195736Y470635D01*
X195756Y470818D01*
X195781Y471000D01*
X195810Y471182D01*
X195844Y471363D01*
X195882Y471543D01*
X195925Y471722D01*
X195972Y471900D01*
X196023Y472077D01*
X196079Y472253D01*
X196138Y472427D01*
X196203Y472599D01*
X196271Y472770D01*
X196343Y472939D01*
X196420Y473107D01*
X196501Y473272D01*
X196586Y473435D01*
X196674Y473597D01*
X196767Y473756D01*
X196864Y473912D01*
X196964Y474067D01*
X197068Y474219D01*
X197176Y474368D01*
X197287Y474514D01*
X197402Y474658D01*
X197521Y474799D01*
X197643Y474937D01*
X197768Y475072D01*
X197897Y475203D01*
X198028Y475332D01*
X198163Y475457D01*
X198301Y475579D01*
X198442Y475698D01*
X198586Y475813D01*
X198732Y475924D01*
X198881Y476032D01*
X199033Y476136D01*
X199188Y476236D01*
X199344Y476333D01*
X199503Y476426D01*
X199665Y476514D01*
X199828Y476599D01*
X199993Y476680D01*
X200161Y476757D01*
X200330Y476829D01*
X200501Y476897D01*
X200673Y476962D01*
X200847Y477021D01*
X201023Y477077D01*
X201200Y477128D01*
X201378Y477175D01*
X201557Y477218D01*
X201737Y477256D01*
X201918Y477290D01*
X202100Y477319D01*
X202282Y477344D01*
X202465Y477364D01*
X202648Y477380D01*
X202832Y477391D01*
X203016Y477398D01*
X203200Y477400D01*
X203384Y477398D01*
X203568Y477391D01*
X203752Y477380D01*
X203935Y477364D01*
X204118Y477344D01*
X204300Y477319D01*
X204482Y477290D01*
X204663Y477256D01*
X204843Y477218D01*
X205022Y477175D01*
X205200Y477128D01*
X205377Y477077D01*
X205553Y477021D01*
X205727Y476962D01*
X205899Y476897D01*
X206070Y476829D01*
X206239Y476757D01*
X206407Y476680D01*
X206572Y476599D01*
X206735Y476514D01*
X206897Y476426D01*
X207056Y476333D01*
X207212Y476236D01*
X207367Y476136D01*
X207519Y476032D01*
X207668Y475924D01*
X207814Y475813D01*
X207958Y475698D01*
X208099Y475579D01*
X208237Y475457D01*
X208372Y475332D01*
X208503Y475203D01*
X208632Y475072D01*
X208757Y474937D01*
X208879Y474799D01*
X208998Y474658D01*
X209113Y474514D01*
X209224Y474368D01*
X209332Y474219D01*
X209436Y474067D01*
X209536Y473912D01*
X209633Y473756D01*
X209726Y473597D01*
X209814Y473435D01*
X209899Y473272D01*
X209980Y473107D01*
X210057Y472939D01*
X210129Y472770D01*
X210197Y472599D01*
X210262Y472427D01*
X210321Y472253D01*
X210377Y472077D01*
X210428Y471900D01*
X210475Y471722D01*
X210518Y471543D01*
X210556Y471363D01*
X210590Y471182D01*
X210619Y471000D01*
X210644Y470818D01*
X210664Y470635D01*
X210680Y470452D01*
X210691Y470268D01*
X210698Y470084D01*
X210700Y469900D01*
X210698Y469716D01*
X210691Y469532D01*
X210680Y469348D01*
X210664Y469165D01*
X210644Y468982D01*
X210619Y468800D01*
X210590Y468618D01*
X210556Y468437D01*
X210518Y468257D01*
X210475Y468078D01*
X210428Y467900D01*
X210377Y467723D01*
X210321Y467547D01*
X210262Y467373D01*
X210197Y467201D01*
X210129Y467030D01*
X210057Y466861D01*
X209980Y466693D01*
X209899Y466528D01*
X209814Y466365D01*
X209726Y466203D01*
X209633Y466044D01*
X209536Y465888D01*
X209436Y465733D01*
X209332Y465581D01*
X209224Y465432D01*
X209113Y465286D01*
X208998Y465142D01*
X208879Y465001D01*
X208757Y464863D01*
X208632Y464728D01*
X208503Y464597D01*
X208372Y464468D01*
X208237Y464343D01*
X208099Y464221D01*
X207958Y464102D01*
X207814Y463987D01*
X207668Y463876D01*
X207519Y463768D01*
X207367Y463664D01*
X207212Y463564D01*
X207056Y463467D01*
X206897Y463374D01*
X206735Y463286D01*
X206572Y463201D01*
X206407Y463120D01*
X206239Y463043D01*
X206070Y462971D01*
X205899Y462903D01*
X205727Y462838D01*
X205553Y462779D01*
X205377Y462723D01*
X205200Y462672D01*
X205022Y462625D01*
X204843Y462582D01*
X204663Y462544D01*
X204482Y462510D01*
X204300Y462481D01*
X204118Y462456D01*
X203935Y462436D01*
X203752Y462420D01*
X203568Y462409D01*
X203384Y462402D01*
X203200Y462400D01*
X203016Y462402D01*
X202832Y462409D01*
X202648Y462420D01*
X202465Y462436D01*
X202282Y462456D01*
X202100Y462481D01*
X201918Y462510D01*
X201737Y462544D01*
X201557Y462582D01*
X201378Y462625D01*
X201200Y462672D01*
X201023Y462723D01*
X200847Y462779D01*
X200673Y462838D01*
X200501Y462903D01*
X200330Y462971D01*
X200161Y463043D01*
X199993Y463120D01*
X199828Y463201D01*
X199665Y463286D01*
X199503Y463374D01*
X199344Y463467D01*
X199188Y463564D01*
X199033Y463664D01*
X198881Y463768D01*
X198732Y463876D01*
X198586Y463987D01*
X198442Y464102D01*
X198301Y464221D01*
X198163Y464343D01*
X198028Y464468D01*
X197897Y464597D01*
X197768Y464728D01*
X197643Y464863D01*
X197521Y465001D01*
X197402Y465142D01*
X197287Y465286D01*
X197176Y465432D01*
X197068Y465581D01*
X196964Y465733D01*
X196864Y465888D01*
X196767Y466044D01*
X196674Y466203D01*
X196586Y466365D01*
X196501Y466528D01*
X196420Y466693D01*
X196343Y466861D01*
X196271Y467030D01*
X196203Y467201D01*
X196138Y467373D01*
X196079Y467547D01*
X196023Y467723D01*
X195972Y467900D01*
X195925Y468078D01*
X195882Y468257D01*
X195844Y468437D01*
X195810Y468618D01*
X195781Y468800D01*
X195756Y468982D01*
X195736Y469165D01*
X195720Y469348D01*
X195709Y469532D01*
X195702Y469716D01*
X195700Y469900D01*
X94100Y368300D02*
X94102Y368484D01*
X94109Y368668D01*
X94120Y368852D01*
X94136Y369035D01*
X94156Y369218D01*
X94181Y369400D01*
X94210Y369582D01*
X94244Y369763D01*
X94282Y369943D01*
X94325Y370122D01*
X94372Y370300D01*
X94423Y370477D01*
X94479Y370653D01*
X94538Y370827D01*
X94603Y370999D01*
X94671Y371170D01*
X94743Y371339D01*
X94820Y371507D01*
X94901Y371672D01*
X94986Y371835D01*
X95074Y371997D01*
X95167Y372156D01*
X95264Y372312D01*
X95364Y372467D01*
X95468Y372619D01*
X95576Y372768D01*
X95687Y372914D01*
X95802Y373058D01*
X95921Y373199D01*
X96043Y373337D01*
X96168Y373472D01*
X96297Y373603D01*
X96428Y373732D01*
X96563Y373857D01*
X96701Y373979D01*
X96842Y374098D01*
X96986Y374213D01*
X97132Y374324D01*
X97281Y374432D01*
X97433Y374536D01*
X97588Y374636D01*
X97744Y374733D01*
X97903Y374826D01*
X98065Y374914D01*
X98228Y374999D01*
X98393Y375080D01*
X98561Y375157D01*
X98730Y375229D01*
X98901Y375297D01*
X99073Y375362D01*
X99247Y375421D01*
X99423Y375477D01*
X99600Y375528D01*
X99778Y375575D01*
X99957Y375618D01*
X100137Y375656D01*
X100318Y375690D01*
X100500Y375719D01*
X100682Y375744D01*
X100865Y375764D01*
X101048Y375780D01*
X101232Y375791D01*
X101416Y375798D01*
X101600Y375800D01*
X101784Y375798D01*
X101968Y375791D01*
X102152Y375780D01*
X102335Y375764D01*
X102518Y375744D01*
X102700Y375719D01*
X102882Y375690D01*
X103063Y375656D01*
X103243Y375618D01*
X103422Y375575D01*
X103600Y375528D01*
X103777Y375477D01*
X103953Y375421D01*
X104127Y375362D01*
X104299Y375297D01*
X104470Y375229D01*
X104639Y375157D01*
X104807Y375080D01*
X104972Y374999D01*
X105135Y374914D01*
X105297Y374826D01*
X105456Y374733D01*
X105612Y374636D01*
X105767Y374536D01*
X105919Y374432D01*
X106068Y374324D01*
X106214Y374213D01*
X106358Y374098D01*
X106499Y373979D01*
X106637Y373857D01*
X106772Y373732D01*
X106903Y373603D01*
X107032Y373472D01*
X107157Y373337D01*
X107279Y373199D01*
X107398Y373058D01*
X107513Y372914D01*
X107624Y372768D01*
X107732Y372619D01*
X107836Y372467D01*
X107936Y372312D01*
X108033Y372156D01*
X108126Y371997D01*
X108214Y371835D01*
X108299Y371672D01*
X108380Y371507D01*
X108457Y371339D01*
X108529Y371170D01*
X108597Y370999D01*
X108662Y370827D01*
X108721Y370653D01*
X108777Y370477D01*
X108828Y370300D01*
X108875Y370122D01*
X108918Y369943D01*
X108956Y369763D01*
X108990Y369582D01*
X109019Y369400D01*
X109044Y369218D01*
X109064Y369035D01*
X109080Y368852D01*
X109091Y368668D01*
X109098Y368484D01*
X109100Y368300D01*
X109098Y368116D01*
X109091Y367932D01*
X109080Y367748D01*
X109064Y367565D01*
X109044Y367382D01*
X109019Y367200D01*
X108990Y367018D01*
X108956Y366837D01*
X108918Y366657D01*
X108875Y366478D01*
X108828Y366300D01*
X108777Y366123D01*
X108721Y365947D01*
X108662Y365773D01*
X108597Y365601D01*
X108529Y365430D01*
X108457Y365261D01*
X108380Y365093D01*
X108299Y364928D01*
X108214Y364765D01*
X108126Y364603D01*
X108033Y364444D01*
X107936Y364288D01*
X107836Y364133D01*
X107732Y363981D01*
X107624Y363832D01*
X107513Y363686D01*
X107398Y363542D01*
X107279Y363401D01*
X107157Y363263D01*
X107032Y363128D01*
X106903Y362997D01*
X106772Y362868D01*
X106637Y362743D01*
X106499Y362621D01*
X106358Y362502D01*
X106214Y362387D01*
X106068Y362276D01*
X105919Y362168D01*
X105767Y362064D01*
X105612Y361964D01*
X105456Y361867D01*
X105297Y361774D01*
X105135Y361686D01*
X104972Y361601D01*
X104807Y361520D01*
X104639Y361443D01*
X104470Y361371D01*
X104299Y361303D01*
X104127Y361238D01*
X103953Y361179D01*
X103777Y361123D01*
X103600Y361072D01*
X103422Y361025D01*
X103243Y360982D01*
X103063Y360944D01*
X102882Y360910D01*
X102700Y360881D01*
X102518Y360856D01*
X102335Y360836D01*
X102152Y360820D01*
X101968Y360809D01*
X101784Y360802D01*
X101600Y360800D01*
X101416Y360802D01*
X101232Y360809D01*
X101048Y360820D01*
X100865Y360836D01*
X100682Y360856D01*
X100500Y360881D01*
X100318Y360910D01*
X100137Y360944D01*
X99957Y360982D01*
X99778Y361025D01*
X99600Y361072D01*
X99423Y361123D01*
X99247Y361179D01*
X99073Y361238D01*
X98901Y361303D01*
X98730Y361371D01*
X98561Y361443D01*
X98393Y361520D01*
X98228Y361601D01*
X98065Y361686D01*
X97903Y361774D01*
X97744Y361867D01*
X97588Y361964D01*
X97433Y362064D01*
X97281Y362168D01*
X97132Y362276D01*
X96986Y362387D01*
X96842Y362502D01*
X96701Y362621D01*
X96563Y362743D01*
X96428Y362868D01*
X96297Y362997D01*
X96168Y363128D01*
X96043Y363263D01*
X95921Y363401D01*
X95802Y363542D01*
X95687Y363686D01*
X95576Y363832D01*
X95468Y363981D01*
X95364Y364133D01*
X95264Y364288D01*
X95167Y364444D01*
X95074Y364603D01*
X94986Y364765D01*
X94901Y364928D01*
X94820Y365093D01*
X94743Y365261D01*
X94671Y365430D01*
X94603Y365601D01*
X94538Y365773D01*
X94479Y365947D01*
X94423Y366123D01*
X94372Y366300D01*
X94325Y366478D01*
X94282Y366657D01*
X94244Y366837D01*
X94210Y367018D01*
X94181Y367200D01*
X94156Y367382D01*
X94136Y367565D01*
X94120Y367748D01*
X94109Y367932D01*
X94102Y368116D01*
X94100Y368300D01*
X360800Y469900D02*
X360802Y470084D01*
X360809Y470268D01*
X360820Y470452D01*
X360836Y470635D01*
X360856Y470818D01*
X360881Y471000D01*
X360910Y471182D01*
X360944Y471363D01*
X360982Y471543D01*
X361025Y471722D01*
X361072Y471900D01*
X361123Y472077D01*
X361179Y472253D01*
X361238Y472427D01*
X361303Y472599D01*
X361371Y472770D01*
X361443Y472939D01*
X361520Y473107D01*
X361601Y473272D01*
X361686Y473435D01*
X361774Y473597D01*
X361867Y473756D01*
X361964Y473912D01*
X362064Y474067D01*
X362168Y474219D01*
X362276Y474368D01*
X362387Y474514D01*
X362502Y474658D01*
X362621Y474799D01*
X362743Y474937D01*
X362868Y475072D01*
X362997Y475203D01*
X363128Y475332D01*
X363263Y475457D01*
X363401Y475579D01*
X363542Y475698D01*
X363686Y475813D01*
X363832Y475924D01*
X363981Y476032D01*
X364133Y476136D01*
X364288Y476236D01*
X364444Y476333D01*
X364603Y476426D01*
X364765Y476514D01*
X364928Y476599D01*
X365093Y476680D01*
X365261Y476757D01*
X365430Y476829D01*
X365601Y476897D01*
X365773Y476962D01*
X365947Y477021D01*
X366123Y477077D01*
X366300Y477128D01*
X366478Y477175D01*
X366657Y477218D01*
X366837Y477256D01*
X367018Y477290D01*
X367200Y477319D01*
X367382Y477344D01*
X367565Y477364D01*
X367748Y477380D01*
X367932Y477391D01*
X368116Y477398D01*
X368300Y477400D01*
X368484Y477398D01*
X368668Y477391D01*
X368852Y477380D01*
X369035Y477364D01*
X369218Y477344D01*
X369400Y477319D01*
X369582Y477290D01*
X369763Y477256D01*
X369943Y477218D01*
X370122Y477175D01*
X370300Y477128D01*
X370477Y477077D01*
X370653Y477021D01*
X370827Y476962D01*
X370999Y476897D01*
X371170Y476829D01*
X371339Y476757D01*
X371507Y476680D01*
X371672Y476599D01*
X371835Y476514D01*
X371997Y476426D01*
X372156Y476333D01*
X372312Y476236D01*
X372467Y476136D01*
X372619Y476032D01*
X372768Y475924D01*
X372914Y475813D01*
X373058Y475698D01*
X373199Y475579D01*
X373337Y475457D01*
X373472Y475332D01*
X373603Y475203D01*
X373732Y475072D01*
X373857Y474937D01*
X373979Y474799D01*
X374098Y474658D01*
X374213Y474514D01*
X374324Y474368D01*
X374432Y474219D01*
X374536Y474067D01*
X374636Y473912D01*
X374733Y473756D01*
X374826Y473597D01*
X374914Y473435D01*
X374999Y473272D01*
X375080Y473107D01*
X375157Y472939D01*
X375229Y472770D01*
X375297Y472599D01*
X375362Y472427D01*
X375421Y472253D01*
X375477Y472077D01*
X375528Y471900D01*
X375575Y471722D01*
X375618Y471543D01*
X375656Y471363D01*
X375690Y471182D01*
X375719Y471000D01*
X375744Y470818D01*
X375764Y470635D01*
X375780Y470452D01*
X375791Y470268D01*
X375798Y470084D01*
X375800Y469900D01*
X375798Y469716D01*
X375791Y469532D01*
X375780Y469348D01*
X375764Y469165D01*
X375744Y468982D01*
X375719Y468800D01*
X375690Y468618D01*
X375656Y468437D01*
X375618Y468257D01*
X375575Y468078D01*
X375528Y467900D01*
X375477Y467723D01*
X375421Y467547D01*
X375362Y467373D01*
X375297Y467201D01*
X375229Y467030D01*
X375157Y466861D01*
X375080Y466693D01*
X374999Y466528D01*
X374914Y466365D01*
X374826Y466203D01*
X374733Y466044D01*
X374636Y465888D01*
X374536Y465733D01*
X374432Y465581D01*
X374324Y465432D01*
X374213Y465286D01*
X374098Y465142D01*
X373979Y465001D01*
X373857Y464863D01*
X373732Y464728D01*
X373603Y464597D01*
X373472Y464468D01*
X373337Y464343D01*
X373199Y464221D01*
X373058Y464102D01*
X372914Y463987D01*
X372768Y463876D01*
X372619Y463768D01*
X372467Y463664D01*
X372312Y463564D01*
X372156Y463467D01*
X371997Y463374D01*
X371835Y463286D01*
X371672Y463201D01*
X371507Y463120D01*
X371339Y463043D01*
X371170Y462971D01*
X370999Y462903D01*
X370827Y462838D01*
X370653Y462779D01*
X370477Y462723D01*
X370300Y462672D01*
X370122Y462625D01*
X369943Y462582D01*
X369763Y462544D01*
X369582Y462510D01*
X369400Y462481D01*
X369218Y462456D01*
X369035Y462436D01*
X368852Y462420D01*
X368668Y462409D01*
X368484Y462402D01*
X368300Y462400D01*
X368116Y462402D01*
X367932Y462409D01*
X367748Y462420D01*
X367565Y462436D01*
X367382Y462456D01*
X367200Y462481D01*
X367018Y462510D01*
X366837Y462544D01*
X366657Y462582D01*
X366478Y462625D01*
X366300Y462672D01*
X366123Y462723D01*
X365947Y462779D01*
X365773Y462838D01*
X365601Y462903D01*
X365430Y462971D01*
X365261Y463043D01*
X365093Y463120D01*
X364928Y463201D01*
X364765Y463286D01*
X364603Y463374D01*
X364444Y463467D01*
X364288Y463564D01*
X364133Y463664D01*
X363981Y463768D01*
X363832Y463876D01*
X363686Y463987D01*
X363542Y464102D01*
X363401Y464221D01*
X363263Y464343D01*
X363128Y464468D01*
X362997Y464597D01*
X362868Y464728D01*
X362743Y464863D01*
X362621Y465001D01*
X362502Y465142D01*
X362387Y465286D01*
X362276Y465432D01*
X362168Y465581D01*
X362064Y465733D01*
X361964Y465888D01*
X361867Y466044D01*
X361774Y466203D01*
X361686Y466365D01*
X361601Y466528D01*
X361520Y466693D01*
X361443Y466861D01*
X361371Y467030D01*
X361303Y467201D01*
X361238Y467373D01*
X361179Y467547D01*
X361123Y467723D01*
X361072Y467900D01*
X361025Y468078D01*
X360982Y468257D01*
X360944Y468437D01*
X360910Y468618D01*
X360881Y468800D01*
X360856Y468982D01*
X360836Y469165D01*
X360820Y469348D01*
X360809Y469532D01*
X360802Y469716D01*
X360800Y469900D01*
X259200Y368300D02*
X259202Y368484D01*
X259209Y368668D01*
X259220Y368852D01*
X259236Y369035D01*
X259256Y369218D01*
X259281Y369400D01*
X259310Y369582D01*
X259344Y369763D01*
X259382Y369943D01*
X259425Y370122D01*
X259472Y370300D01*
X259523Y370477D01*
X259579Y370653D01*
X259638Y370827D01*
X259703Y370999D01*
X259771Y371170D01*
X259843Y371339D01*
X259920Y371507D01*
X260001Y371672D01*
X260086Y371835D01*
X260174Y371997D01*
X260267Y372156D01*
X260364Y372312D01*
X260464Y372467D01*
X260568Y372619D01*
X260676Y372768D01*
X260787Y372914D01*
X260902Y373058D01*
X261021Y373199D01*
X261143Y373337D01*
X261268Y373472D01*
X261397Y373603D01*
X261528Y373732D01*
X261663Y373857D01*
X261801Y373979D01*
X261942Y374098D01*
X262086Y374213D01*
X262232Y374324D01*
X262381Y374432D01*
X262533Y374536D01*
X262688Y374636D01*
X262844Y374733D01*
X263003Y374826D01*
X263165Y374914D01*
X263328Y374999D01*
X263493Y375080D01*
X263661Y375157D01*
X263830Y375229D01*
X264001Y375297D01*
X264173Y375362D01*
X264347Y375421D01*
X264523Y375477D01*
X264700Y375528D01*
X264878Y375575D01*
X265057Y375618D01*
X265237Y375656D01*
X265418Y375690D01*
X265600Y375719D01*
X265782Y375744D01*
X265965Y375764D01*
X266148Y375780D01*
X266332Y375791D01*
X266516Y375798D01*
X266700Y375800D01*
X266884Y375798D01*
X267068Y375791D01*
X267252Y375780D01*
X267435Y375764D01*
X267618Y375744D01*
X267800Y375719D01*
X267982Y375690D01*
X268163Y375656D01*
X268343Y375618D01*
X268522Y375575D01*
X268700Y375528D01*
X268877Y375477D01*
X269053Y375421D01*
X269227Y375362D01*
X269399Y375297D01*
X269570Y375229D01*
X269739Y375157D01*
X269907Y375080D01*
X270072Y374999D01*
X270235Y374914D01*
X270397Y374826D01*
X270556Y374733D01*
X270712Y374636D01*
X270867Y374536D01*
X271019Y374432D01*
X271168Y374324D01*
X271314Y374213D01*
X271458Y374098D01*
X271599Y373979D01*
X271737Y373857D01*
X271872Y373732D01*
X272003Y373603D01*
X272132Y373472D01*
X272257Y373337D01*
X272379Y373199D01*
X272498Y373058D01*
X272613Y372914D01*
X272724Y372768D01*
X272832Y372619D01*
X272936Y372467D01*
X273036Y372312D01*
X273133Y372156D01*
X273226Y371997D01*
X273314Y371835D01*
X273399Y371672D01*
X273480Y371507D01*
X273557Y371339D01*
X273629Y371170D01*
X273697Y370999D01*
X273762Y370827D01*
X273821Y370653D01*
X273877Y370477D01*
X273928Y370300D01*
X273975Y370122D01*
X274018Y369943D01*
X274056Y369763D01*
X274090Y369582D01*
X274119Y369400D01*
X274144Y369218D01*
X274164Y369035D01*
X274180Y368852D01*
X274191Y368668D01*
X274198Y368484D01*
X274200Y368300D01*
X274198Y368116D01*
X274191Y367932D01*
X274180Y367748D01*
X274164Y367565D01*
X274144Y367382D01*
X274119Y367200D01*
X274090Y367018D01*
X274056Y366837D01*
X274018Y366657D01*
X273975Y366478D01*
X273928Y366300D01*
X273877Y366123D01*
X273821Y365947D01*
X273762Y365773D01*
X273697Y365601D01*
X273629Y365430D01*
X273557Y365261D01*
X273480Y365093D01*
X273399Y364928D01*
X273314Y364765D01*
X273226Y364603D01*
X273133Y364444D01*
X273036Y364288D01*
X272936Y364133D01*
X272832Y363981D01*
X272724Y363832D01*
X272613Y363686D01*
X272498Y363542D01*
X272379Y363401D01*
X272257Y363263D01*
X272132Y363128D01*
X272003Y362997D01*
X271872Y362868D01*
X271737Y362743D01*
X271599Y362621D01*
X271458Y362502D01*
X271314Y362387D01*
X271168Y362276D01*
X271019Y362168D01*
X270867Y362064D01*
X270712Y361964D01*
X270556Y361867D01*
X270397Y361774D01*
X270235Y361686D01*
X270072Y361601D01*
X269907Y361520D01*
X269739Y361443D01*
X269570Y361371D01*
X269399Y361303D01*
X269227Y361238D01*
X269053Y361179D01*
X268877Y361123D01*
X268700Y361072D01*
X268522Y361025D01*
X268343Y360982D01*
X268163Y360944D01*
X267982Y360910D01*
X267800Y360881D01*
X267618Y360856D01*
X267435Y360836D01*
X267252Y360820D01*
X267068Y360809D01*
X266884Y360802D01*
X266700Y360800D01*
X266516Y360802D01*
X266332Y360809D01*
X266148Y360820D01*
X265965Y360836D01*
X265782Y360856D01*
X265600Y360881D01*
X265418Y360910D01*
X265237Y360944D01*
X265057Y360982D01*
X264878Y361025D01*
X264700Y361072D01*
X264523Y361123D01*
X264347Y361179D01*
X264173Y361238D01*
X264001Y361303D01*
X263830Y361371D01*
X263661Y361443D01*
X263493Y361520D01*
X263328Y361601D01*
X263165Y361686D01*
X263003Y361774D01*
X262844Y361867D01*
X262688Y361964D01*
X262533Y362064D01*
X262381Y362168D01*
X262232Y362276D01*
X262086Y362387D01*
X261942Y362502D01*
X261801Y362621D01*
X261663Y362743D01*
X261528Y362868D01*
X261397Y362997D01*
X261268Y363128D01*
X261143Y363263D01*
X261021Y363401D01*
X260902Y363542D01*
X260787Y363686D01*
X260676Y363832D01*
X260568Y363981D01*
X260464Y364133D01*
X260364Y364288D01*
X260267Y364444D01*
X260174Y364603D01*
X260086Y364765D01*
X260001Y364928D01*
X259920Y365093D01*
X259843Y365261D01*
X259771Y365430D01*
X259703Y365601D01*
X259638Y365773D01*
X259579Y365947D01*
X259523Y366123D01*
X259472Y366300D01*
X259425Y366478D01*
X259382Y366657D01*
X259344Y366837D01*
X259310Y367018D01*
X259281Y367200D01*
X259256Y367382D01*
X259236Y367565D01*
X259220Y367748D01*
X259209Y367932D01*
X259202Y368116D01*
X259200Y368300D01*
X525900Y469900D02*
X525902Y470084D01*
X525909Y470268D01*
X525920Y470452D01*
X525936Y470635D01*
X525956Y470818D01*
X525981Y471000D01*
X526010Y471182D01*
X526044Y471363D01*
X526082Y471543D01*
X526125Y471722D01*
X526172Y471900D01*
X526223Y472077D01*
X526279Y472253D01*
X526338Y472427D01*
X526403Y472599D01*
X526471Y472770D01*
X526543Y472939D01*
X526620Y473107D01*
X526701Y473272D01*
X526786Y473435D01*
X526874Y473597D01*
X526967Y473756D01*
X527064Y473912D01*
X527164Y474067D01*
X527268Y474219D01*
X527376Y474368D01*
X527487Y474514D01*
X527602Y474658D01*
X527721Y474799D01*
X527843Y474937D01*
X527968Y475072D01*
X528097Y475203D01*
X528228Y475332D01*
X528363Y475457D01*
X528501Y475579D01*
X528642Y475698D01*
X528786Y475813D01*
X528932Y475924D01*
X529081Y476032D01*
X529233Y476136D01*
X529388Y476236D01*
X529544Y476333D01*
X529703Y476426D01*
X529865Y476514D01*
X530028Y476599D01*
X530193Y476680D01*
X530361Y476757D01*
X530530Y476829D01*
X530701Y476897D01*
X530873Y476962D01*
X531047Y477021D01*
X531223Y477077D01*
X531400Y477128D01*
X531578Y477175D01*
X531757Y477218D01*
X531937Y477256D01*
X532118Y477290D01*
X532300Y477319D01*
X532482Y477344D01*
X532665Y477364D01*
X532848Y477380D01*
X533032Y477391D01*
X533216Y477398D01*
X533400Y477400D01*
X533584Y477398D01*
X533768Y477391D01*
X533952Y477380D01*
X534135Y477364D01*
X534318Y477344D01*
X534500Y477319D01*
X534682Y477290D01*
X534863Y477256D01*
X535043Y477218D01*
X535222Y477175D01*
X535400Y477128D01*
X535577Y477077D01*
X535753Y477021D01*
X535927Y476962D01*
X536099Y476897D01*
X536270Y476829D01*
X536439Y476757D01*
X536607Y476680D01*
X536772Y476599D01*
X536935Y476514D01*
X537097Y476426D01*
X537256Y476333D01*
X537412Y476236D01*
X537567Y476136D01*
X537719Y476032D01*
X537868Y475924D01*
X538014Y475813D01*
X538158Y475698D01*
X538299Y475579D01*
X538437Y475457D01*
X538572Y475332D01*
X538703Y475203D01*
X538832Y475072D01*
X538957Y474937D01*
X539079Y474799D01*
X539198Y474658D01*
X539313Y474514D01*
X539424Y474368D01*
X539532Y474219D01*
X539636Y474067D01*
X539736Y473912D01*
X539833Y473756D01*
X539926Y473597D01*
X540014Y473435D01*
X540099Y473272D01*
X540180Y473107D01*
X540257Y472939D01*
X540329Y472770D01*
X540397Y472599D01*
X540462Y472427D01*
X540521Y472253D01*
X540577Y472077D01*
X540628Y471900D01*
X540675Y471722D01*
X540718Y471543D01*
X540756Y471363D01*
X540790Y471182D01*
X540819Y471000D01*
X540844Y470818D01*
X540864Y470635D01*
X540880Y470452D01*
X540891Y470268D01*
X540898Y470084D01*
X540900Y469900D01*
X540898Y469716D01*
X540891Y469532D01*
X540880Y469348D01*
X540864Y469165D01*
X540844Y468982D01*
X540819Y468800D01*
X540790Y468618D01*
X540756Y468437D01*
X540718Y468257D01*
X540675Y468078D01*
X540628Y467900D01*
X540577Y467723D01*
X540521Y467547D01*
X540462Y467373D01*
X540397Y467201D01*
X540329Y467030D01*
X540257Y466861D01*
X540180Y466693D01*
X540099Y466528D01*
X540014Y466365D01*
X539926Y466203D01*
X539833Y466044D01*
X539736Y465888D01*
X539636Y465733D01*
X539532Y465581D01*
X539424Y465432D01*
X539313Y465286D01*
X539198Y465142D01*
X539079Y465001D01*
X538957Y464863D01*
X538832Y464728D01*
X538703Y464597D01*
X538572Y464468D01*
X538437Y464343D01*
X538299Y464221D01*
X538158Y464102D01*
X538014Y463987D01*
X537868Y463876D01*
X537719Y463768D01*
X537567Y463664D01*
X537412Y463564D01*
X537256Y463467D01*
X537097Y463374D01*
X536935Y463286D01*
X536772Y463201D01*
X536607Y463120D01*
X536439Y463043D01*
X536270Y462971D01*
X536099Y462903D01*
X535927Y462838D01*
X535753Y462779D01*
X535577Y462723D01*
X535400Y462672D01*
X535222Y462625D01*
X535043Y462582D01*
X534863Y462544D01*
X534682Y462510D01*
X534500Y462481D01*
X534318Y462456D01*
X534135Y462436D01*
X533952Y462420D01*
X533768Y462409D01*
X533584Y462402D01*
X533400Y462400D01*
X533216Y462402D01*
X533032Y462409D01*
X532848Y462420D01*
X532665Y462436D01*
X532482Y462456D01*
X532300Y462481D01*
X532118Y462510D01*
X531937Y462544D01*
X531757Y462582D01*
X531578Y462625D01*
X531400Y462672D01*
X531223Y462723D01*
X531047Y462779D01*
X530873Y462838D01*
X530701Y462903D01*
X530530Y462971D01*
X530361Y463043D01*
X530193Y463120D01*
X530028Y463201D01*
X529865Y463286D01*
X529703Y463374D01*
X529544Y463467D01*
X529388Y463564D01*
X529233Y463664D01*
X529081Y463768D01*
X528932Y463876D01*
X528786Y463987D01*
X528642Y464102D01*
X528501Y464221D01*
X528363Y464343D01*
X528228Y464468D01*
X528097Y464597D01*
X527968Y464728D01*
X527843Y464863D01*
X527721Y465001D01*
X527602Y465142D01*
X527487Y465286D01*
X527376Y465432D01*
X527268Y465581D01*
X527164Y465733D01*
X527064Y465888D01*
X526967Y466044D01*
X526874Y466203D01*
X526786Y466365D01*
X526701Y466528D01*
X526620Y466693D01*
X526543Y466861D01*
X526471Y467030D01*
X526403Y467201D01*
X526338Y467373D01*
X526279Y467547D01*
X526223Y467723D01*
X526172Y467900D01*
X526125Y468078D01*
X526082Y468257D01*
X526044Y468437D01*
X526010Y468618D01*
X525981Y468800D01*
X525956Y468982D01*
X525936Y469165D01*
X525920Y469348D01*
X525909Y469532D01*
X525902Y469716D01*
X525900Y469900D01*
X424300Y368300D02*
X424302Y368484D01*
X424309Y368668D01*
X424320Y368852D01*
X424336Y369035D01*
X424356Y369218D01*
X424381Y369400D01*
X424410Y369582D01*
X424444Y369763D01*
X424482Y369943D01*
X424525Y370122D01*
X424572Y370300D01*
X424623Y370477D01*
X424679Y370653D01*
X424738Y370827D01*
X424803Y370999D01*
X424871Y371170D01*
X424943Y371339D01*
X425020Y371507D01*
X425101Y371672D01*
X425186Y371835D01*
X425274Y371997D01*
X425367Y372156D01*
X425464Y372312D01*
X425564Y372467D01*
X425668Y372619D01*
X425776Y372768D01*
X425887Y372914D01*
X426002Y373058D01*
X426121Y373199D01*
X426243Y373337D01*
X426368Y373472D01*
X426497Y373603D01*
X426628Y373732D01*
X426763Y373857D01*
X426901Y373979D01*
X427042Y374098D01*
X427186Y374213D01*
X427332Y374324D01*
X427481Y374432D01*
X427633Y374536D01*
X427788Y374636D01*
X427944Y374733D01*
X428103Y374826D01*
X428265Y374914D01*
X428428Y374999D01*
X428593Y375080D01*
X428761Y375157D01*
X428930Y375229D01*
X429101Y375297D01*
X429273Y375362D01*
X429447Y375421D01*
X429623Y375477D01*
X429800Y375528D01*
X429978Y375575D01*
X430157Y375618D01*
X430337Y375656D01*
X430518Y375690D01*
X430700Y375719D01*
X430882Y375744D01*
X431065Y375764D01*
X431248Y375780D01*
X431432Y375791D01*
X431616Y375798D01*
X431800Y375800D01*
X431984Y375798D01*
X432168Y375791D01*
X432352Y375780D01*
X432535Y375764D01*
X432718Y375744D01*
X432900Y375719D01*
X433082Y375690D01*
X433263Y375656D01*
X433443Y375618D01*
X433622Y375575D01*
X433800Y375528D01*
X433977Y375477D01*
X434153Y375421D01*
X434327Y375362D01*
X434499Y375297D01*
X434670Y375229D01*
X434839Y375157D01*
X435007Y375080D01*
X435172Y374999D01*
X435335Y374914D01*
X435497Y374826D01*
X435656Y374733D01*
X435812Y374636D01*
X435967Y374536D01*
X436119Y374432D01*
X436268Y374324D01*
X436414Y374213D01*
X436558Y374098D01*
X436699Y373979D01*
X436837Y373857D01*
X436972Y373732D01*
X437103Y373603D01*
X437232Y373472D01*
X437357Y373337D01*
X437479Y373199D01*
X437598Y373058D01*
X437713Y372914D01*
X437824Y372768D01*
X437932Y372619D01*
X438036Y372467D01*
X438136Y372312D01*
X438233Y372156D01*
X438326Y371997D01*
X438414Y371835D01*
X438499Y371672D01*
X438580Y371507D01*
X438657Y371339D01*
X438729Y371170D01*
X438797Y370999D01*
X438862Y370827D01*
X438921Y370653D01*
X438977Y370477D01*
X439028Y370300D01*
X439075Y370122D01*
X439118Y369943D01*
X439156Y369763D01*
X439190Y369582D01*
X439219Y369400D01*
X439244Y369218D01*
X439264Y369035D01*
X439280Y368852D01*
X439291Y368668D01*
X439298Y368484D01*
X439300Y368300D01*
X439298Y368116D01*
X439291Y367932D01*
X439280Y367748D01*
X439264Y367565D01*
X439244Y367382D01*
X439219Y367200D01*
X439190Y367018D01*
X439156Y366837D01*
X439118Y366657D01*
X439075Y366478D01*
X439028Y366300D01*
X438977Y366123D01*
X438921Y365947D01*
X438862Y365773D01*
X438797Y365601D01*
X438729Y365430D01*
X438657Y365261D01*
X438580Y365093D01*
X438499Y364928D01*
X438414Y364765D01*
X438326Y364603D01*
X438233Y364444D01*
X438136Y364288D01*
X438036Y364133D01*
X437932Y363981D01*
X437824Y363832D01*
X437713Y363686D01*
X437598Y363542D01*
X437479Y363401D01*
X437357Y363263D01*
X437232Y363128D01*
X437103Y362997D01*
X436972Y362868D01*
X436837Y362743D01*
X436699Y362621D01*
X436558Y362502D01*
X436414Y362387D01*
X436268Y362276D01*
X436119Y362168D01*
X435967Y362064D01*
X435812Y361964D01*
X435656Y361867D01*
X435497Y361774D01*
X435335Y361686D01*
X435172Y361601D01*
X435007Y361520D01*
X434839Y361443D01*
X434670Y361371D01*
X434499Y361303D01*
X434327Y361238D01*
X434153Y361179D01*
X433977Y361123D01*
X433800Y361072D01*
X433622Y361025D01*
X433443Y360982D01*
X433263Y360944D01*
X433082Y360910D01*
X432900Y360881D01*
X432718Y360856D01*
X432535Y360836D01*
X432352Y360820D01*
X432168Y360809D01*
X431984Y360802D01*
X431800Y360800D01*
X431616Y360802D01*
X431432Y360809D01*
X431248Y360820D01*
X431065Y360836D01*
X430882Y360856D01*
X430700Y360881D01*
X430518Y360910D01*
X430337Y360944D01*
X430157Y360982D01*
X429978Y361025D01*
X429800Y361072D01*
X429623Y361123D01*
X429447Y361179D01*
X429273Y361238D01*
X429101Y361303D01*
X428930Y361371D01*
X428761Y361443D01*
X428593Y361520D01*
X428428Y361601D01*
X428265Y361686D01*
X428103Y361774D01*
X427944Y361867D01*
X427788Y361964D01*
X427633Y362064D01*
X427481Y362168D01*
X427332Y362276D01*
X427186Y362387D01*
X427042Y362502D01*
X426901Y362621D01*
X426763Y362743D01*
X426628Y362868D01*
X426497Y362997D01*
X426368Y363128D01*
X426243Y363263D01*
X426121Y363401D01*
X426002Y363542D01*
X425887Y363686D01*
X425776Y363832D01*
X425668Y363981D01*
X425564Y364133D01*
X425464Y364288D01*
X425367Y364444D01*
X425274Y364603D01*
X425186Y364765D01*
X425101Y364928D01*
X425020Y365093D01*
X424943Y365261D01*
X424871Y365430D01*
X424803Y365601D01*
X424738Y365773D01*
X424679Y365947D01*
X424623Y366123D01*
X424572Y366300D01*
X424525Y366478D01*
X424482Y366657D01*
X424444Y366837D01*
X424410Y367018D01*
X424381Y367200D01*
X424356Y367382D01*
X424336Y367565D01*
X424320Y367748D01*
X424309Y367932D01*
X424302Y368116D01*
X424300Y368300D01*
X691000Y469900D02*
X691002Y470084D01*
X691009Y470268D01*
X691020Y470452D01*
X691036Y470635D01*
X691056Y470818D01*
X691081Y471000D01*
X691110Y471182D01*
X691144Y471363D01*
X691182Y471543D01*
X691225Y471722D01*
X691272Y471900D01*
X691323Y472077D01*
X691379Y472253D01*
X691438Y472427D01*
X691503Y472599D01*
X691571Y472770D01*
X691643Y472939D01*
X691720Y473107D01*
X691801Y473272D01*
X691886Y473435D01*
X691974Y473597D01*
X692067Y473756D01*
X692164Y473912D01*
X692264Y474067D01*
X692368Y474219D01*
X692476Y474368D01*
X692587Y474514D01*
X692702Y474658D01*
X692821Y474799D01*
X692943Y474937D01*
X693068Y475072D01*
X693197Y475203D01*
X693328Y475332D01*
X693463Y475457D01*
X693601Y475579D01*
X693742Y475698D01*
X693886Y475813D01*
X694032Y475924D01*
X694181Y476032D01*
X694333Y476136D01*
X694488Y476236D01*
X694644Y476333D01*
X694803Y476426D01*
X694965Y476514D01*
X695128Y476599D01*
X695293Y476680D01*
X695461Y476757D01*
X695630Y476829D01*
X695801Y476897D01*
X695973Y476962D01*
X696147Y477021D01*
X696323Y477077D01*
X696500Y477128D01*
X696678Y477175D01*
X696857Y477218D01*
X697037Y477256D01*
X697218Y477290D01*
X697400Y477319D01*
X697582Y477344D01*
X697765Y477364D01*
X697948Y477380D01*
X698132Y477391D01*
X698316Y477398D01*
X698500Y477400D01*
X698684Y477398D01*
X698868Y477391D01*
X699052Y477380D01*
X699235Y477364D01*
X699418Y477344D01*
X699600Y477319D01*
X699782Y477290D01*
X699963Y477256D01*
X700143Y477218D01*
X700322Y477175D01*
X700500Y477128D01*
X700677Y477077D01*
X700853Y477021D01*
X701027Y476962D01*
X701199Y476897D01*
X701370Y476829D01*
X701539Y476757D01*
X701707Y476680D01*
X701872Y476599D01*
X702035Y476514D01*
X702197Y476426D01*
X702356Y476333D01*
X702512Y476236D01*
X702667Y476136D01*
X702819Y476032D01*
X702968Y475924D01*
X703114Y475813D01*
X703258Y475698D01*
X703399Y475579D01*
X703537Y475457D01*
X703672Y475332D01*
X703803Y475203D01*
X703932Y475072D01*
X704057Y474937D01*
X704179Y474799D01*
X704298Y474658D01*
X704413Y474514D01*
X704524Y474368D01*
X704632Y474219D01*
X704736Y474067D01*
X704836Y473912D01*
X704933Y473756D01*
X705026Y473597D01*
X705114Y473435D01*
X705199Y473272D01*
X705280Y473107D01*
X705357Y472939D01*
X705429Y472770D01*
X705497Y472599D01*
X705562Y472427D01*
X705621Y472253D01*
X705677Y472077D01*
X705728Y471900D01*
X705775Y471722D01*
X705818Y471543D01*
X705856Y471363D01*
X705890Y471182D01*
X705919Y471000D01*
X705944Y470818D01*
X705964Y470635D01*
X705980Y470452D01*
X705991Y470268D01*
X705998Y470084D01*
X706000Y469900D01*
X705998Y469716D01*
X705991Y469532D01*
X705980Y469348D01*
X705964Y469165D01*
X705944Y468982D01*
X705919Y468800D01*
X705890Y468618D01*
X705856Y468437D01*
X705818Y468257D01*
X705775Y468078D01*
X705728Y467900D01*
X705677Y467723D01*
X705621Y467547D01*
X705562Y467373D01*
X705497Y467201D01*
X705429Y467030D01*
X705357Y466861D01*
X705280Y466693D01*
X705199Y466528D01*
X705114Y466365D01*
X705026Y466203D01*
X704933Y466044D01*
X704836Y465888D01*
X704736Y465733D01*
X704632Y465581D01*
X704524Y465432D01*
X704413Y465286D01*
X704298Y465142D01*
X704179Y465001D01*
X704057Y464863D01*
X703932Y464728D01*
X703803Y464597D01*
X703672Y464468D01*
X703537Y464343D01*
X703399Y464221D01*
X703258Y464102D01*
X703114Y463987D01*
X702968Y463876D01*
X702819Y463768D01*
X702667Y463664D01*
X702512Y463564D01*
X702356Y463467D01*
X702197Y463374D01*
X702035Y463286D01*
X701872Y463201D01*
X701707Y463120D01*
X701539Y463043D01*
X701370Y462971D01*
X701199Y462903D01*
X701027Y462838D01*
X700853Y462779D01*
X700677Y462723D01*
X700500Y462672D01*
X700322Y462625D01*
X700143Y462582D01*
X699963Y462544D01*
X699782Y462510D01*
X699600Y462481D01*
X699418Y462456D01*
X699235Y462436D01*
X699052Y462420D01*
X698868Y462409D01*
X698684Y462402D01*
X698500Y462400D01*
X698316Y462402D01*
X698132Y462409D01*
X697948Y462420D01*
X697765Y462436D01*
X697582Y462456D01*
X697400Y462481D01*
X697218Y462510D01*
X697037Y462544D01*
X696857Y462582D01*
X696678Y462625D01*
X696500Y462672D01*
X696323Y462723D01*
X696147Y462779D01*
X695973Y462838D01*
X695801Y462903D01*
X695630Y462971D01*
X695461Y463043D01*
X695293Y463120D01*
X695128Y463201D01*
X694965Y463286D01*
X694803Y463374D01*
X694644Y463467D01*
X694488Y463564D01*
X694333Y463664D01*
X694181Y463768D01*
X694032Y463876D01*
X693886Y463987D01*
X693742Y464102D01*
X693601Y464221D01*
X693463Y464343D01*
X693328Y464468D01*
X693197Y464597D01*
X693068Y464728D01*
X692943Y464863D01*
X692821Y465001D01*
X692702Y465142D01*
X692587Y465286D01*
X692476Y465432D01*
X692368Y465581D01*
X692264Y465733D01*
X692164Y465888D01*
X692067Y466044D01*
X691974Y466203D01*
X691886Y466365D01*
X691801Y466528D01*
X691720Y466693D01*
X691643Y466861D01*
X691571Y467030D01*
X691503Y467201D01*
X691438Y467373D01*
X691379Y467547D01*
X691323Y467723D01*
X691272Y467900D01*
X691225Y468078D01*
X691182Y468257D01*
X691144Y468437D01*
X691110Y468618D01*
X691081Y468800D01*
X691056Y468982D01*
X691036Y469165D01*
X691020Y469348D01*
X691009Y469532D01*
X691002Y469716D01*
X691000Y469900D01*
X589400Y368300D02*
X589402Y368484D01*
X589409Y368668D01*
X589420Y368852D01*
X589436Y369035D01*
X589456Y369218D01*
X589481Y369400D01*
X589510Y369582D01*
X589544Y369763D01*
X589582Y369943D01*
X589625Y370122D01*
X589672Y370300D01*
X589723Y370477D01*
X589779Y370653D01*
X589838Y370827D01*
X589903Y370999D01*
X589971Y371170D01*
X590043Y371339D01*
X590120Y371507D01*
X590201Y371672D01*
X590286Y371835D01*
X590374Y371997D01*
X590467Y372156D01*
X590564Y372312D01*
X590664Y372467D01*
X590768Y372619D01*
X590876Y372768D01*
X590987Y372914D01*
X591102Y373058D01*
X591221Y373199D01*
X591343Y373337D01*
X591468Y373472D01*
X591597Y373603D01*
X591728Y373732D01*
X591863Y373857D01*
X592001Y373979D01*
X592142Y374098D01*
X592286Y374213D01*
X592432Y374324D01*
X592581Y374432D01*
X592733Y374536D01*
X592888Y374636D01*
X593044Y374733D01*
X593203Y374826D01*
X593365Y374914D01*
X593528Y374999D01*
X593693Y375080D01*
X593861Y375157D01*
X594030Y375229D01*
X594201Y375297D01*
X594373Y375362D01*
X594547Y375421D01*
X594723Y375477D01*
X594900Y375528D01*
X595078Y375575D01*
X595257Y375618D01*
X595437Y375656D01*
X595618Y375690D01*
X595800Y375719D01*
X595982Y375744D01*
X596165Y375764D01*
X596348Y375780D01*
X596532Y375791D01*
X596716Y375798D01*
X596900Y375800D01*
X597084Y375798D01*
X597268Y375791D01*
X597452Y375780D01*
X597635Y375764D01*
X597818Y375744D01*
X598000Y375719D01*
X598182Y375690D01*
X598363Y375656D01*
X598543Y375618D01*
X598722Y375575D01*
X598900Y375528D01*
X599077Y375477D01*
X599253Y375421D01*
X599427Y375362D01*
X599599Y375297D01*
X599770Y375229D01*
X599939Y375157D01*
X600107Y375080D01*
X600272Y374999D01*
X600435Y374914D01*
X600597Y374826D01*
X600756Y374733D01*
X600912Y374636D01*
X601067Y374536D01*
X601219Y374432D01*
X601368Y374324D01*
X601514Y374213D01*
X601658Y374098D01*
X601799Y373979D01*
X601937Y373857D01*
X602072Y373732D01*
X602203Y373603D01*
X602332Y373472D01*
X602457Y373337D01*
X602579Y373199D01*
X602698Y373058D01*
X602813Y372914D01*
X602924Y372768D01*
X603032Y372619D01*
X603136Y372467D01*
X603236Y372312D01*
X603333Y372156D01*
X603426Y371997D01*
X603514Y371835D01*
X603599Y371672D01*
X603680Y371507D01*
X603757Y371339D01*
X603829Y371170D01*
X603897Y370999D01*
X603962Y370827D01*
X604021Y370653D01*
X604077Y370477D01*
X604128Y370300D01*
X604175Y370122D01*
X604218Y369943D01*
X604256Y369763D01*
X604290Y369582D01*
X604319Y369400D01*
X604344Y369218D01*
X604364Y369035D01*
X604380Y368852D01*
X604391Y368668D01*
X604398Y368484D01*
X604400Y368300D01*
X604398Y368116D01*
X604391Y367932D01*
X604380Y367748D01*
X604364Y367565D01*
X604344Y367382D01*
X604319Y367200D01*
X604290Y367018D01*
X604256Y366837D01*
X604218Y366657D01*
X604175Y366478D01*
X604128Y366300D01*
X604077Y366123D01*
X604021Y365947D01*
X603962Y365773D01*
X603897Y365601D01*
X603829Y365430D01*
X603757Y365261D01*
X603680Y365093D01*
X603599Y364928D01*
X603514Y364765D01*
X603426Y364603D01*
X603333Y364444D01*
X603236Y364288D01*
X603136Y364133D01*
X603032Y363981D01*
X602924Y363832D01*
X602813Y363686D01*
X602698Y363542D01*
X602579Y363401D01*
X602457Y363263D01*
X602332Y363128D01*
X602203Y362997D01*
X602072Y362868D01*
X601937Y362743D01*
X601799Y362621D01*
X601658Y362502D01*
X601514Y362387D01*
X601368Y362276D01*
X601219Y362168D01*
X601067Y362064D01*
X600912Y361964D01*
X600756Y361867D01*
X600597Y361774D01*
X600435Y361686D01*
X600272Y361601D01*
X600107Y361520D01*
X599939Y361443D01*
X599770Y361371D01*
X599599Y361303D01*
X599427Y361238D01*
X599253Y361179D01*
X599077Y361123D01*
X598900Y361072D01*
X598722Y361025D01*
X598543Y360982D01*
X598363Y360944D01*
X598182Y360910D01*
X598000Y360881D01*
X597818Y360856D01*
X597635Y360836D01*
X597452Y360820D01*
X597268Y360809D01*
X597084Y360802D01*
X596900Y360800D01*
X596716Y360802D01*
X596532Y360809D01*
X596348Y360820D01*
X596165Y360836D01*
X595982Y360856D01*
X595800Y360881D01*
X595618Y360910D01*
X595437Y360944D01*
X595257Y360982D01*
X595078Y361025D01*
X594900Y361072D01*
X594723Y361123D01*
X594547Y361179D01*
X594373Y361238D01*
X594201Y361303D01*
X594030Y361371D01*
X593861Y361443D01*
X593693Y361520D01*
X593528Y361601D01*
X593365Y361686D01*
X593203Y361774D01*
X593044Y361867D01*
X592888Y361964D01*
X592733Y362064D01*
X592581Y362168D01*
X592432Y362276D01*
X592286Y362387D01*
X592142Y362502D01*
X592001Y362621D01*
X591863Y362743D01*
X591728Y362868D01*
X591597Y362997D01*
X591468Y363128D01*
X591343Y363263D01*
X591221Y363401D01*
X591102Y363542D01*
X590987Y363686D01*
X590876Y363832D01*
X590768Y363981D01*
X590664Y364133D01*
X590564Y364288D01*
X590467Y364444D01*
X590374Y364603D01*
X590286Y364765D01*
X590201Y364928D01*
X590120Y365093D01*
X590043Y365261D01*
X589971Y365430D01*
X589903Y365601D01*
X589838Y365773D01*
X589779Y365947D01*
X589723Y366123D01*
X589672Y366300D01*
X589625Y366478D01*
X589582Y366657D01*
X589544Y366837D01*
X589510Y367018D01*
X589481Y367200D01*
X589456Y367382D01*
X589436Y367565D01*
X589420Y367748D01*
X589409Y367932D01*
X589402Y368116D01*
X589400Y368300D01*
X195700Y304800D02*
X195702Y304984D01*
X195709Y305168D01*
X195720Y305352D01*
X195736Y305535D01*
X195756Y305718D01*
X195781Y305900D01*
X195810Y306082D01*
X195844Y306263D01*
X195882Y306443D01*
X195925Y306622D01*
X195972Y306800D01*
X196023Y306977D01*
X196079Y307153D01*
X196138Y307327D01*
X196203Y307499D01*
X196271Y307670D01*
X196343Y307839D01*
X196420Y308007D01*
X196501Y308172D01*
X196586Y308335D01*
X196674Y308497D01*
X196767Y308656D01*
X196864Y308812D01*
X196964Y308967D01*
X197068Y309119D01*
X197176Y309268D01*
X197287Y309414D01*
X197402Y309558D01*
X197521Y309699D01*
X197643Y309837D01*
X197768Y309972D01*
X197897Y310103D01*
X198028Y310232D01*
X198163Y310357D01*
X198301Y310479D01*
X198442Y310598D01*
X198586Y310713D01*
X198732Y310824D01*
X198881Y310932D01*
X199033Y311036D01*
X199188Y311136D01*
X199344Y311233D01*
X199503Y311326D01*
X199665Y311414D01*
X199828Y311499D01*
X199993Y311580D01*
X200161Y311657D01*
X200330Y311729D01*
X200501Y311797D01*
X200673Y311862D01*
X200847Y311921D01*
X201023Y311977D01*
X201200Y312028D01*
X201378Y312075D01*
X201557Y312118D01*
X201737Y312156D01*
X201918Y312190D01*
X202100Y312219D01*
X202282Y312244D01*
X202465Y312264D01*
X202648Y312280D01*
X202832Y312291D01*
X203016Y312298D01*
X203200Y312300D01*
X203384Y312298D01*
X203568Y312291D01*
X203752Y312280D01*
X203935Y312264D01*
X204118Y312244D01*
X204300Y312219D01*
X204482Y312190D01*
X204663Y312156D01*
X204843Y312118D01*
X205022Y312075D01*
X205200Y312028D01*
X205377Y311977D01*
X205553Y311921D01*
X205727Y311862D01*
X205899Y311797D01*
X206070Y311729D01*
X206239Y311657D01*
X206407Y311580D01*
X206572Y311499D01*
X206735Y311414D01*
X206897Y311326D01*
X207056Y311233D01*
X207212Y311136D01*
X207367Y311036D01*
X207519Y310932D01*
X207668Y310824D01*
X207814Y310713D01*
X207958Y310598D01*
X208099Y310479D01*
X208237Y310357D01*
X208372Y310232D01*
X208503Y310103D01*
X208632Y309972D01*
X208757Y309837D01*
X208879Y309699D01*
X208998Y309558D01*
X209113Y309414D01*
X209224Y309268D01*
X209332Y309119D01*
X209436Y308967D01*
X209536Y308812D01*
X209633Y308656D01*
X209726Y308497D01*
X209814Y308335D01*
X209899Y308172D01*
X209980Y308007D01*
X210057Y307839D01*
X210129Y307670D01*
X210197Y307499D01*
X210262Y307327D01*
X210321Y307153D01*
X210377Y306977D01*
X210428Y306800D01*
X210475Y306622D01*
X210518Y306443D01*
X210556Y306263D01*
X210590Y306082D01*
X210619Y305900D01*
X210644Y305718D01*
X210664Y305535D01*
X210680Y305352D01*
X210691Y305168D01*
X210698Y304984D01*
X210700Y304800D01*
X210698Y304616D01*
X210691Y304432D01*
X210680Y304248D01*
X210664Y304065D01*
X210644Y303882D01*
X210619Y303700D01*
X210590Y303518D01*
X210556Y303337D01*
X210518Y303157D01*
X210475Y302978D01*
X210428Y302800D01*
X210377Y302623D01*
X210321Y302447D01*
X210262Y302273D01*
X210197Y302101D01*
X210129Y301930D01*
X210057Y301761D01*
X209980Y301593D01*
X209899Y301428D01*
X209814Y301265D01*
X209726Y301103D01*
X209633Y300944D01*
X209536Y300788D01*
X209436Y300633D01*
X209332Y300481D01*
X209224Y300332D01*
X209113Y300186D01*
X208998Y300042D01*
X208879Y299901D01*
X208757Y299763D01*
X208632Y299628D01*
X208503Y299497D01*
X208372Y299368D01*
X208237Y299243D01*
X208099Y299121D01*
X207958Y299002D01*
X207814Y298887D01*
X207668Y298776D01*
X207519Y298668D01*
X207367Y298564D01*
X207212Y298464D01*
X207056Y298367D01*
X206897Y298274D01*
X206735Y298186D01*
X206572Y298101D01*
X206407Y298020D01*
X206239Y297943D01*
X206070Y297871D01*
X205899Y297803D01*
X205727Y297738D01*
X205553Y297679D01*
X205377Y297623D01*
X205200Y297572D01*
X205022Y297525D01*
X204843Y297482D01*
X204663Y297444D01*
X204482Y297410D01*
X204300Y297381D01*
X204118Y297356D01*
X203935Y297336D01*
X203752Y297320D01*
X203568Y297309D01*
X203384Y297302D01*
X203200Y297300D01*
X203016Y297302D01*
X202832Y297309D01*
X202648Y297320D01*
X202465Y297336D01*
X202282Y297356D01*
X202100Y297381D01*
X201918Y297410D01*
X201737Y297444D01*
X201557Y297482D01*
X201378Y297525D01*
X201200Y297572D01*
X201023Y297623D01*
X200847Y297679D01*
X200673Y297738D01*
X200501Y297803D01*
X200330Y297871D01*
X200161Y297943D01*
X199993Y298020D01*
X199828Y298101D01*
X199665Y298186D01*
X199503Y298274D01*
X199344Y298367D01*
X199188Y298464D01*
X199033Y298564D01*
X198881Y298668D01*
X198732Y298776D01*
X198586Y298887D01*
X198442Y299002D01*
X198301Y299121D01*
X198163Y299243D01*
X198028Y299368D01*
X197897Y299497D01*
X197768Y299628D01*
X197643Y299763D01*
X197521Y299901D01*
X197402Y300042D01*
X197287Y300186D01*
X197176Y300332D01*
X197068Y300481D01*
X196964Y300633D01*
X196864Y300788D01*
X196767Y300944D01*
X196674Y301103D01*
X196586Y301265D01*
X196501Y301428D01*
X196420Y301593D01*
X196343Y301761D01*
X196271Y301930D01*
X196203Y302101D01*
X196138Y302273D01*
X196079Y302447D01*
X196023Y302623D01*
X195972Y302800D01*
X195925Y302978D01*
X195882Y303157D01*
X195844Y303337D01*
X195810Y303518D01*
X195781Y303700D01*
X195756Y303882D01*
X195736Y304065D01*
X195720Y304248D01*
X195709Y304432D01*
X195702Y304616D01*
X195700Y304800D01*
X94100Y203200D02*
X94102Y203384D01*
X94109Y203568D01*
X94120Y203752D01*
X94136Y203935D01*
X94156Y204118D01*
X94181Y204300D01*
X94210Y204482D01*
X94244Y204663D01*
X94282Y204843D01*
X94325Y205022D01*
X94372Y205200D01*
X94423Y205377D01*
X94479Y205553D01*
X94538Y205727D01*
X94603Y205899D01*
X94671Y206070D01*
X94743Y206239D01*
X94820Y206407D01*
X94901Y206572D01*
X94986Y206735D01*
X95074Y206897D01*
X95167Y207056D01*
X95264Y207212D01*
X95364Y207367D01*
X95468Y207519D01*
X95576Y207668D01*
X95687Y207814D01*
X95802Y207958D01*
X95921Y208099D01*
X96043Y208237D01*
X96168Y208372D01*
X96297Y208503D01*
X96428Y208632D01*
X96563Y208757D01*
X96701Y208879D01*
X96842Y208998D01*
X96986Y209113D01*
X97132Y209224D01*
X97281Y209332D01*
X97433Y209436D01*
X97588Y209536D01*
X97744Y209633D01*
X97903Y209726D01*
X98065Y209814D01*
X98228Y209899D01*
X98393Y209980D01*
X98561Y210057D01*
X98730Y210129D01*
X98901Y210197D01*
X99073Y210262D01*
X99247Y210321D01*
X99423Y210377D01*
X99600Y210428D01*
X99778Y210475D01*
X99957Y210518D01*
X100137Y210556D01*
X100318Y210590D01*
X100500Y210619D01*
X100682Y210644D01*
X100865Y210664D01*
X101048Y210680D01*
X101232Y210691D01*
X101416Y210698D01*
X101600Y210700D01*
X101784Y210698D01*
X101968Y210691D01*
X102152Y210680D01*
X102335Y210664D01*
X102518Y210644D01*
X102700Y210619D01*
X102882Y210590D01*
X103063Y210556D01*
X103243Y210518D01*
X103422Y210475D01*
X103600Y210428D01*
X103777Y210377D01*
X103953Y210321D01*
X104127Y210262D01*
X104299Y210197D01*
X104470Y210129D01*
X104639Y210057D01*
X104807Y209980D01*
X104972Y209899D01*
X105135Y209814D01*
X105297Y209726D01*
X105456Y209633D01*
X105612Y209536D01*
X105767Y209436D01*
X105919Y209332D01*
X106068Y209224D01*
X106214Y209113D01*
X106358Y208998D01*
X106499Y208879D01*
X106637Y208757D01*
X106772Y208632D01*
X106903Y208503D01*
X107032Y208372D01*
X107157Y208237D01*
X107279Y208099D01*
X107398Y207958D01*
X107513Y207814D01*
X107624Y207668D01*
X107732Y207519D01*
X107836Y207367D01*
X107936Y207212D01*
X108033Y207056D01*
X108126Y206897D01*
X108214Y206735D01*
X108299Y206572D01*
X108380Y206407D01*
X108457Y206239D01*
X108529Y206070D01*
X108597Y205899D01*
X108662Y205727D01*
X108721Y205553D01*
X108777Y205377D01*
X108828Y205200D01*
X108875Y205022D01*
X108918Y204843D01*
X108956Y204663D01*
X108990Y204482D01*
X109019Y204300D01*
X109044Y204118D01*
X109064Y203935D01*
X109080Y203752D01*
X109091Y203568D01*
X109098Y203384D01*
X109100Y203200D01*
X109098Y203016D01*
X109091Y202832D01*
X109080Y202648D01*
X109064Y202465D01*
X109044Y202282D01*
X109019Y202100D01*
X108990Y201918D01*
X108956Y201737D01*
X108918Y201557D01*
X108875Y201378D01*
X108828Y201200D01*
X108777Y201023D01*
X108721Y200847D01*
X108662Y200673D01*
X108597Y200501D01*
X108529Y200330D01*
X108457Y200161D01*
X108380Y199993D01*
X108299Y199828D01*
X108214Y199665D01*
X108126Y199503D01*
X108033Y199344D01*
X107936Y199188D01*
X107836Y199033D01*
X107732Y198881D01*
X107624Y198732D01*
X107513Y198586D01*
X107398Y198442D01*
X107279Y198301D01*
X107157Y198163D01*
X107032Y198028D01*
X106903Y197897D01*
X106772Y197768D01*
X106637Y197643D01*
X106499Y197521D01*
X106358Y197402D01*
X106214Y197287D01*
X106068Y197176D01*
X105919Y197068D01*
X105767Y196964D01*
X105612Y196864D01*
X105456Y196767D01*
X105297Y196674D01*
X105135Y196586D01*
X104972Y196501D01*
X104807Y196420D01*
X104639Y196343D01*
X104470Y196271D01*
X104299Y196203D01*
X104127Y196138D01*
X103953Y196079D01*
X103777Y196023D01*
X103600Y195972D01*
X103422Y195925D01*
X103243Y195882D01*
X103063Y195844D01*
X102882Y195810D01*
X102700Y195781D01*
X102518Y195756D01*
X102335Y195736D01*
X102152Y195720D01*
X101968Y195709D01*
X101784Y195702D01*
X101600Y195700D01*
X101416Y195702D01*
X101232Y195709D01*
X101048Y195720D01*
X100865Y195736D01*
X100682Y195756D01*
X100500Y195781D01*
X100318Y195810D01*
X100137Y195844D01*
X99957Y195882D01*
X99778Y195925D01*
X99600Y195972D01*
X99423Y196023D01*
X99247Y196079D01*
X99073Y196138D01*
X98901Y196203D01*
X98730Y196271D01*
X98561Y196343D01*
X98393Y196420D01*
X98228Y196501D01*
X98065Y196586D01*
X97903Y196674D01*
X97744Y196767D01*
X97588Y196864D01*
X97433Y196964D01*
X97281Y197068D01*
X97132Y197176D01*
X96986Y197287D01*
X96842Y197402D01*
X96701Y197521D01*
X96563Y197643D01*
X96428Y197768D01*
X96297Y197897D01*
X96168Y198028D01*
X96043Y198163D01*
X95921Y198301D01*
X95802Y198442D01*
X95687Y198586D01*
X95576Y198732D01*
X95468Y198881D01*
X95364Y199033D01*
X95264Y199188D01*
X95167Y199344D01*
X95074Y199503D01*
X94986Y199665D01*
X94901Y199828D01*
X94820Y199993D01*
X94743Y200161D01*
X94671Y200330D01*
X94603Y200501D01*
X94538Y200673D01*
X94479Y200847D01*
X94423Y201023D01*
X94372Y201200D01*
X94325Y201378D01*
X94282Y201557D01*
X94244Y201737D01*
X94210Y201918D01*
X94181Y202100D01*
X94156Y202282D01*
X94136Y202465D01*
X94120Y202648D01*
X94109Y202832D01*
X94102Y203016D01*
X94100Y203200D01*
X360800Y304800D02*
X360802Y304984D01*
X360809Y305168D01*
X360820Y305352D01*
X360836Y305535D01*
X360856Y305718D01*
X360881Y305900D01*
X360910Y306082D01*
X360944Y306263D01*
X360982Y306443D01*
X361025Y306622D01*
X361072Y306800D01*
X361123Y306977D01*
X361179Y307153D01*
X361238Y307327D01*
X361303Y307499D01*
X361371Y307670D01*
X361443Y307839D01*
X361520Y308007D01*
X361601Y308172D01*
X361686Y308335D01*
X361774Y308497D01*
X361867Y308656D01*
X361964Y308812D01*
X362064Y308967D01*
X362168Y309119D01*
X362276Y309268D01*
X362387Y309414D01*
X362502Y309558D01*
X362621Y309699D01*
X362743Y309837D01*
X362868Y309972D01*
X362997Y310103D01*
X363128Y310232D01*
X363263Y310357D01*
X363401Y310479D01*
X363542Y310598D01*
X363686Y310713D01*
X363832Y310824D01*
X363981Y310932D01*
X364133Y311036D01*
X364288Y311136D01*
X364444Y311233D01*
X364603Y311326D01*
X364765Y311414D01*
X364928Y311499D01*
X365093Y311580D01*
X365261Y311657D01*
X365430Y311729D01*
X365601Y311797D01*
X365773Y311862D01*
X365947Y311921D01*
X366123Y311977D01*
X366300Y312028D01*
X366478Y312075D01*
X366657Y312118D01*
X366837Y312156D01*
X367018Y312190D01*
X367200Y312219D01*
X367382Y312244D01*
X367565Y312264D01*
X367748Y312280D01*
X367932Y312291D01*
X368116Y312298D01*
X368300Y312300D01*
X368484Y312298D01*
X368668Y312291D01*
X368852Y312280D01*
X369035Y312264D01*
X369218Y312244D01*
X369400Y312219D01*
X369582Y312190D01*
X369763Y312156D01*
X369943Y312118D01*
X370122Y312075D01*
X370300Y312028D01*
X370477Y311977D01*
X370653Y311921D01*
X370827Y311862D01*
X370999Y311797D01*
X371170Y311729D01*
X371339Y311657D01*
X371507Y311580D01*
X371672Y311499D01*
X371835Y311414D01*
X371997Y311326D01*
X372156Y311233D01*
X372312Y311136D01*
X372467Y311036D01*
X372619Y310932D01*
X372768Y310824D01*
X372914Y310713D01*
X373058Y310598D01*
X373199Y310479D01*
X373337Y310357D01*
X373472Y310232D01*
X373603Y310103D01*
X373732Y309972D01*
X373857Y309837D01*
X373979Y309699D01*
X374098Y309558D01*
X374213Y309414D01*
X374324Y309268D01*
X374432Y309119D01*
X374536Y308967D01*
X374636Y308812D01*
X374733Y308656D01*
X374826Y308497D01*
X374914Y308335D01*
X374999Y308172D01*
X375080Y308007D01*
X375157Y307839D01*
X375229Y307670D01*
X375297Y307499D01*
X375362Y307327D01*
X375421Y307153D01*
X375477Y306977D01*
X375528Y306800D01*
X375575Y306622D01*
X375618Y306443D01*
X375656Y306263D01*
X375690Y306082D01*
X375719Y305900D01*
X375744Y305718D01*
X375764Y305535D01*
X375780Y305352D01*
X375791Y305168D01*
X375798Y304984D01*
X375800Y304800D01*
X375798Y304616D01*
X375791Y304432D01*
X375780Y304248D01*
X375764Y304065D01*
X375744Y303882D01*
X375719Y303700D01*
X375690Y303518D01*
X375656Y303337D01*
X375618Y303157D01*
X375575Y302978D01*
X375528Y302800D01*
X375477Y302623D01*
X375421Y302447D01*
X375362Y302273D01*
X375297Y302101D01*
X375229Y301930D01*
X375157Y301761D01*
X375080Y301593D01*
X374999Y301428D01*
X374914Y301265D01*
X374826Y301103D01*
X374733Y300944D01*
X374636Y300788D01*
X374536Y300633D01*
X374432Y300481D01*
X374324Y300332D01*
X374213Y300186D01*
X374098Y300042D01*
X373979Y299901D01*
X373857Y299763D01*
X373732Y299628D01*
X373603Y299497D01*
X373472Y299368D01*
X373337Y299243D01*
X373199Y299121D01*
X373058Y299002D01*
X372914Y298887D01*
X372768Y298776D01*
X372619Y298668D01*
X372467Y298564D01*
X372312Y298464D01*
X372156Y298367D01*
X371997Y298274D01*
X371835Y298186D01*
X371672Y298101D01*
X371507Y298020D01*
X371339Y297943D01*
X371170Y297871D01*
X370999Y297803D01*
X370827Y297738D01*
X370653Y297679D01*
X370477Y297623D01*
X370300Y297572D01*
X370122Y297525D01*
X369943Y297482D01*
X369763Y297444D01*
X369582Y297410D01*
X369400Y297381D01*
X369218Y297356D01*
X369035Y297336D01*
X368852Y297320D01*
X368668Y297309D01*
X368484Y297302D01*
X368300Y297300D01*
X368116Y297302D01*
X367932Y297309D01*
X367748Y297320D01*
X367565Y297336D01*
X367382Y297356D01*
X367200Y297381D01*
X367018Y297410D01*
X366837Y297444D01*
X366657Y297482D01*
X366478Y297525D01*
X366300Y297572D01*
X366123Y297623D01*
X365947Y297679D01*
X365773Y297738D01*
X365601Y297803D01*
X365430Y297871D01*
X365261Y297943D01*
X365093Y298020D01*
X364928Y298101D01*
X364765Y298186D01*
X364603Y298274D01*
X364444Y298367D01*
X364288Y298464D01*
X364133Y298564D01*
X363981Y298668D01*
X363832Y298776D01*
X363686Y298887D01*
X363542Y299002D01*
X363401Y299121D01*
X363263Y299243D01*
X363128Y299368D01*
X362997Y299497D01*
X362868Y299628D01*
X362743Y299763D01*
X362621Y299901D01*
X362502Y300042D01*
X362387Y300186D01*
X362276Y300332D01*
X362168Y300481D01*
X362064Y300633D01*
X361964Y300788D01*
X361867Y300944D01*
X361774Y301103D01*
X361686Y301265D01*
X361601Y301428D01*
X361520Y301593D01*
X361443Y301761D01*
X361371Y301930D01*
X361303Y302101D01*
X361238Y302273D01*
X361179Y302447D01*
X361123Y302623D01*
X361072Y302800D01*
X361025Y302978D01*
X360982Y303157D01*
X360944Y303337D01*
X360910Y303518D01*
X360881Y303700D01*
X360856Y303882D01*
X360836Y304065D01*
X360820Y304248D01*
X360809Y304432D01*
X360802Y304616D01*
X360800Y304800D01*
X259200Y203200D02*
X259202Y203384D01*
X259209Y203568D01*
X259220Y203752D01*
X259236Y203935D01*
X259256Y204118D01*
X259281Y204300D01*
X259310Y204482D01*
X259344Y204663D01*
X259382Y204843D01*
X259425Y205022D01*
X259472Y205200D01*
X259523Y205377D01*
X259579Y205553D01*
X259638Y205727D01*
X259703Y205899D01*
X259771Y206070D01*
X259843Y206239D01*
X259920Y206407D01*
X260001Y206572D01*
X260086Y206735D01*
X260174Y206897D01*
X260267Y207056D01*
X260364Y207212D01*
X260464Y207367D01*
X260568Y207519D01*
X260676Y207668D01*
X260787Y207814D01*
X260902Y207958D01*
X261021Y208099D01*
X261143Y208237D01*
X261268Y208372D01*
X261397Y208503D01*
X261528Y208632D01*
X261663Y208757D01*
X261801Y208879D01*
X261942Y208998D01*
X262086Y209113D01*
X262232Y209224D01*
X262381Y209332D01*
X262533Y209436D01*
X262688Y209536D01*
X262844Y209633D01*
X263003Y209726D01*
X263165Y209814D01*
X263328Y209899D01*
X263493Y209980D01*
X263661Y210057D01*
X263830Y210129D01*
X264001Y210197D01*
X264173Y210262D01*
X264347Y210321D01*
X264523Y210377D01*
X264700Y210428D01*
X264878Y210475D01*
X265057Y210518D01*
X265237Y210556D01*
X265418Y210590D01*
X265600Y210619D01*
X265782Y210644D01*
X265965Y210664D01*
X266148Y210680D01*
X266332Y210691D01*
X266516Y210698D01*
X266700Y210700D01*
X266884Y210698D01*
X267068Y210691D01*
X267252Y210680D01*
X267435Y210664D01*
X267618Y210644D01*
X267800Y210619D01*
X267982Y210590D01*
X268163Y210556D01*
X268343Y210518D01*
X268522Y210475D01*
X268700Y210428D01*
X268877Y210377D01*
X269053Y210321D01*
X269227Y210262D01*
X269399Y210197D01*
X269570Y210129D01*
X269739Y210057D01*
X269907Y209980D01*
X270072Y209899D01*
X270235Y209814D01*
X270397Y209726D01*
X270556Y209633D01*
X270712Y209536D01*
X270867Y209436D01*
X271019Y209332D01*
X271168Y209224D01*
X271314Y209113D01*
X271458Y208998D01*
X271599Y208879D01*
X271737Y208757D01*
X271872Y208632D01*
X272003Y208503D01*
X272132Y208372D01*
X272257Y208237D01*
X272379Y208099D01*
X272498Y207958D01*
X272613Y207814D01*
X272724Y207668D01*
X272832Y207519D01*
X272936Y207367D01*
X273036Y207212D01*
X273133Y207056D01*
X273226Y206897D01*
X273314Y206735D01*
X273399Y206572D01*
X273480Y206407D01*
X273557Y206239D01*
X273629Y206070D01*
X273697Y205899D01*
X273762Y205727D01*
X273821Y205553D01*
X273877Y205377D01*
X273928Y205200D01*
X273975Y205022D01*
X274018Y204843D01*
X274056Y204663D01*
X274090Y204482D01*
X274119Y204300D01*
X274144Y204118D01*
X274164Y203935D01*
X274180Y203752D01*
X274191Y203568D01*
X274198Y203384D01*
X274200Y203200D01*
X274198Y203016D01*
X274191Y202832D01*
X274180Y202648D01*
X274164Y202465D01*
X274144Y202282D01*
X274119Y202100D01*
X274090Y201918D01*
X274056Y201737D01*
X274018Y201557D01*
X273975Y201378D01*
X273928Y201200D01*
X273877Y201023D01*
X273821Y200847D01*
X273762Y200673D01*
X273697Y200501D01*
X273629Y200330D01*
X273557Y200161D01*
X273480Y199993D01*
X273399Y199828D01*
X273314Y199665D01*
X273226Y199503D01*
X273133Y199344D01*
X273036Y199188D01*
X272936Y199033D01*
X272832Y198881D01*
X272724Y198732D01*
X272613Y198586D01*
X272498Y198442D01*
X272379Y198301D01*
X272257Y198163D01*
X272132Y198028D01*
X272003Y197897D01*
X271872Y197768D01*
X271737Y197643D01*
X271599Y197521D01*
X271458Y197402D01*
X271314Y197287D01*
X271168Y197176D01*
X271019Y197068D01*
X270867Y196964D01*
X270712Y196864D01*
X270556Y196767D01*
X270397Y196674D01*
X270235Y196586D01*
X270072Y196501D01*
X269907Y196420D01*
X269739Y196343D01*
X269570Y196271D01*
X269399Y196203D01*
X269227Y196138D01*
X269053Y196079D01*
X268877Y196023D01*
X268700Y195972D01*
X268522Y195925D01*
X268343Y195882D01*
X268163Y195844D01*
X267982Y195810D01*
X267800Y195781D01*
X267618Y195756D01*
X267435Y195736D01*
X267252Y195720D01*
X267068Y195709D01*
X266884Y195702D01*
X266700Y195700D01*
X266516Y195702D01*
X266332Y195709D01*
X266148Y195720D01*
X265965Y195736D01*
X265782Y195756D01*
X265600Y195781D01*
X265418Y195810D01*
X265237Y195844D01*
X265057Y195882D01*
X264878Y195925D01*
X264700Y195972D01*
X264523Y196023D01*
X264347Y196079D01*
X264173Y196138D01*
X264001Y196203D01*
X263830Y196271D01*
X263661Y196343D01*
X263493Y196420D01*
X263328Y196501D01*
X263165Y196586D01*
X263003Y196674D01*
X262844Y196767D01*
X262688Y196864D01*
X262533Y196964D01*
X262381Y197068D01*
X262232Y197176D01*
X262086Y197287D01*
X261942Y197402D01*
X261801Y197521D01*
X261663Y197643D01*
X261528Y197768D01*
X261397Y197897D01*
X261268Y198028D01*
X261143Y198163D01*
X261021Y198301D01*
X260902Y198442D01*
X260787Y198586D01*
X260676Y198732D01*
X260568Y198881D01*
X260464Y199033D01*
X260364Y199188D01*
X260267Y199344D01*
X260174Y199503D01*
X260086Y199665D01*
X260001Y199828D01*
X259920Y199993D01*
X259843Y200161D01*
X259771Y200330D01*
X259703Y200501D01*
X259638Y200673D01*
X259579Y200847D01*
X259523Y201023D01*
X259472Y201200D01*
X259425Y201378D01*
X259382Y201557D01*
X259344Y201737D01*
X259310Y201918D01*
X259281Y202100D01*
X259256Y202282D01*
X259236Y202465D01*
X259220Y202648D01*
X259209Y202832D01*
X259202Y203016D01*
X259200Y203200D01*
X525900Y304800D02*
X525902Y304984D01*
X525909Y305168D01*
X525920Y305352D01*
X525936Y305535D01*
X525956Y305718D01*
X525981Y305900D01*
X526010Y306082D01*
X526044Y306263D01*
X526082Y306443D01*
X526125Y306622D01*
X526172Y306800D01*
X526223Y306977D01*
X526279Y307153D01*
X526338Y307327D01*
X526403Y307499D01*
X526471Y307670D01*
X526543Y307839D01*
X526620Y308007D01*
X526701Y308172D01*
X526786Y308335D01*
X526874Y308497D01*
X526967Y308656D01*
X527064Y308812D01*
X527164Y308967D01*
X527268Y309119D01*
X527376Y309268D01*
X527487Y309414D01*
X527602Y309558D01*
X527721Y309699D01*
X527843Y309837D01*
X527968Y309972D01*
X528097Y310103D01*
X528228Y310232D01*
X528363Y310357D01*
X528501Y310479D01*
X528642Y310598D01*
X528786Y310713D01*
X528932Y310824D01*
X529081Y310932D01*
X529233Y311036D01*
X529388Y311136D01*
X529544Y311233D01*
X529703Y311326D01*
X529865Y311414D01*
X530028Y311499D01*
X530193Y311580D01*
X530361Y311657D01*
X530530Y311729D01*
X530701Y311797D01*
X530873Y311862D01*
X531047Y311921D01*
X531223Y311977D01*
X531400Y312028D01*
X531578Y312075D01*
X531757Y312118D01*
X531937Y312156D01*
X532118Y312190D01*
X532300Y312219D01*
X532482Y312244D01*
X532665Y312264D01*
X532848Y312280D01*
X533032Y312291D01*
X533216Y312298D01*
X533400Y312300D01*
X533584Y312298D01*
X533768Y312291D01*
X533952Y312280D01*
X534135Y312264D01*
X534318Y312244D01*
X534500Y312219D01*
X534682Y312190D01*
X534863Y312156D01*
X535043Y312118D01*
X535222Y312075D01*
X535400Y312028D01*
X535577Y311977D01*
X535753Y311921D01*
X535927Y311862D01*
X536099Y311797D01*
X536270Y311729D01*
X536439Y311657D01*
X536607Y311580D01*
X536772Y311499D01*
X536935Y311414D01*
X537097Y311326D01*
X537256Y311233D01*
X537412Y311136D01*
X537567Y311036D01*
X537719Y310932D01*
X537868Y310824D01*
X538014Y310713D01*
X538158Y310598D01*
X538299Y310479D01*
X538437Y310357D01*
X538572Y310232D01*
X538703Y310103D01*
X538832Y309972D01*
X538957Y309837D01*
X539079Y309699D01*
X539198Y309558D01*
X539313Y309414D01*
X539424Y309268D01*
X539532Y309119D01*
X539636Y308967D01*
X539736Y308812D01*
X539833Y308656D01*
X539926Y308497D01*
X540014Y308335D01*
X540099Y308172D01*
X540180Y308007D01*
X540257Y307839D01*
X540329Y307670D01*
X540397Y307499D01*
X540462Y307327D01*
X540521Y307153D01*
X540577Y306977D01*
X540628Y306800D01*
X540675Y306622D01*
X540718Y306443D01*
X540756Y306263D01*
X540790Y306082D01*
X540819Y305900D01*
X540844Y305718D01*
X540864Y305535D01*
X540880Y305352D01*
X540891Y305168D01*
X540898Y304984D01*
X540900Y304800D01*
X540898Y304616D01*
X540891Y304432D01*
X540880Y304248D01*
X540864Y304065D01*
X540844Y303882D01*
X540819Y303700D01*
X540790Y303518D01*
X540756Y303337D01*
X540718Y303157D01*
X540675Y302978D01*
X540628Y302800D01*
X540577Y302623D01*
X540521Y302447D01*
X540462Y302273D01*
X540397Y302101D01*
X540329Y301930D01*
X540257Y301761D01*
X540180Y301593D01*
X540099Y301428D01*
X540014Y301265D01*
X539926Y301103D01*
X539833Y300944D01*
X539736Y300788D01*
X539636Y300633D01*
X539532Y300481D01*
X539424Y300332D01*
X539313Y300186D01*
X539198Y300042D01*
X539079Y299901D01*
X538957Y299763D01*
X538832Y299628D01*
X538703Y299497D01*
X538572Y299368D01*
X538437Y299243D01*
X538299Y299121D01*
X538158Y299002D01*
X538014Y298887D01*
X537868Y298776D01*
X537719Y298668D01*
X537567Y298564D01*
X537412Y298464D01*
X537256Y298367D01*
X537097Y298274D01*
X536935Y298186D01*
X536772Y298101D01*
X536607Y298020D01*
X536439Y297943D01*
X536270Y297871D01*
X536099Y297803D01*
X535927Y297738D01*
X535753Y297679D01*
X535577Y297623D01*
X535400Y297572D01*
X535222Y297525D01*
X535043Y297482D01*
X534863Y297444D01*
X534682Y297410D01*
X534500Y297381D01*
X534318Y297356D01*
X534135Y297336D01*
X533952Y297320D01*
X533768Y297309D01*
X533584Y297302D01*
X533400Y297300D01*
X533216Y297302D01*
X533032Y297309D01*
X532848Y297320D01*
X532665Y297336D01*
X532482Y297356D01*
X532300Y297381D01*
X532118Y297410D01*
X531937Y297444D01*
X531757Y297482D01*
X531578Y297525D01*
X531400Y297572D01*
X531223Y297623D01*
X531047Y297679D01*
X530873Y297738D01*
X530701Y297803D01*
X530530Y297871D01*
X530361Y297943D01*
X530193Y298020D01*
X530028Y298101D01*
X529865Y298186D01*
X529703Y298274D01*
X529544Y298367D01*
X529388Y298464D01*
X529233Y298564D01*
X529081Y298668D01*
X528932Y298776D01*
X528786Y298887D01*
X528642Y299002D01*
X528501Y299121D01*
X528363Y299243D01*
X528228Y299368D01*
X528097Y299497D01*
X527968Y299628D01*
X527843Y299763D01*
X527721Y299901D01*
X527602Y300042D01*
X527487Y300186D01*
X527376Y300332D01*
X527268Y300481D01*
X527164Y300633D01*
X527064Y300788D01*
X526967Y300944D01*
X526874Y301103D01*
X526786Y301265D01*
X526701Y301428D01*
X526620Y301593D01*
X526543Y301761D01*
X526471Y301930D01*
X526403Y302101D01*
X526338Y302273D01*
X526279Y302447D01*
X526223Y302623D01*
X526172Y302800D01*
X526125Y302978D01*
X526082Y303157D01*
X526044Y303337D01*
X526010Y303518D01*
X525981Y303700D01*
X525956Y303882D01*
X525936Y304065D01*
X525920Y304248D01*
X525909Y304432D01*
X525902Y304616D01*
X525900Y304800D01*
X424300Y203200D02*
X424302Y203384D01*
X424309Y203568D01*
X424320Y203752D01*
X424336Y203935D01*
X424356Y204118D01*
X424381Y204300D01*
X424410Y204482D01*
X424444Y204663D01*
X424482Y204843D01*
X424525Y205022D01*
X424572Y205200D01*
X424623Y205377D01*
X424679Y205553D01*
X424738Y205727D01*
X424803Y205899D01*
X424871Y206070D01*
X424943Y206239D01*
X425020Y206407D01*
X425101Y206572D01*
X425186Y206735D01*
X425274Y206897D01*
X425367Y207056D01*
X425464Y207212D01*
X425564Y207367D01*
X425668Y207519D01*
X425776Y207668D01*
X425887Y207814D01*
X426002Y207958D01*
X426121Y208099D01*
X426243Y208237D01*
X426368Y208372D01*
X426497Y208503D01*
X426628Y208632D01*
X426763Y208757D01*
X426901Y208879D01*
X427042Y208998D01*
X427186Y209113D01*
X427332Y209224D01*
X427481Y209332D01*
X427633Y209436D01*
X427788Y209536D01*
X427944Y209633D01*
X428103Y209726D01*
X428265Y209814D01*
X428428Y209899D01*
X428593Y209980D01*
X428761Y210057D01*
X428930Y210129D01*
X429101Y210197D01*
X429273Y210262D01*
X429447Y210321D01*
X429623Y210377D01*
X429800Y210428D01*
X429978Y210475D01*
X430157Y210518D01*
X430337Y210556D01*
X430518Y210590D01*
X430700Y210619D01*
X430882Y210644D01*
X431065Y210664D01*
X431248Y210680D01*
X431432Y210691D01*
X431616Y210698D01*
X431800Y210700D01*
X431984Y210698D01*
X432168Y210691D01*
X432352Y210680D01*
X432535Y210664D01*
X432718Y210644D01*
X432900Y210619D01*
X433082Y210590D01*
X433263Y210556D01*
X433443Y210518D01*
X433622Y210475D01*
X433800Y210428D01*
X433977Y210377D01*
X434153Y210321D01*
X434327Y210262D01*
X434499Y210197D01*
X434670Y210129D01*
X434839Y210057D01*
X435007Y209980D01*
X435172Y209899D01*
X435335Y209814D01*
X435497Y209726D01*
X435656Y209633D01*
X435812Y209536D01*
X435967Y209436D01*
X436119Y209332D01*
X436268Y209224D01*
X436414Y209113D01*
X436558Y208998D01*
X436699Y208879D01*
X436837Y208757D01*
X436972Y208632D01*
X437103Y208503D01*
X437232Y208372D01*
X437357Y208237D01*
X437479Y208099D01*
X437598Y207958D01*
X437713Y207814D01*
X437824Y207668D01*
X437932Y207519D01*
X438036Y207367D01*
X438136Y207212D01*
X438233Y207056D01*
X438326Y206897D01*
X438414Y206735D01*
X438499Y206572D01*
X438580Y206407D01*
X438657Y206239D01*
X438729Y206070D01*
X438797Y205899D01*
X438862Y205727D01*
X438921Y205553D01*
X438977Y205377D01*
X439028Y205200D01*
X439075Y205022D01*
X439118Y204843D01*
X439156Y204663D01*
X439190Y204482D01*
X439219Y204300D01*
X439244Y204118D01*
X439264Y203935D01*
X439280Y203752D01*
X439291Y203568D01*
X439298Y203384D01*
X439300Y203200D01*
X439298Y203016D01*
X439291Y202832D01*
X439280Y202648D01*
X439264Y202465D01*
X439244Y202282D01*
X439219Y202100D01*
X439190Y201918D01*
X439156Y201737D01*
X439118Y201557D01*
X439075Y201378D01*
X439028Y201200D01*
X438977Y201023D01*
X438921Y200847D01*
X438862Y200673D01*
X438797Y200501D01*
X438729Y200330D01*
X438657Y200161D01*
X438580Y199993D01*
X438499Y199828D01*
X438414Y199665D01*
X438326Y199503D01*
X438233Y199344D01*
X438136Y199188D01*
X438036Y199033D01*
X437932Y198881D01*
X437824Y198732D01*
X437713Y198586D01*
X437598Y198442D01*
X437479Y198301D01*
X437357Y198163D01*
X437232Y198028D01*
X437103Y197897D01*
X436972Y197768D01*
X436837Y197643D01*
X436699Y197521D01*
X436558Y197402D01*
X436414Y197287D01*
X436268Y197176D01*
X436119Y197068D01*
X435967Y196964D01*
X435812Y196864D01*
X435656Y196767D01*
X435497Y196674D01*
X435335Y196586D01*
X435172Y196501D01*
X435007Y196420D01*
X434839Y196343D01*
X434670Y196271D01*
X434499Y196203D01*
X434327Y196138D01*
X434153Y196079D01*
X433977Y196023D01*
X433800Y195972D01*
X433622Y195925D01*
X433443Y195882D01*
X433263Y195844D01*
X433082Y195810D01*
X432900Y195781D01*
X432718Y195756D01*
X432535Y195736D01*
X432352Y195720D01*
X432168Y195709D01*
X431984Y195702D01*
X431800Y195700D01*
X431616Y195702D01*
X431432Y195709D01*
X431248Y195720D01*
X431065Y195736D01*
X430882Y195756D01*
X430700Y195781D01*
X430518Y195810D01*
X430337Y195844D01*
X430157Y195882D01*
X429978Y195925D01*
X429800Y195972D01*
X429623Y196023D01*
X429447Y196079D01*
X429273Y196138D01*
X429101Y196203D01*
X428930Y196271D01*
X428761Y196343D01*
X428593Y196420D01*
X428428Y196501D01*
X428265Y196586D01*
X428103Y196674D01*
X427944Y196767D01*
X427788Y196864D01*
X427633Y196964D01*
X427481Y197068D01*
X427332Y197176D01*
X427186Y197287D01*
X427042Y197402D01*
X426901Y197521D01*
X426763Y197643D01*
X426628Y197768D01*
X426497Y197897D01*
X426368Y198028D01*
X426243Y198163D01*
X426121Y198301D01*
X426002Y198442D01*
X425887Y198586D01*
X425776Y198732D01*
X425668Y198881D01*
X425564Y199033D01*
X425464Y199188D01*
X425367Y199344D01*
X425274Y199503D01*
X425186Y199665D01*
X425101Y199828D01*
X425020Y199993D01*
X424943Y200161D01*
X424871Y200330D01*
X424803Y200501D01*
X424738Y200673D01*
X424679Y200847D01*
X424623Y201023D01*
X424572Y201200D01*
X424525Y201378D01*
X424482Y201557D01*
X424444Y201737D01*
X424410Y201918D01*
X424381Y202100D01*
X424356Y202282D01*
X424336Y202465D01*
X424320Y202648D01*
X424309Y202832D01*
X424302Y203016D01*
X424300Y203200D01*
X691000Y304800D02*
X691002Y304984D01*
X691009Y305168D01*
X691020Y305352D01*
X691036Y305535D01*
X691056Y305718D01*
X691081Y305900D01*
X691110Y306082D01*
X691144Y306263D01*
X691182Y306443D01*
X691225Y306622D01*
X691272Y306800D01*
X691323Y306977D01*
X691379Y307153D01*
X691438Y307327D01*
X691503Y307499D01*
X691571Y307670D01*
X691643Y307839D01*
X691720Y308007D01*
X691801Y308172D01*
X691886Y308335D01*
X691974Y308497D01*
X692067Y308656D01*
X692164Y308812D01*
X692264Y308967D01*
X692368Y309119D01*
X692476Y309268D01*
X692587Y309414D01*
X692702Y309558D01*
X692821Y309699D01*
X692943Y309837D01*
X693068Y309972D01*
X693197Y310103D01*
X693328Y310232D01*
X693463Y310357D01*
X693601Y310479D01*
X693742Y310598D01*
X693886Y310713D01*
X694032Y310824D01*
X694181Y310932D01*
X694333Y311036D01*
X694488Y311136D01*
X694644Y311233D01*
X694803Y311326D01*
X694965Y311414D01*
X695128Y311499D01*
X695293Y311580D01*
X695461Y311657D01*
X695630Y311729D01*
X695801Y311797D01*
X695973Y311862D01*
X696147Y311921D01*
X696323Y311977D01*
X696500Y312028D01*
X696678Y312075D01*
X696857Y312118D01*
X697037Y312156D01*
X697218Y312190D01*
X697400Y312219D01*
X697582Y312244D01*
X697765Y312264D01*
X697948Y312280D01*
X698132Y312291D01*
X698316Y312298D01*
X698500Y312300D01*
X698684Y312298D01*
X698868Y312291D01*
X699052Y312280D01*
X699235Y312264D01*
X699418Y312244D01*
X699600Y312219D01*
X699782Y312190D01*
X699963Y312156D01*
X700143Y312118D01*
X700322Y312075D01*
X700500Y312028D01*
X700677Y311977D01*
X700853Y311921D01*
X701027Y311862D01*
X701199Y311797D01*
X701370Y311729D01*
X701539Y311657D01*
X701707Y311580D01*
X701872Y311499D01*
X702035Y311414D01*
X702197Y311326D01*
X702356Y311233D01*
X702512Y311136D01*
X702667Y311036D01*
X702819Y310932D01*
X702968Y310824D01*
X703114Y310713D01*
X703258Y310598D01*
X703399Y310479D01*
X703537Y310357D01*
X703672Y310232D01*
X703803Y310103D01*
X703932Y309972D01*
X704057Y309837D01*
X704179Y309699D01*
X704298Y309558D01*
X704413Y309414D01*
X704524Y309268D01*
X704632Y309119D01*
X704736Y308967D01*
X704836Y308812D01*
X704933Y308656D01*
X705026Y308497D01*
X705114Y308335D01*
X705199Y308172D01*
X705280Y308007D01*
X705357Y307839D01*
X705429Y307670D01*
X705497Y307499D01*
X705562Y307327D01*
X705621Y307153D01*
X705677Y306977D01*
X705728Y306800D01*
X705775Y306622D01*
X705818Y306443D01*
X705856Y306263D01*
X705890Y306082D01*
X705919Y305900D01*
X705944Y305718D01*
X705964Y305535D01*
X705980Y305352D01*
X705991Y305168D01*
X705998Y304984D01*
X706000Y304800D01*
X705998Y304616D01*
X705991Y304432D01*
X705980Y304248D01*
X705964Y304065D01*
X705944Y303882D01*
X705919Y303700D01*
X705890Y303518D01*
X705856Y303337D01*
X705818Y303157D01*
X705775Y302978D01*
X705728Y302800D01*
X705677Y302623D01*
X705621Y302447D01*
X705562Y302273D01*
X705497Y302101D01*
X705429Y301930D01*
X705357Y301761D01*
X705280Y301593D01*
X705199Y301428D01*
X705114Y301265D01*
X705026Y301103D01*
X704933Y300944D01*
X704836Y300788D01*
X704736Y300633D01*
X704632Y300481D01*
X704524Y300332D01*
X704413Y300186D01*
X704298Y300042D01*
X704179Y299901D01*
X704057Y299763D01*
X703932Y299628D01*
X703803Y299497D01*
X703672Y299368D01*
X703537Y299243D01*
X703399Y299121D01*
X703258Y299002D01*
X703114Y298887D01*
X702968Y298776D01*
X702819Y298668D01*
X702667Y298564D01*
X702512Y298464D01*
X702356Y298367D01*
X702197Y298274D01*
X702035Y298186D01*
X701872Y298101D01*
X701707Y298020D01*
X701539Y297943D01*
X701370Y297871D01*
X701199Y297803D01*
X701027Y297738D01*
X700853Y297679D01*
X700677Y297623D01*
X700500Y297572D01*
X700322Y297525D01*
X700143Y297482D01*
X699963Y297444D01*
X699782Y297410D01*
X699600Y297381D01*
X699418Y297356D01*
X699235Y297336D01*
X699052Y297320D01*
X698868Y297309D01*
X698684Y297302D01*
X698500Y297300D01*
X698316Y297302D01*
X698132Y297309D01*
X697948Y297320D01*
X697765Y297336D01*
X697582Y297356D01*
X697400Y297381D01*
X697218Y297410D01*
X697037Y297444D01*
X696857Y297482D01*
X696678Y297525D01*
X696500Y297572D01*
X696323Y297623D01*
X696147Y297679D01*
X695973Y297738D01*
X695801Y297803D01*
X695630Y297871D01*
X695461Y297943D01*
X695293Y298020D01*
X695128Y298101D01*
X694965Y298186D01*
X694803Y298274D01*
X694644Y298367D01*
X694488Y298464D01*
X694333Y298564D01*
X694181Y298668D01*
X694032Y298776D01*
X693886Y298887D01*
X693742Y299002D01*
X693601Y299121D01*
X693463Y299243D01*
X693328Y299368D01*
X693197Y299497D01*
X693068Y299628D01*
X692943Y299763D01*
X692821Y299901D01*
X692702Y300042D01*
X692587Y300186D01*
X692476Y300332D01*
X692368Y300481D01*
X692264Y300633D01*
X692164Y300788D01*
X692067Y300944D01*
X691974Y301103D01*
X691886Y301265D01*
X691801Y301428D01*
X691720Y301593D01*
X691643Y301761D01*
X691571Y301930D01*
X691503Y302101D01*
X691438Y302273D01*
X691379Y302447D01*
X691323Y302623D01*
X691272Y302800D01*
X691225Y302978D01*
X691182Y303157D01*
X691144Y303337D01*
X691110Y303518D01*
X691081Y303700D01*
X691056Y303882D01*
X691036Y304065D01*
X691020Y304248D01*
X691009Y304432D01*
X691002Y304616D01*
X691000Y304800D01*
X589400Y203200D02*
X589402Y203384D01*
X589409Y203568D01*
X589420Y203752D01*
X589436Y203935D01*
X589456Y204118D01*
X589481Y204300D01*
X589510Y204482D01*
X589544Y204663D01*
X589582Y204843D01*
X589625Y205022D01*
X589672Y205200D01*
X589723Y205377D01*
X589779Y205553D01*
X589838Y205727D01*
X589903Y205899D01*
X589971Y206070D01*
X590043Y206239D01*
X590120Y206407D01*
X590201Y206572D01*
X590286Y206735D01*
X590374Y206897D01*
X590467Y207056D01*
X590564Y207212D01*
X590664Y207367D01*
X590768Y207519D01*
X590876Y207668D01*
X590987Y207814D01*
X591102Y207958D01*
X591221Y208099D01*
X591343Y208237D01*
X591468Y208372D01*
X591597Y208503D01*
X591728Y208632D01*
X591863Y208757D01*
X592001Y208879D01*
X592142Y208998D01*
X592286Y209113D01*
X592432Y209224D01*
X592581Y209332D01*
X592733Y209436D01*
X592888Y209536D01*
X593044Y209633D01*
X593203Y209726D01*
X593365Y209814D01*
X593528Y209899D01*
X593693Y209980D01*
X593861Y210057D01*
X594030Y210129D01*
X594201Y210197D01*
X594373Y210262D01*
X594547Y210321D01*
X594723Y210377D01*
X594900Y210428D01*
X595078Y210475D01*
X595257Y210518D01*
X595437Y210556D01*
X595618Y210590D01*
X595800Y210619D01*
X595982Y210644D01*
X596165Y210664D01*
X596348Y210680D01*
X596532Y210691D01*
X596716Y210698D01*
X596900Y210700D01*
X597084Y210698D01*
X597268Y210691D01*
X597452Y210680D01*
X597635Y210664D01*
X597818Y210644D01*
X598000Y210619D01*
X598182Y210590D01*
X598363Y210556D01*
X598543Y210518D01*
X598722Y210475D01*
X598900Y210428D01*
X599077Y210377D01*
X599253Y210321D01*
X599427Y210262D01*
X599599Y210197D01*
X599770Y210129D01*
X599939Y210057D01*
X600107Y209980D01*
X600272Y209899D01*
X600435Y209814D01*
X600597Y209726D01*
X600756Y209633D01*
X600912Y209536D01*
X601067Y209436D01*
X601219Y209332D01*
X601368Y209224D01*
X601514Y209113D01*
X601658Y208998D01*
X601799Y208879D01*
X601937Y208757D01*
X602072Y208632D01*
X602203Y208503D01*
X602332Y208372D01*
X602457Y208237D01*
X602579Y208099D01*
X602698Y207958D01*
X602813Y207814D01*
X602924Y207668D01*
X603032Y207519D01*
X603136Y207367D01*
X603236Y207212D01*
X603333Y207056D01*
X603426Y206897D01*
X603514Y206735D01*
X603599Y206572D01*
X603680Y206407D01*
X603757Y206239D01*
X603829Y206070D01*
X603897Y205899D01*
X603962Y205727D01*
X604021Y205553D01*
X604077Y205377D01*
X604128Y205200D01*
X604175Y205022D01*
X604218Y204843D01*
X604256Y204663D01*
X604290Y204482D01*
X604319Y204300D01*
X604344Y204118D01*
X604364Y203935D01*
X604380Y203752D01*
X604391Y203568D01*
X604398Y203384D01*
X604400Y203200D01*
X604398Y203016D01*
X604391Y202832D01*
X604380Y202648D01*
X604364Y202465D01*
X604344Y202282D01*
X604319Y202100D01*
X604290Y201918D01*
X604256Y201737D01*
X604218Y201557D01*
X604175Y201378D01*
X604128Y201200D01*
X604077Y201023D01*
X604021Y200847D01*
X603962Y200673D01*
X603897Y200501D01*
X603829Y200330D01*
X603757Y200161D01*
X603680Y199993D01*
X603599Y199828D01*
X603514Y199665D01*
X603426Y199503D01*
X603333Y199344D01*
X603236Y199188D01*
X603136Y199033D01*
X603032Y198881D01*
X602924Y198732D01*
X602813Y198586D01*
X602698Y198442D01*
X602579Y198301D01*
X602457Y198163D01*
X602332Y198028D01*
X602203Y197897D01*
X602072Y197768D01*
X601937Y197643D01*
X601799Y197521D01*
X601658Y197402D01*
X601514Y197287D01*
X601368Y197176D01*
X601219Y197068D01*
X601067Y196964D01*
X600912Y196864D01*
X600756Y196767D01*
X600597Y196674D01*
X600435Y196586D01*
X600272Y196501D01*
X600107Y196420D01*
X599939Y196343D01*
X599770Y196271D01*
X599599Y196203D01*
X599427Y196138D01*
X599253Y196079D01*
X599077Y196023D01*
X598900Y195972D01*
X598722Y195925D01*
X598543Y195882D01*
X598363Y195844D01*
X598182Y195810D01*
X598000Y195781D01*
X597818Y195756D01*
X597635Y195736D01*
X597452Y195720D01*
X597268Y195709D01*
X597084Y195702D01*
X596900Y195700D01*
X596716Y195702D01*
X596532Y195709D01*
X596348Y195720D01*
X596165Y195736D01*
X595982Y195756D01*
X595800Y195781D01*
X595618Y195810D01*
X595437Y195844D01*
X595257Y195882D01*
X595078Y195925D01*
X594900Y195972D01*
X594723Y196023D01*
X594547Y196079D01*
X594373Y196138D01*
X594201Y196203D01*
X594030Y196271D01*
X593861Y196343D01*
X593693Y196420D01*
X593528Y196501D01*
X593365Y196586D01*
X593203Y196674D01*
X593044Y196767D01*
X592888Y196864D01*
X592733Y196964D01*
X592581Y197068D01*
X592432Y197176D01*
X592286Y197287D01*
X592142Y197402D01*
X592001Y197521D01*
X591863Y197643D01*
X591728Y197768D01*
X591597Y197897D01*
X591468Y198028D01*
X591343Y198163D01*
X591221Y198301D01*
X591102Y198442D01*
X590987Y198586D01*
X590876Y198732D01*
X590768Y198881D01*
X590664Y199033D01*
X590564Y199188D01*
X590467Y199344D01*
X590374Y199503D01*
X590286Y199665D01*
X590201Y199828D01*
X590120Y199993D01*
X590043Y200161D01*
X589971Y200330D01*
X589903Y200501D01*
X589838Y200673D01*
X589779Y200847D01*
X589723Y201023D01*
X589672Y201200D01*
X589625Y201378D01*
X589582Y201557D01*
X589544Y201737D01*
X589510Y201918D01*
X589481Y202100D01*
X589456Y202282D01*
X589436Y202465D01*
X589420Y202648D01*
X589409Y202832D01*
X589402Y203016D01*
X589400Y203200D01*
X195700Y139700D02*
X195702Y139884D01*
X195709Y140068D01*
X195720Y140252D01*
X195736Y140435D01*
X195756Y140618D01*
X195781Y140800D01*
X195810Y140982D01*
X195844Y141163D01*
X195882Y141343D01*
X195925Y141522D01*
X195972Y141700D01*
X196023Y141877D01*
X196079Y142053D01*
X196138Y142227D01*
X196203Y142399D01*
X196271Y142570D01*
X196343Y142739D01*
X196420Y142907D01*
X196501Y143072D01*
X196586Y143235D01*
X196674Y143397D01*
X196767Y143556D01*
X196864Y143712D01*
X196964Y143867D01*
X197068Y144019D01*
X197176Y144168D01*
X197287Y144314D01*
X197402Y144458D01*
X197521Y144599D01*
X197643Y144737D01*
X197768Y144872D01*
X197897Y145003D01*
X198028Y145132D01*
X198163Y145257D01*
X198301Y145379D01*
X198442Y145498D01*
X198586Y145613D01*
X198732Y145724D01*
X198881Y145832D01*
X199033Y145936D01*
X199188Y146036D01*
X199344Y146133D01*
X199503Y146226D01*
X199665Y146314D01*
X199828Y146399D01*
X199993Y146480D01*
X200161Y146557D01*
X200330Y146629D01*
X200501Y146697D01*
X200673Y146762D01*
X200847Y146821D01*
X201023Y146877D01*
X201200Y146928D01*
X201378Y146975D01*
X201557Y147018D01*
X201737Y147056D01*
X201918Y147090D01*
X202100Y147119D01*
X202282Y147144D01*
X202465Y147164D01*
X202648Y147180D01*
X202832Y147191D01*
X203016Y147198D01*
X203200Y147200D01*
X203384Y147198D01*
X203568Y147191D01*
X203752Y147180D01*
X203935Y147164D01*
X204118Y147144D01*
X204300Y147119D01*
X204482Y147090D01*
X204663Y147056D01*
X204843Y147018D01*
X205022Y146975D01*
X205200Y146928D01*
X205377Y146877D01*
X205553Y146821D01*
X205727Y146762D01*
X205899Y146697D01*
X206070Y146629D01*
X206239Y146557D01*
X206407Y146480D01*
X206572Y146399D01*
X206735Y146314D01*
X206897Y146226D01*
X207056Y146133D01*
X207212Y146036D01*
X207367Y145936D01*
X207519Y145832D01*
X207668Y145724D01*
X207814Y145613D01*
X207958Y145498D01*
X208099Y145379D01*
X208237Y145257D01*
X208372Y145132D01*
X208503Y145003D01*
X208632Y144872D01*
X208757Y144737D01*
X208879Y144599D01*
X208998Y144458D01*
X209113Y144314D01*
X209224Y144168D01*
X209332Y144019D01*
X209436Y143867D01*
X209536Y143712D01*
X209633Y143556D01*
X209726Y143397D01*
X209814Y143235D01*
X209899Y143072D01*
X209980Y142907D01*
X210057Y142739D01*
X210129Y142570D01*
X210197Y142399D01*
X210262Y142227D01*
X210321Y142053D01*
X210377Y141877D01*
X210428Y141700D01*
X210475Y141522D01*
X210518Y141343D01*
X210556Y141163D01*
X210590Y140982D01*
X210619Y140800D01*
X210644Y140618D01*
X210664Y140435D01*
X210680Y140252D01*
X210691Y140068D01*
X210698Y139884D01*
X210700Y139700D01*
X210698Y139516D01*
X210691Y139332D01*
X210680Y139148D01*
X210664Y138965D01*
X210644Y138782D01*
X210619Y138600D01*
X210590Y138418D01*
X210556Y138237D01*
X210518Y138057D01*
X210475Y137878D01*
X210428Y137700D01*
X210377Y137523D01*
X210321Y137347D01*
X210262Y137173D01*
X210197Y137001D01*
X210129Y136830D01*
X210057Y136661D01*
X209980Y136493D01*
X209899Y136328D01*
X209814Y136165D01*
X209726Y136003D01*
X209633Y135844D01*
X209536Y135688D01*
X209436Y135533D01*
X209332Y135381D01*
X209224Y135232D01*
X209113Y135086D01*
X208998Y134942D01*
X208879Y134801D01*
X208757Y134663D01*
X208632Y134528D01*
X208503Y134397D01*
X208372Y134268D01*
X208237Y134143D01*
X208099Y134021D01*
X207958Y133902D01*
X207814Y133787D01*
X207668Y133676D01*
X207519Y133568D01*
X207367Y133464D01*
X207212Y133364D01*
X207056Y133267D01*
X206897Y133174D01*
X206735Y133086D01*
X206572Y133001D01*
X206407Y132920D01*
X206239Y132843D01*
X206070Y132771D01*
X205899Y132703D01*
X205727Y132638D01*
X205553Y132579D01*
X205377Y132523D01*
X205200Y132472D01*
X205022Y132425D01*
X204843Y132382D01*
X204663Y132344D01*
X204482Y132310D01*
X204300Y132281D01*
X204118Y132256D01*
X203935Y132236D01*
X203752Y132220D01*
X203568Y132209D01*
X203384Y132202D01*
X203200Y132200D01*
X203016Y132202D01*
X202832Y132209D01*
X202648Y132220D01*
X202465Y132236D01*
X202282Y132256D01*
X202100Y132281D01*
X201918Y132310D01*
X201737Y132344D01*
X201557Y132382D01*
X201378Y132425D01*
X201200Y132472D01*
X201023Y132523D01*
X200847Y132579D01*
X200673Y132638D01*
X200501Y132703D01*
X200330Y132771D01*
X200161Y132843D01*
X199993Y132920D01*
X199828Y133001D01*
X199665Y133086D01*
X199503Y133174D01*
X199344Y133267D01*
X199188Y133364D01*
X199033Y133464D01*
X198881Y133568D01*
X198732Y133676D01*
X198586Y133787D01*
X198442Y133902D01*
X198301Y134021D01*
X198163Y134143D01*
X198028Y134268D01*
X197897Y134397D01*
X197768Y134528D01*
X197643Y134663D01*
X197521Y134801D01*
X197402Y134942D01*
X197287Y135086D01*
X197176Y135232D01*
X197068Y135381D01*
X196964Y135533D01*
X196864Y135688D01*
X196767Y135844D01*
X196674Y136003D01*
X196586Y136165D01*
X196501Y136328D01*
X196420Y136493D01*
X196343Y136661D01*
X196271Y136830D01*
X196203Y137001D01*
X196138Y137173D01*
X196079Y137347D01*
X196023Y137523D01*
X195972Y137700D01*
X195925Y137878D01*
X195882Y138057D01*
X195844Y138237D01*
X195810Y138418D01*
X195781Y138600D01*
X195756Y138782D01*
X195736Y138965D01*
X195720Y139148D01*
X195709Y139332D01*
X195702Y139516D01*
X195700Y139700D01*
X94100Y38100D02*
X94102Y38284D01*
X94109Y38468D01*
X94120Y38652D01*
X94136Y38835D01*
X94156Y39018D01*
X94181Y39200D01*
X94210Y39382D01*
X94244Y39563D01*
X94282Y39743D01*
X94325Y39922D01*
X94372Y40100D01*
X94423Y40277D01*
X94479Y40453D01*
X94538Y40627D01*
X94603Y40799D01*
X94671Y40970D01*
X94743Y41139D01*
X94820Y41307D01*
X94901Y41472D01*
X94986Y41635D01*
X95074Y41797D01*
X95167Y41956D01*
X95264Y42112D01*
X95364Y42267D01*
X95468Y42419D01*
X95576Y42568D01*
X95687Y42714D01*
X95802Y42858D01*
X95921Y42999D01*
X96043Y43137D01*
X96168Y43272D01*
X96297Y43403D01*
X96428Y43532D01*
X96563Y43657D01*
X96701Y43779D01*
X96842Y43898D01*
X96986Y44013D01*
X97132Y44124D01*
X97281Y44232D01*
X97433Y44336D01*
X97588Y44436D01*
X97744Y44533D01*
X97903Y44626D01*
X98065Y44714D01*
X98228Y44799D01*
X98393Y44880D01*
X98561Y44957D01*
X98730Y45029D01*
X98901Y45097D01*
X99073Y45162D01*
X99247Y45221D01*
X99423Y45277D01*
X99600Y45328D01*
X99778Y45375D01*
X99957Y45418D01*
X100137Y45456D01*
X100318Y45490D01*
X100500Y45519D01*
X100682Y45544D01*
X100865Y45564D01*
X101048Y45580D01*
X101232Y45591D01*
X101416Y45598D01*
X101600Y45600D01*
X101784Y45598D01*
X101968Y45591D01*
X102152Y45580D01*
X102335Y45564D01*
X102518Y45544D01*
X102700Y45519D01*
X102882Y45490D01*
X103063Y45456D01*
X103243Y45418D01*
X103422Y45375D01*
X103600Y45328D01*
X103777Y45277D01*
X103953Y45221D01*
X104127Y45162D01*
X104299Y45097D01*
X104470Y45029D01*
X104639Y44957D01*
X104807Y44880D01*
X104972Y44799D01*
X105135Y44714D01*
X105297Y44626D01*
X105456Y44533D01*
X105612Y44436D01*
X105767Y44336D01*
X105919Y44232D01*
X106068Y44124D01*
X106214Y44013D01*
X106358Y43898D01*
X106499Y43779D01*
X106637Y43657D01*
X106772Y43532D01*
X106903Y43403D01*
X107032Y43272D01*
X107157Y43137D01*
X107279Y42999D01*
X107398Y42858D01*
X107513Y42714D01*
X107624Y42568D01*
X107732Y42419D01*
X107836Y42267D01*
X107936Y42112D01*
X108033Y41956D01*
X108126Y41797D01*
X108214Y41635D01*
X108299Y41472D01*
X108380Y41307D01*
X108457Y41139D01*
X108529Y40970D01*
X108597Y40799D01*
X108662Y40627D01*
X108721Y40453D01*
X108777Y40277D01*
X108828Y40100D01*
X108875Y39922D01*
X108918Y39743D01*
X108956Y39563D01*
X108990Y39382D01*
X109019Y39200D01*
X109044Y39018D01*
X109064Y38835D01*
X109080Y38652D01*
X109091Y38468D01*
X109098Y38284D01*
X109100Y38100D01*
X109098Y37916D01*
X109091Y37732D01*
X109080Y37548D01*
X109064Y37365D01*
X109044Y37182D01*
X109019Y37000D01*
X108990Y36818D01*
X108956Y36637D01*
X108918Y36457D01*
X108875Y36278D01*
X108828Y36100D01*
X108777Y35923D01*
X108721Y35747D01*
X108662Y35573D01*
X108597Y35401D01*
X108529Y35230D01*
X108457Y35061D01*
X108380Y34893D01*
X108299Y34728D01*
X108214Y34565D01*
X108126Y34403D01*
X108033Y34244D01*
X107936Y34088D01*
X107836Y33933D01*
X107732Y33781D01*
X107624Y33632D01*
X107513Y33486D01*
X107398Y33342D01*
X107279Y33201D01*
X107157Y33063D01*
X107032Y32928D01*
X106903Y32797D01*
X106772Y32668D01*
X106637Y32543D01*
X106499Y32421D01*
X106358Y32302D01*
X106214Y32187D01*
X106068Y32076D01*
X105919Y31968D01*
X105767Y31864D01*
X105612Y31764D01*
X105456Y31667D01*
X105297Y31574D01*
X105135Y31486D01*
X104972Y31401D01*
X104807Y31320D01*
X104639Y31243D01*
X104470Y31171D01*
X104299Y31103D01*
X104127Y31038D01*
X103953Y30979D01*
X103777Y30923D01*
X103600Y30872D01*
X103422Y30825D01*
X103243Y30782D01*
X103063Y30744D01*
X102882Y30710D01*
X102700Y30681D01*
X102518Y30656D01*
X102335Y30636D01*
X102152Y30620D01*
X101968Y30609D01*
X101784Y30602D01*
X101600Y30600D01*
X101416Y30602D01*
X101232Y30609D01*
X101048Y30620D01*
X100865Y30636D01*
X100682Y30656D01*
X100500Y30681D01*
X100318Y30710D01*
X100137Y30744D01*
X99957Y30782D01*
X99778Y30825D01*
X99600Y30872D01*
X99423Y30923D01*
X99247Y30979D01*
X99073Y31038D01*
X98901Y31103D01*
X98730Y31171D01*
X98561Y31243D01*
X98393Y31320D01*
X98228Y31401D01*
X98065Y31486D01*
X97903Y31574D01*
X97744Y31667D01*
X97588Y31764D01*
X97433Y31864D01*
X97281Y31968D01*
X97132Y32076D01*
X96986Y32187D01*
X96842Y32302D01*
X96701Y32421D01*
X96563Y32543D01*
X96428Y32668D01*
X96297Y32797D01*
X96168Y32928D01*
X96043Y33063D01*
X95921Y33201D01*
X95802Y33342D01*
X95687Y33486D01*
X95576Y33632D01*
X95468Y33781D01*
X95364Y33933D01*
X95264Y34088D01*
X95167Y34244D01*
X95074Y34403D01*
X94986Y34565D01*
X94901Y34728D01*
X94820Y34893D01*
X94743Y35061D01*
X94671Y35230D01*
X94603Y35401D01*
X94538Y35573D01*
X94479Y35747D01*
X94423Y35923D01*
X94372Y36100D01*
X94325Y36278D01*
X94282Y36457D01*
X94244Y36637D01*
X94210Y36818D01*
X94181Y37000D01*
X94156Y37182D01*
X94136Y37365D01*
X94120Y37548D01*
X94109Y37732D01*
X94102Y37916D01*
X94100Y38100D01*
X360800Y139700D02*
X360802Y139884D01*
X360809Y140068D01*
X360820Y140252D01*
X360836Y140435D01*
X360856Y140618D01*
X360881Y140800D01*
X360910Y140982D01*
X360944Y141163D01*
X360982Y141343D01*
X361025Y141522D01*
X361072Y141700D01*
X361123Y141877D01*
X361179Y142053D01*
X361238Y142227D01*
X361303Y142399D01*
X361371Y142570D01*
X361443Y142739D01*
X361520Y142907D01*
X361601Y143072D01*
X361686Y143235D01*
X361774Y143397D01*
X361867Y143556D01*
X361964Y143712D01*
X362064Y143867D01*
X362168Y144019D01*
X362276Y144168D01*
X362387Y144314D01*
X362502Y144458D01*
X362621Y144599D01*
X362743Y144737D01*
X362868Y144872D01*
X362997Y145003D01*
X363128Y145132D01*
X363263Y145257D01*
X363401Y145379D01*
X363542Y145498D01*
X363686Y145613D01*
X363832Y145724D01*
X363981Y145832D01*
X364133Y145936D01*
X364288Y146036D01*
X364444Y146133D01*
X364603Y146226D01*
X364765Y146314D01*
X364928Y146399D01*
X365093Y146480D01*
X365261Y146557D01*
X365430Y146629D01*
X365601Y146697D01*
X365773Y146762D01*
X365947Y146821D01*
X366123Y146877D01*
X366300Y146928D01*
X366478Y146975D01*
X366657Y147018D01*
X366837Y147056D01*
X367018Y147090D01*
X367200Y147119D01*
X367382Y147144D01*
X367565Y147164D01*
X367748Y147180D01*
X367932Y147191D01*
X368116Y147198D01*
X368300Y147200D01*
X368484Y147198D01*
X368668Y147191D01*
X368852Y147180D01*
X369035Y147164D01*
X369218Y147144D01*
X369400Y147119D01*
X369582Y147090D01*
X369763Y147056D01*
X369943Y147018D01*
X370122Y146975D01*
X370300Y146928D01*
X370477Y146877D01*
X370653Y146821D01*
X370827Y146762D01*
X370999Y146697D01*
X371170Y146629D01*
X371339Y146557D01*
X371507Y146480D01*
X371672Y146399D01*
X371835Y146314D01*
X371997Y146226D01*
X372156Y146133D01*
X372312Y146036D01*
X372467Y145936D01*
X372619Y145832D01*
X372768Y145724D01*
X372914Y145613D01*
X373058Y145498D01*
X373199Y145379D01*
X373337Y145257D01*
X373472Y145132D01*
X373603Y145003D01*
X373732Y144872D01*
X373857Y144737D01*
X373979Y144599D01*
X374098Y144458D01*
X374213Y144314D01*
X374324Y144168D01*
X374432Y144019D01*
X374536Y143867D01*
X374636Y143712D01*
X374733Y143556D01*
X374826Y143397D01*
X374914Y143235D01*
X374999Y143072D01*
X375080Y142907D01*
X375157Y142739D01*
X375229Y142570D01*
X375297Y142399D01*
X375362Y142227D01*
X375421Y142053D01*
X375477Y141877D01*
X375528Y141700D01*
X375575Y141522D01*
X375618Y141343D01*
X375656Y141163D01*
X375690Y140982D01*
X375719Y140800D01*
X375744Y140618D01*
X375764Y140435D01*
X375780Y140252D01*
X375791Y140068D01*
X375798Y139884D01*
X375800Y139700D01*
X375798Y139516D01*
X375791Y139332D01*
X375780Y139148D01*
X375764Y138965D01*
X375744Y138782D01*
X375719Y138600D01*
X375690Y138418D01*
X375656Y138237D01*
X375618Y138057D01*
X375575Y137878D01*
X375528Y137700D01*
X375477Y137523D01*
X375421Y137347D01*
X375362Y137173D01*
X375297Y137001D01*
X375229Y136830D01*
X375157Y136661D01*
X375080Y136493D01*
X374999Y136328D01*
X374914Y136165D01*
X374826Y136003D01*
X374733Y135844D01*
X374636Y135688D01*
X374536Y135533D01*
X374432Y135381D01*
X374324Y135232D01*
X374213Y135086D01*
X374098Y134942D01*
X373979Y134801D01*
X373857Y134663D01*
X373732Y134528D01*
X373603Y134397D01*
X373472Y134268D01*
X373337Y134143D01*
X373199Y134021D01*
X373058Y133902D01*
X372914Y133787D01*
X372768Y133676D01*
X372619Y133568D01*
X372467Y133464D01*
X372312Y133364D01*
X372156Y133267D01*
X371997Y133174D01*
X371835Y133086D01*
X371672Y133001D01*
X371507Y132920D01*
X371339Y132843D01*
X371170Y132771D01*
X370999Y132703D01*
X370827Y132638D01*
X370653Y132579D01*
X370477Y132523D01*
X370300Y132472D01*
X370122Y132425D01*
X369943Y132382D01*
X369763Y132344D01*
X369582Y132310D01*
X369400Y132281D01*
X369218Y132256D01*
X369035Y132236D01*
X368852Y132220D01*
X368668Y132209D01*
X368484Y132202D01*
X368300Y132200D01*
X368116Y132202D01*
X367932Y132209D01*
X367748Y132220D01*
X367565Y132236D01*
X367382Y132256D01*
X367200Y132281D01*
X367018Y132310D01*
X366837Y132344D01*
X366657Y132382D01*
X366478Y132425D01*
X366300Y132472D01*
X366123Y132523D01*
X365947Y132579D01*
X365773Y132638D01*
X365601Y132703D01*
X365430Y132771D01*
X365261Y132843D01*
X365093Y132920D01*
X364928Y133001D01*
X364765Y133086D01*
X364603Y133174D01*
X364444Y133267D01*
X364288Y133364D01*
X364133Y133464D01*
X363981Y133568D01*
X363832Y133676D01*
X363686Y133787D01*
X363542Y133902D01*
X363401Y134021D01*
X363263Y134143D01*
X363128Y134268D01*
X362997Y134397D01*
X362868Y134528D01*
X362743Y134663D01*
X362621Y134801D01*
X362502Y134942D01*
X362387Y135086D01*
X362276Y135232D01*
X362168Y135381D01*
X362064Y135533D01*
X361964Y135688D01*
X361867Y135844D01*
X361774Y136003D01*
X361686Y136165D01*
X361601Y136328D01*
X361520Y136493D01*
X361443Y136661D01*
X361371Y136830D01*
X361303Y137001D01*
X361238Y137173D01*
X361179Y137347D01*
X361123Y137523D01*
X361072Y137700D01*
X361025Y137878D01*
X360982Y138057D01*
X360944Y138237D01*
X360910Y138418D01*
X360881Y138600D01*
X360856Y138782D01*
X360836Y138965D01*
X360820Y139148D01*
X360809Y139332D01*
X360802Y139516D01*
X360800Y139700D01*
X259200Y38100D02*
X259202Y38284D01*
X259209Y38468D01*
X259220Y38652D01*
X259236Y38835D01*
X259256Y39018D01*
X259281Y39200D01*
X259310Y39382D01*
X259344Y39563D01*
X259382Y39743D01*
X259425Y39922D01*
X259472Y40100D01*
X259523Y40277D01*
X259579Y40453D01*
X259638Y40627D01*
X259703Y40799D01*
X259771Y40970D01*
X259843Y41139D01*
X259920Y41307D01*
X260001Y41472D01*
X260086Y41635D01*
X260174Y41797D01*
X260267Y41956D01*
X260364Y42112D01*
X260464Y42267D01*
X260568Y42419D01*
X260676Y42568D01*
X260787Y42714D01*
X260902Y42858D01*
X261021Y42999D01*
X261143Y43137D01*
X261268Y43272D01*
X261397Y43403D01*
X261528Y43532D01*
X261663Y43657D01*
X261801Y43779D01*
X261942Y43898D01*
X262086Y44013D01*
X262232Y44124D01*
X262381Y44232D01*
X262533Y44336D01*
X262688Y44436D01*
X262844Y44533D01*
X263003Y44626D01*
X263165Y44714D01*
X263328Y44799D01*
X263493Y44880D01*
X263661Y44957D01*
X263830Y45029D01*
X264001Y45097D01*
X264173Y45162D01*
X264347Y45221D01*
X264523Y45277D01*
X264700Y45328D01*
X264878Y45375D01*
X265057Y45418D01*
X265237Y45456D01*
X265418Y45490D01*
X265600Y45519D01*
X265782Y45544D01*
X265965Y45564D01*
X266148Y45580D01*
X266332Y45591D01*
X266516Y45598D01*
X266700Y45600D01*
X266884Y45598D01*
X267068Y45591D01*
X267252Y45580D01*
X267435Y45564D01*
X267618Y45544D01*
X267800Y45519D01*
X267982Y45490D01*
X268163Y45456D01*
X268343Y45418D01*
X268522Y45375D01*
X268700Y45328D01*
X268877Y45277D01*
X269053Y45221D01*
X269227Y45162D01*
X269399Y45097D01*
X269570Y45029D01*
X269739Y44957D01*
X269907Y44880D01*
X270072Y44799D01*
X270235Y44714D01*
X270397Y44626D01*
X270556Y44533D01*
X270712Y44436D01*
X270867Y44336D01*
X271019Y44232D01*
X271168Y44124D01*
X271314Y44013D01*
X271458Y43898D01*
X271599Y43779D01*
X271737Y43657D01*
X271872Y43532D01*
X272003Y43403D01*
X272132Y43272D01*
X272257Y43137D01*
X272379Y42999D01*
X272498Y42858D01*
X272613Y42714D01*
X272724Y42568D01*
X272832Y42419D01*
X272936Y42267D01*
X273036Y42112D01*
X273133Y41956D01*
X273226Y41797D01*
X273314Y41635D01*
X273399Y41472D01*
X273480Y41307D01*
X273557Y41139D01*
X273629Y40970D01*
X273697Y40799D01*
X273762Y40627D01*
X273821Y40453D01*
X273877Y40277D01*
X273928Y40100D01*
X273975Y39922D01*
X274018Y39743D01*
X274056Y39563D01*
X274090Y39382D01*
X274119Y39200D01*
X274144Y39018D01*
X274164Y38835D01*
X274180Y38652D01*
X274191Y38468D01*
X274198Y38284D01*
X274200Y38100D01*
X274198Y37916D01*
X274191Y37732D01*
X274180Y37548D01*
X274164Y37365D01*
X274144Y37182D01*
X274119Y37000D01*
X274090Y36818D01*
X274056Y36637D01*
X274018Y36457D01*
X273975Y36278D01*
X273928Y36100D01*
X273877Y35923D01*
X273821Y35747D01*
X273762Y35573D01*
X273697Y35401D01*
X273629Y35230D01*
X273557Y35061D01*
X273480Y34893D01*
X273399Y34728D01*
X273314Y34565D01*
X273226Y34403D01*
X273133Y34244D01*
X273036Y34088D01*
X272936Y33933D01*
X272832Y33781D01*
X272724Y33632D01*
X272613Y33486D01*
X272498Y33342D01*
X272379Y33201D01*
X272257Y33063D01*
X272132Y32928D01*
X272003Y32797D01*
X271872Y32668D01*
X271737Y32543D01*
X271599Y32421D01*
X271458Y32302D01*
X271314Y32187D01*
X271168Y32076D01*
X271019Y31968D01*
X270867Y31864D01*
X270712Y31764D01*
X270556Y31667D01*
X270397Y31574D01*
X270235Y31486D01*
X270072Y31401D01*
X269907Y31320D01*
X269739Y31243D01*
X269570Y31171D01*
X269399Y31103D01*
X269227Y31038D01*
X269053Y30979D01*
X268877Y30923D01*
X268700Y30872D01*
X268522Y30825D01*
X268343Y30782D01*
X268163Y30744D01*
X267982Y30710D01*
X267800Y30681D01*
X267618Y30656D01*
X267435Y30636D01*
X267252Y30620D01*
X267068Y30609D01*
X266884Y30602D01*
X266700Y30600D01*
X266516Y30602D01*
X266332Y30609D01*
X266148Y30620D01*
X265965Y30636D01*
X265782Y30656D01*
X265600Y30681D01*
X265418Y30710D01*
X265237Y30744D01*
X265057Y30782D01*
X264878Y30825D01*
X264700Y30872D01*
X264523Y30923D01*
X264347Y30979D01*
X264173Y31038D01*
X264001Y31103D01*
X263830Y31171D01*
X263661Y31243D01*
X263493Y31320D01*
X263328Y31401D01*
X263165Y31486D01*
X263003Y31574D01*
X262844Y31667D01*
X262688Y31764D01*
X262533Y31864D01*
X262381Y31968D01*
X262232Y32076D01*
X262086Y32187D01*
X261942Y32302D01*
X261801Y32421D01*
X261663Y32543D01*
X261528Y32668D01*
X261397Y32797D01*
X261268Y32928D01*
X261143Y33063D01*
X261021Y33201D01*
X260902Y33342D01*
X260787Y33486D01*
X260676Y33632D01*
X260568Y33781D01*
X260464Y33933D01*
X260364Y34088D01*
X260267Y34244D01*
X260174Y34403D01*
X260086Y34565D01*
X260001Y34728D01*
X259920Y34893D01*
X259843Y35061D01*
X259771Y35230D01*
X259703Y35401D01*
X259638Y35573D01*
X259579Y35747D01*
X259523Y35923D01*
X259472Y36100D01*
X259425Y36278D01*
X259382Y36457D01*
X259344Y36637D01*
X259310Y36818D01*
X259281Y37000D01*
X259256Y37182D01*
X259236Y37365D01*
X259220Y37548D01*
X259209Y37732D01*
X259202Y37916D01*
X259200Y38100D01*
X525900Y139700D02*
X525902Y139884D01*
X525909Y140068D01*
X525920Y140252D01*
X525936Y140435D01*
X525956Y140618D01*
X525981Y140800D01*
X526010Y140982D01*
X526044Y141163D01*
X526082Y141343D01*
X526125Y141522D01*
X526172Y141700D01*
X526223Y141877D01*
X526279Y142053D01*
X526338Y142227D01*
X526403Y142399D01*
X526471Y142570D01*
X526543Y142739D01*
X526620Y142907D01*
X526701Y143072D01*
X526786Y143235D01*
X526874Y143397D01*
X526967Y143556D01*
X527064Y143712D01*
X527164Y143867D01*
X527268Y144019D01*
X527376Y144168D01*
X527487Y144314D01*
X527602Y144458D01*
X527721Y144599D01*
X527843Y144737D01*
X527968Y144872D01*
X528097Y145003D01*
X528228Y145132D01*
X528363Y145257D01*
X528501Y145379D01*
X528642Y145498D01*
X528786Y145613D01*
X528932Y145724D01*
X529081Y145832D01*
X529233Y145936D01*
X529388Y146036D01*
X529544Y146133D01*
X529703Y146226D01*
X529865Y146314D01*
X530028Y146399D01*
X530193Y146480D01*
X530361Y146557D01*
X530530Y146629D01*
X530701Y146697D01*
X530873Y146762D01*
X531047Y146821D01*
X531223Y146877D01*
X531400Y146928D01*
X531578Y146975D01*
X531757Y147018D01*
X531937Y147056D01*
X532118Y147090D01*
X532300Y147119D01*
X532482Y147144D01*
X532665Y147164D01*
X532848Y147180D01*
X533032Y147191D01*
X533216Y147198D01*
X533400Y147200D01*
X533584Y147198D01*
X533768Y147191D01*
X533952Y147180D01*
X534135Y147164D01*
X534318Y147144D01*
X534500Y147119D01*
X534682Y147090D01*
X534863Y147056D01*
X535043Y147018D01*
X535222Y146975D01*
X535400Y146928D01*
X535577Y146877D01*
X535753Y146821D01*
X535927Y146762D01*
X536099Y146697D01*
X536270Y146629D01*
X536439Y146557D01*
X536607Y146480D01*
X536772Y146399D01*
X536935Y146314D01*
X537097Y146226D01*
X537256Y146133D01*
X537412Y146036D01*
X537567Y145936D01*
X537719Y145832D01*
X537868Y145724D01*
X538014Y145613D01*
X538158Y145498D01*
X538299Y145379D01*
X538437Y145257D01*
X538572Y145132D01*
X538703Y145003D01*
X538832Y144872D01*
X538957Y144737D01*
X539079Y144599D01*
X539198Y144458D01*
X539313Y144314D01*
X539424Y144168D01*
X539532Y144019D01*
X539636Y143867D01*
X539736Y143712D01*
X539833Y143556D01*
X539926Y143397D01*
X540014Y143235D01*
X540099Y143072D01*
X540180Y142907D01*
X540257Y142739D01*
X540329Y142570D01*
X540397Y142399D01*
X540462Y142227D01*
X540521Y142053D01*
X540577Y141877D01*
X540628Y141700D01*
X540675Y141522D01*
X540718Y141343D01*
X540756Y141163D01*
X540790Y140982D01*
X540819Y140800D01*
X540844Y140618D01*
X540864Y140435D01*
X540880Y140252D01*
X540891Y140068D01*
X540898Y139884D01*
X540900Y139700D01*
X540898Y139516D01*
X540891Y139332D01*
X540880Y139148D01*
X540864Y138965D01*
X540844Y138782D01*
X540819Y138600D01*
X540790Y138418D01*
X540756Y138237D01*
X540718Y138057D01*
X540675Y137878D01*
X540628Y137700D01*
X540577Y137523D01*
X540521Y137347D01*
X540462Y137173D01*
X540397Y137001D01*
X540329Y136830D01*
X540257Y136661D01*
X540180Y136493D01*
X540099Y136328D01*
X540014Y136165D01*
X539926Y136003D01*
X539833Y135844D01*
X539736Y135688D01*
X539636Y135533D01*
X539532Y135381D01*
X539424Y135232D01*
X539313Y135086D01*
X539198Y134942D01*
X539079Y134801D01*
X538957Y134663D01*
X538832Y134528D01*
X538703Y134397D01*
X538572Y134268D01*
X538437Y134143D01*
X538299Y134021D01*
X538158Y133902D01*
X538014Y133787D01*
X537868Y133676D01*
X537719Y133568D01*
X537567Y133464D01*
X537412Y133364D01*
X537256Y133267D01*
X537097Y133174D01*
X536935Y133086D01*
X536772Y133001D01*
X536607Y132920D01*
X536439Y132843D01*
X536270Y132771D01*
X536099Y132703D01*
X535927Y132638D01*
X535753Y132579D01*
X535577Y132523D01*
X535400Y132472D01*
X535222Y132425D01*
X535043Y132382D01*
X534863Y132344D01*
X534682Y132310D01*
X534500Y132281D01*
X534318Y132256D01*
X534135Y132236D01*
X533952Y132220D01*
X533768Y132209D01*
X533584Y132202D01*
X533400Y132200D01*
X533216Y132202D01*
X533032Y132209D01*
X532848Y132220D01*
X532665Y132236D01*
X532482Y132256D01*
X532300Y132281D01*
X532118Y132310D01*
X531937Y132344D01*
X531757Y132382D01*
X531578Y132425D01*
X531400Y132472D01*
X531223Y132523D01*
X531047Y132579D01*
X530873Y132638D01*
X530701Y132703D01*
X530530Y132771D01*
X530361Y132843D01*
X530193Y132920D01*
X530028Y133001D01*
X529865Y133086D01*
X529703Y133174D01*
X529544Y133267D01*
X529388Y133364D01*
X529233Y133464D01*
X529081Y133568D01*
X528932Y133676D01*
X528786Y133787D01*
X528642Y133902D01*
X528501Y134021D01*
X528363Y134143D01*
X528228Y134268D01*
X528097Y134397D01*
X527968Y134528D01*
X527843Y134663D01*
X527721Y134801D01*
X527602Y134942D01*
X527487Y135086D01*
X527376Y135232D01*
X527268Y135381D01*
X527164Y135533D01*
X527064Y135688D01*
X526967Y135844D01*
X526874Y136003D01*
X526786Y136165D01*
X526701Y136328D01*
X526620Y136493D01*
X526543Y136661D01*
X526471Y136830D01*
X526403Y137001D01*
X526338Y137173D01*
X526279Y137347D01*
X526223Y137523D01*
X526172Y137700D01*
X526125Y137878D01*
X526082Y138057D01*
X526044Y138237D01*
X526010Y138418D01*
X525981Y138600D01*
X525956Y138782D01*
X525936Y138965D01*
X525920Y139148D01*
X525909Y139332D01*
X525902Y139516D01*
X525900Y139700D01*
X424300Y38100D02*
X424302Y38284D01*
X424309Y38468D01*
X424320Y38652D01*
X424336Y38835D01*
X424356Y39018D01*
X424381Y39200D01*
X424410Y39382D01*
X424444Y39563D01*
X424482Y39743D01*
X424525Y39922D01*
X424572Y40100D01*
X424623Y40277D01*
X424679Y40453D01*
X424738Y40627D01*
X424803Y40799D01*
X424871Y40970D01*
X424943Y41139D01*
X425020Y41307D01*
X425101Y41472D01*
X425186Y41635D01*
X425274Y41797D01*
X425367Y41956D01*
X425464Y42112D01*
X425564Y42267D01*
X425668Y42419D01*
X425776Y42568D01*
X425887Y42714D01*
X426002Y42858D01*
X426121Y42999D01*
X426243Y43137D01*
X426368Y43272D01*
X426497Y43403D01*
X426628Y43532D01*
X426763Y43657D01*
X426901Y43779D01*
X427042Y43898D01*
X427186Y44013D01*
X427332Y44124D01*
X427481Y44232D01*
X427633Y44336D01*
X427788Y44436D01*
X427944Y44533D01*
X428103Y44626D01*
X428265Y44714D01*
X428428Y44799D01*
X428593Y44880D01*
X428761Y44957D01*
X428930Y45029D01*
X429101Y45097D01*
X429273Y45162D01*
X429447Y45221D01*
X429623Y45277D01*
X429800Y45328D01*
X429978Y45375D01*
X430157Y45418D01*
X430337Y45456D01*
X430518Y45490D01*
X430700Y45519D01*
X430882Y45544D01*
X431065Y45564D01*
X431248Y45580D01*
X431432Y45591D01*
X431616Y45598D01*
X431800Y45600D01*
X431984Y45598D01*
X432168Y45591D01*
X432352Y45580D01*
X432535Y45564D01*
X432718Y45544D01*
X432900Y45519D01*
X433082Y45490D01*
X433263Y45456D01*
X433443Y45418D01*
X433622Y45375D01*
X433800Y45328D01*
X433977Y45277D01*
X434153Y45221D01*
X434327Y45162D01*
X434499Y45097D01*
X434670Y45029D01*
X434839Y44957D01*
X435007Y44880D01*
X435172Y44799D01*
X435335Y44714D01*
X435497Y44626D01*
X435656Y44533D01*
X435812Y44436D01*
X435967Y44336D01*
X436119Y44232D01*
X436268Y44124D01*
X436414Y44013D01*
X436558Y43898D01*
X436699Y43779D01*
X436837Y43657D01*
X436972Y43532D01*
X437103Y43403D01*
X437232Y43272D01*
X437357Y43137D01*
X437479Y42999D01*
X437598Y42858D01*
X437713Y42714D01*
X437824Y42568D01*
X437932Y42419D01*
X438036Y42267D01*
X438136Y42112D01*
X438233Y41956D01*
X438326Y41797D01*
X438414Y41635D01*
X438499Y41472D01*
X438580Y41307D01*
X438657Y41139D01*
X438729Y40970D01*
X438797Y40799D01*
X438862Y40627D01*
X438921Y40453D01*
X438977Y40277D01*
X439028Y40100D01*
X439075Y39922D01*
X439118Y39743D01*
X439156Y39563D01*
X439190Y39382D01*
X439219Y39200D01*
X439244Y39018D01*
X439264Y38835D01*
X439280Y38652D01*
X439291Y38468D01*
X439298Y38284D01*
X439300Y38100D01*
X439298Y37916D01*
X439291Y37732D01*
X439280Y37548D01*
X439264Y37365D01*
X439244Y37182D01*
X439219Y37000D01*
X439190Y36818D01*
X439156Y36637D01*
X439118Y36457D01*
X439075Y36278D01*
X439028Y36100D01*
X438977Y35923D01*
X438921Y35747D01*
X438862Y35573D01*
X438797Y35401D01*
X438729Y35230D01*
X438657Y35061D01*
X438580Y34893D01*
X438499Y34728D01*
X438414Y34565D01*
X438326Y34403D01*
X438233Y34244D01*
X438136Y34088D01*
X438036Y33933D01*
X437932Y33781D01*
X437824Y33632D01*
X437713Y33486D01*
X437598Y33342D01*
X437479Y33201D01*
X437357Y33063D01*
X437232Y32928D01*
X437103Y32797D01*
X436972Y32668D01*
X436837Y32543D01*
X436699Y32421D01*
X436558Y32302D01*
X436414Y32187D01*
X436268Y32076D01*
X436119Y31968D01*
X435967Y31864D01*
X435812Y31764D01*
X435656Y31667D01*
X435497Y31574D01*
X435335Y31486D01*
X435172Y31401D01*
X435007Y31320D01*
X434839Y31243D01*
X434670Y31171D01*
X434499Y31103D01*
X434327Y31038D01*
X434153Y30979D01*
X433977Y30923D01*
X433800Y30872D01*
X433622Y30825D01*
X433443Y30782D01*
X433263Y30744D01*
X433082Y30710D01*
X432900Y30681D01*
X432718Y30656D01*
X432535Y30636D01*
X432352Y30620D01*
X432168Y30609D01*
X431984Y30602D01*
X431800Y30600D01*
X431616Y30602D01*
X431432Y30609D01*
X431248Y30620D01*
X431065Y30636D01*
X430882Y30656D01*
X430700Y30681D01*
X430518Y30710D01*
X430337Y30744D01*
X430157Y30782D01*
X429978Y30825D01*
X429800Y30872D01*
X429623Y30923D01*
X429447Y30979D01*
X429273Y31038D01*
X429101Y31103D01*
X428930Y31171D01*
X428761Y31243D01*
X428593Y31320D01*
X428428Y31401D01*
X428265Y31486D01*
X428103Y31574D01*
X427944Y31667D01*
X427788Y31764D01*
X427633Y31864D01*
X427481Y31968D01*
X427332Y32076D01*
X427186Y32187D01*
X427042Y32302D01*
X426901Y32421D01*
X426763Y32543D01*
X426628Y32668D01*
X426497Y32797D01*
X426368Y32928D01*
X426243Y33063D01*
X426121Y33201D01*
X426002Y33342D01*
X425887Y33486D01*
X425776Y33632D01*
X425668Y33781D01*
X425564Y33933D01*
X425464Y34088D01*
X425367Y34244D01*
X425274Y34403D01*
X425186Y34565D01*
X425101Y34728D01*
X425020Y34893D01*
X424943Y35061D01*
X424871Y35230D01*
X424803Y35401D01*
X424738Y35573D01*
X424679Y35747D01*
X424623Y35923D01*
X424572Y36100D01*
X424525Y36278D01*
X424482Y36457D01*
X424444Y36637D01*
X424410Y36818D01*
X424381Y37000D01*
X424356Y37182D01*
X424336Y37365D01*
X424320Y37548D01*
X424309Y37732D01*
X424302Y37916D01*
X424300Y38100D01*
X691000Y139700D02*
X691002Y139884D01*
X691009Y140068D01*
X691020Y140252D01*
X691036Y140435D01*
X691056Y140618D01*
X691081Y140800D01*
X691110Y140982D01*
X691144Y141163D01*
X691182Y141343D01*
X691225Y141522D01*
X691272Y141700D01*
X691323Y141877D01*
X691379Y142053D01*
X691438Y142227D01*
X691503Y142399D01*
X691571Y142570D01*
X691643Y142739D01*
X691720Y142907D01*
X691801Y143072D01*
X691886Y143235D01*
X691974Y143397D01*
X692067Y143556D01*
X692164Y143712D01*
X692264Y143867D01*
X692368Y144019D01*
X692476Y144168D01*
X692587Y144314D01*
X692702Y144458D01*
X692821Y144599D01*
X692943Y144737D01*
X693068Y144872D01*
X693197Y145003D01*
X693328Y145132D01*
X693463Y145257D01*
X693601Y145379D01*
X693742Y145498D01*
X693886Y145613D01*
X694032Y145724D01*
X694181Y145832D01*
X694333Y145936D01*
X694488Y146036D01*
X694644Y146133D01*
X694803Y146226D01*
X694965Y146314D01*
X695128Y146399D01*
X695293Y146480D01*
X695461Y146557D01*
X695630Y146629D01*
X695801Y146697D01*
X695973Y146762D01*
X696147Y146821D01*
X696323Y146877D01*
X696500Y146928D01*
X696678Y146975D01*
X696857Y147018D01*
X697037Y147056D01*
X697218Y147090D01*
X697400Y147119D01*
X697582Y147144D01*
X697765Y147164D01*
X697948Y147180D01*
X698132Y147191D01*
X698316Y147198D01*
X698500Y147200D01*
X698684Y147198D01*
X698868Y147191D01*
X699052Y147180D01*
X699235Y147164D01*
X699418Y147144D01*
X699600Y147119D01*
X699782Y147090D01*
X699963Y147056D01*
X700143Y147018D01*
X700322Y146975D01*
X700500Y146928D01*
X700677Y146877D01*
X700853Y146821D01*
X701027Y146762D01*
X701199Y146697D01*
X701370Y146629D01*
X701539Y146557D01*
X701707Y146480D01*
X701872Y146399D01*
X702035Y146314D01*
X702197Y146226D01*
X702356Y146133D01*
X702512Y146036D01*
X702667Y145936D01*
X702819Y145832D01*
X702968Y145724D01*
X703114Y145613D01*
X703258Y145498D01*
X703399Y145379D01*
X703537Y145257D01*
X703672Y145132D01*
X703803Y145003D01*
X703932Y144872D01*
X704057Y144737D01*
X704179Y144599D01*
X704298Y144458D01*
X704413Y144314D01*
X704524Y144168D01*
X704632Y144019D01*
X704736Y143867D01*
X704836Y143712D01*
X704933Y143556D01*
X705026Y143397D01*
X705114Y143235D01*
X705199Y143072D01*
X705280Y142907D01*
X705357Y142739D01*
X705429Y142570D01*
X705497Y142399D01*
X705562Y142227D01*
X705621Y142053D01*
X705677Y141877D01*
X705728Y141700D01*
X705775Y141522D01*
X705818Y141343D01*
X705856Y141163D01*
X705890Y140982D01*
X705919Y140800D01*
X705944Y140618D01*
X705964Y140435D01*
X705980Y140252D01*
X705991Y140068D01*
X705998Y139884D01*
X706000Y139700D01*
X705998Y139516D01*
X705991Y139332D01*
X705980Y139148D01*
X705964Y138965D01*
X705944Y138782D01*
X705919Y138600D01*
X705890Y138418D01*
X705856Y138237D01*
X705818Y138057D01*
X705775Y137878D01*
X705728Y137700D01*
X705677Y137523D01*
X705621Y137347D01*
X705562Y137173D01*
X705497Y137001D01*
X705429Y136830D01*
X705357Y136661D01*
X705280Y136493D01*
X705199Y136328D01*
X705114Y136165D01*
X705026Y136003D01*
X704933Y135844D01*
X704836Y135688D01*
X704736Y135533D01*
X704632Y135381D01*
X704524Y135232D01*
X704413Y135086D01*
X704298Y134942D01*
X704179Y134801D01*
X704057Y134663D01*
X703932Y134528D01*
X703803Y134397D01*
X703672Y134268D01*
X703537Y134143D01*
X703399Y134021D01*
X703258Y133902D01*
X703114Y133787D01*
X702968Y133676D01*
X702819Y133568D01*
X702667Y133464D01*
X702512Y133364D01*
X702356Y133267D01*
X702197Y133174D01*
X702035Y133086D01*
X701872Y133001D01*
X701707Y132920D01*
X701539Y132843D01*
X701370Y132771D01*
X701199Y132703D01*
X701027Y132638D01*
X700853Y132579D01*
X700677Y132523D01*
X700500Y132472D01*
X700322Y132425D01*
X700143Y132382D01*
X699963Y132344D01*
X699782Y132310D01*
X699600Y132281D01*
X699418Y132256D01*
X699235Y132236D01*
X699052Y132220D01*
X698868Y132209D01*
X698684Y132202D01*
X698500Y132200D01*
X698316Y132202D01*
X698132Y132209D01*
X697948Y132220D01*
X697765Y132236D01*
X697582Y132256D01*
X697400Y132281D01*
X697218Y132310D01*
X697037Y132344D01*
X696857Y132382D01*
X696678Y132425D01*
X696500Y132472D01*
X696323Y132523D01*
X696147Y132579D01*
X695973Y132638D01*
X695801Y132703D01*
X695630Y132771D01*
X695461Y132843D01*
X695293Y132920D01*
X695128Y133001D01*
X694965Y133086D01*
X694803Y133174D01*
X694644Y133267D01*
X694488Y133364D01*
X694333Y133464D01*
X694181Y133568D01*
X694032Y133676D01*
X693886Y133787D01*
X693742Y133902D01*
X693601Y134021D01*
X693463Y134143D01*
X693328Y134268D01*
X693197Y134397D01*
X693068Y134528D01*
X692943Y134663D01*
X692821Y134801D01*
X692702Y134942D01*
X692587Y135086D01*
X692476Y135232D01*
X692368Y135381D01*
X692264Y135533D01*
X692164Y135688D01*
X692067Y135844D01*
X691974Y136003D01*
X691886Y136165D01*
X691801Y136328D01*
X691720Y136493D01*
X691643Y136661D01*
X691571Y136830D01*
X691503Y137001D01*
X691438Y137173D01*
X691379Y137347D01*
X691323Y137523D01*
X691272Y137700D01*
X691225Y137878D01*
X691182Y138057D01*
X691144Y138237D01*
X691110Y138418D01*
X691081Y138600D01*
X691056Y138782D01*
X691036Y138965D01*
X691020Y139148D01*
X691009Y139332D01*
X691002Y139516D01*
X691000Y139700D01*
X589400Y38100D02*
X589402Y38284D01*
X589409Y38468D01*
X589420Y38652D01*
X589436Y38835D01*
X589456Y39018D01*
X589481Y39200D01*
X589510Y39382D01*
X589544Y39563D01*
X589582Y39743D01*
X589625Y39922D01*
X589672Y40100D01*
X589723Y40277D01*
X589779Y40453D01*
X589838Y40627D01*
X589903Y40799D01*
X589971Y40970D01*
X590043Y41139D01*
X590120Y41307D01*
X590201Y41472D01*
X590286Y41635D01*
X590374Y41797D01*
X590467Y41956D01*
X590564Y42112D01*
X590664Y42267D01*
X590768Y42419D01*
X590876Y42568D01*
X590987Y42714D01*
X591102Y42858D01*
X591221Y42999D01*
X591343Y43137D01*
X591468Y43272D01*
X591597Y43403D01*
X591728Y43532D01*
X591863Y43657D01*
X592001Y43779D01*
X592142Y43898D01*
X592286Y44013D01*
X592432Y44124D01*
X592581Y44232D01*
X592733Y44336D01*
X592888Y44436D01*
X593044Y44533D01*
X593203Y44626D01*
X593365Y44714D01*
X593528Y44799D01*
X593693Y44880D01*
X593861Y44957D01*
X594030Y45029D01*
X594201Y45097D01*
X594373Y45162D01*
X594547Y45221D01*
X594723Y45277D01*
X594900Y45328D01*
X595078Y45375D01*
X595257Y45418D01*
X595437Y45456D01*
X595618Y45490D01*
X595800Y45519D01*
X595982Y45544D01*
X596165Y45564D01*
X596348Y45580D01*
X596532Y45591D01*
X596716Y45598D01*
X596900Y45600D01*
X597084Y45598D01*
X597268Y45591D01*
X597452Y45580D01*
X597635Y45564D01*
X597818Y45544D01*
X598000Y45519D01*
X598182Y45490D01*
X598363Y45456D01*
X598543Y45418D01*
X598722Y45375D01*
X598900Y45328D01*
X599077Y45277D01*
X599253Y45221D01*
X599427Y45162D01*
X599599Y45097D01*
X599770Y45029D01*
X599939Y44957D01*
X600107Y44880D01*
X600272Y44799D01*
X600435Y44714D01*
X600597Y44626D01*
X600756Y44533D01*
X600912Y44436D01*
X601067Y44336D01*
X601219Y44232D01*
X601368Y44124D01*
X601514Y44013D01*
X601658Y43898D01*
X601799Y43779D01*
X601937Y43657D01*
X602072Y43532D01*
X602203Y43403D01*
X602332Y43272D01*
X602457Y43137D01*
X602579Y42999D01*
X602698Y42858D01*
X602813Y42714D01*
X602924Y42568D01*
X603032Y42419D01*
X603136Y42267D01*
X603236Y42112D01*
X603333Y41956D01*
X603426Y41797D01*
X603514Y41635D01*
X603599Y41472D01*
X603680Y41307D01*
X603757Y41139D01*
X603829Y40970D01*
X603897Y40799D01*
X603962Y40627D01*
X604021Y40453D01*
X604077Y40277D01*
X604128Y40100D01*
X604175Y39922D01*
X604218Y39743D01*
X604256Y39563D01*
X604290Y39382D01*
X604319Y39200D01*
X604344Y39018D01*
X604364Y38835D01*
X604380Y38652D01*
X604391Y38468D01*
X604398Y38284D01*
X604400Y38100D01*
X604398Y37916D01*
X604391Y37732D01*
X604380Y37548D01*
X604364Y37365D01*
X604344Y37182D01*
X604319Y37000D01*
X604290Y36818D01*
X604256Y36637D01*
X604218Y36457D01*
X604175Y36278D01*
X604128Y36100D01*
X604077Y35923D01*
X604021Y35747D01*
X603962Y35573D01*
X603897Y35401D01*
X603829Y35230D01*
X603757Y35061D01*
X603680Y34893D01*
X603599Y34728D01*
X603514Y34565D01*
X603426Y34403D01*
X603333Y34244D01*
X603236Y34088D01*
X603136Y33933D01*
X603032Y33781D01*
X602924Y33632D01*
X602813Y33486D01*
X602698Y33342D01*
X602579Y33201D01*
X602457Y33063D01*
X602332Y32928D01*
X602203Y32797D01*
X602072Y32668D01*
X601937Y32543D01*
X601799Y32421D01*
X601658Y32302D01*
X601514Y32187D01*
X601368Y32076D01*
X601219Y31968D01*
X601067Y31864D01*
X600912Y31764D01*
X600756Y31667D01*
X600597Y31574D01*
X600435Y31486D01*
X600272Y31401D01*
X600107Y31320D01*
X599939Y31243D01*
X599770Y31171D01*
X599599Y31103D01*
X599427Y31038D01*
X599253Y30979D01*
X599077Y30923D01*
X598900Y30872D01*
X598722Y30825D01*
X598543Y30782D01*
X598363Y30744D01*
X598182Y30710D01*
X598000Y30681D01*
X597818Y30656D01*
X597635Y30636D01*
X597452Y30620D01*
X597268Y30609D01*
X597084Y30602D01*
X596900Y30600D01*
X596716Y30602D01*
X596532Y30609D01*
X596348Y30620D01*
X596165Y30636D01*
X595982Y30656D01*
X595800Y30681D01*
X595618Y30710D01*
X595437Y30744D01*
X595257Y30782D01*
X595078Y30825D01*
X594900Y30872D01*
X594723Y30923D01*
X594547Y30979D01*
X594373Y31038D01*
X594201Y31103D01*
X594030Y31171D01*
X593861Y31243D01*
X593693Y31320D01*
X593528Y31401D01*
X593365Y31486D01*
X593203Y31574D01*
X593044Y31667D01*
X592888Y31764D01*
X592733Y31864D01*
X592581Y31968D01*
X592432Y32076D01*
X592286Y32187D01*
X592142Y32302D01*
X592001Y32421D01*
X591863Y32543D01*
X591728Y32668D01*
X591597Y32797D01*
X591468Y32928D01*
X591343Y33063D01*
X591221Y33201D01*
X591102Y33342D01*
X590987Y33486D01*
X590876Y33632D01*
X590768Y33781D01*
X590664Y33933D01*
X590564Y34088D01*
X590467Y34244D01*
X590374Y34403D01*
X590286Y34565D01*
X590201Y34728D01*
X590120Y34893D01*
X590043Y35061D01*
X589971Y35230D01*
X589903Y35401D01*
X589838Y35573D01*
X589779Y35747D01*
X589723Y35923D01*
X589672Y36100D01*
X589625Y36278D01*
X589582Y36457D01*
X589544Y36637D01*
X589510Y36818D01*
X589481Y37000D01*
X589456Y37182D01*
X589436Y37365D01*
X589420Y37548D01*
X589409Y37732D01*
X589402Y37916D01*
X589400Y38100D01*
D11*
X0Y0D02*
X800100Y0D01*
X800100Y990600D01*
X0Y990600D01*
X0Y0D01*
X210700Y634632D02*
X210628Y633898D01*
X210484Y633175D01*
X210270Y632470D01*
X209988Y631789D01*
X209641Y631140D01*
X209231Y630527D01*
X208764Y629957D01*
X208243Y629436D01*
X207673Y628969D01*
X207060Y628559D01*
X206411Y628212D01*
X205730Y627930D01*
X205025Y627716D01*
X204302Y627572D01*
X203568Y627500D01*
X202832Y627500D01*
X202098Y627572D01*
X201375Y627716D01*
X200670Y627930D01*
X199989Y628212D01*
X199340Y628559D01*
X198727Y628969D01*
X198157Y629436D01*
X197636Y629957D01*
X197169Y630527D01*
X196759Y631140D01*
X196412Y631789D01*
X196130Y632470D01*
X195916Y633175D01*
X195772Y633898D01*
X195700Y634632D01*
X195700Y635368D01*
X195772Y636102D01*
X195916Y636825D01*
X196130Y637530D01*
X196412Y638211D01*
X196759Y638860D01*
X197169Y639473D01*
X197636Y640043D01*
X198157Y640564D01*
X198727Y641031D01*
X199340Y641441D01*
X199989Y641788D01*
X200670Y642070D01*
X201375Y642284D01*
X202098Y642428D01*
X202832Y642500D01*
X203568Y642500D01*
X204302Y642428D01*
X205025Y642284D01*
X205730Y642070D01*
X206411Y641788D01*
X207060Y641441D01*
X207673Y641031D01*
X208243Y640564D01*
X208764Y640043D01*
X209231Y639473D01*
X209641Y638860D01*
X209988Y638211D01*
X210270Y637530D01*
X210484Y636825D01*
X210628Y636102D01*
X210700Y635368D01*
X210700Y634632D01*
X109100Y533032D02*
X109028Y532298D01*
X108884Y531575D01*
X108670Y530870D01*
X108388Y530189D01*
X108041Y529540D01*
X107631Y528927D01*
X107164Y528357D01*
X106643Y527836D01*
X106073Y527369D01*
X105460Y526959D01*
X104811Y526612D01*
X104130Y526330D01*
X103425Y526116D01*
X102702Y525972D01*
X101968Y525900D01*
X101232Y525900D01*
X100498Y525972D01*
X99775Y526116D01*
X99070Y526330D01*
X98389Y526612D01*
X97740Y526959D01*
X97127Y527369D01*
X96557Y527836D01*
X96036Y528357D01*
X95569Y528927D01*
X95159Y529540D01*
X94812Y530189D01*
X94530Y530870D01*
X94316Y531575D01*
X94172Y532298D01*
X94100Y533032D01*
X94100Y533768D01*
X94172Y534502D01*
X94316Y535225D01*
X94530Y535930D01*
X94812Y536611D01*
X95159Y537260D01*
X95569Y537873D01*
X96036Y538443D01*
X96557Y538964D01*
X97127Y539431D01*
X97740Y539841D01*
X98389Y540188D01*
X99070Y540470D01*
X99775Y540684D01*
X100498Y540828D01*
X101232Y540900D01*
X101968Y540900D01*
X102702Y540828D01*
X103425Y540684D01*
X104130Y540470D01*
X104811Y540188D01*
X105460Y539841D01*
X106073Y539431D01*
X106643Y538964D01*
X107164Y538443D01*
X107631Y537873D01*
X108041Y537260D01*
X108388Y536611D01*
X108670Y535930D01*
X108884Y535225D01*
X109028Y534502D01*
X109100Y533768D01*
X109100Y533032D01*
X375800Y634632D02*
X375728Y633898D01*
X375584Y633175D01*
X375370Y632470D01*
X375088Y631789D01*
X374741Y631140D01*
X374331Y630527D01*
X373864Y629957D01*
X373343Y629436D01*
X372773Y628969D01*
X372160Y628559D01*
X371511Y628212D01*
X370830Y627930D01*
X370125Y627716D01*
X369402Y627572D01*
X368668Y627500D01*
X367932Y627500D01*
X367198Y627572D01*
X366475Y627716D01*
X365770Y627930D01*
X365089Y628212D01*
X364440Y628559D01*
X363827Y628969D01*
X363257Y629436D01*
X362736Y629957D01*
X362269Y630527D01*
X361859Y631140D01*
X361512Y631789D01*
X361230Y632470D01*
X361016Y633175D01*
X360872Y633898D01*
X360800Y634632D01*
X360800Y635368D01*
X360872Y636102D01*
X361016Y636825D01*
X361230Y637530D01*
X361512Y638211D01*
X361859Y638860D01*
X362269Y639473D01*
X362736Y640043D01*
X363257Y640564D01*
X363827Y641031D01*
X364440Y641441D01*
X365089Y641788D01*
X365770Y642070D01*
X366475Y642284D01*
X367198Y642428D01*
X367932Y642500D01*
X368668Y642500D01*
X369402Y642428D01*
X370125Y642284D01*
X370830Y642070D01*
X371511Y641788D01*
X372160Y641441D01*
X372773Y641031D01*
X373343Y640564D01*
X373864Y640043D01*
X374331Y639473D01*
X374741Y638860D01*
X375088Y638211D01*
X375370Y637530D01*
X375584Y636825D01*
X375728Y636102D01*
X375800Y635368D01*
X375800Y634632D01*
X274200Y533032D02*
X274128Y532298D01*
X273984Y531575D01*
X273770Y530870D01*
X273488Y530189D01*
X273141Y529540D01*
X272731Y528927D01*
X272264Y528357D01*
X271743Y527836D01*
X271173Y527369D01*
X270560Y526959D01*
X269911Y526612D01*
X269230Y526330D01*
X268525Y526116D01*
X267802Y525972D01*
X267068Y525900D01*
X266332Y525900D01*
X265598Y525972D01*
X264875Y526116D01*
X264170Y526330D01*
X263489Y526612D01*
X262840Y526959D01*
X262227Y527369D01*
X261657Y527836D01*
X261136Y528357D01*
X260669Y528927D01*
X260259Y529540D01*
X259912Y530189D01*
X259630Y530870D01*
X259416Y531575D01*
X259272Y532298D01*
X259200Y533032D01*
X259200Y533768D01*
X259272Y534502D01*
X259416Y535225D01*
X259630Y535930D01*
X259912Y536611D01*
X260259Y537260D01*
X260669Y537873D01*
X261136Y538443D01*
X261657Y538964D01*
X262227Y539431D01*
X262840Y539841D01*
X263489Y540188D01*
X264170Y540470D01*
X264875Y540684D01*
X265598Y540828D01*
X266332Y540900D01*
X267068Y540900D01*
X267802Y540828D01*
X268525Y540684D01*
X269230Y540470D01*
X269911Y540188D01*
X270560Y539841D01*
X271173Y539431D01*
X271743Y538964D01*
X272264Y538443D01*
X272731Y537873D01*
X273141Y537260D01*
X273488Y536611D01*
X273770Y535930D01*
X273984Y535225D01*
X274128Y534502D01*
X274200Y533768D01*
X274200Y533032D01*
X540900Y634632D02*
X540828Y633898D01*
X540684Y633175D01*
X540470Y632470D01*
X540188Y631789D01*
X539841Y631140D01*
X539431Y630527D01*
X538964Y629957D01*
X538443Y629436D01*
X537873Y628969D01*
X537260Y628559D01*
X536611Y628212D01*
X535930Y627930D01*
X535225Y627716D01*
X534502Y627572D01*
X533768Y627500D01*
X533032Y627500D01*
X532298Y627572D01*
X531575Y627716D01*
X530870Y627930D01*
X530189Y628212D01*
X529540Y628559D01*
X528927Y628969D01*
X528357Y629436D01*
X527836Y629957D01*
X527369Y630527D01*
X526959Y631140D01*
X526612Y631789D01*
X526330Y632470D01*
X526116Y633175D01*
X525972Y633898D01*
X525900Y634632D01*
X525900Y635368D01*
X525972Y636102D01*
X526116Y636825D01*
X526330Y637530D01*
X526612Y638211D01*
X526959Y638860D01*
X527369Y639473D01*
X527836Y640043D01*
X528357Y640564D01*
X528927Y641031D01*
X529540Y641441D01*
X530189Y641788D01*
X530870Y642070D01*
X531575Y642284D01*
X532298Y642428D01*
X533032Y642500D01*
X533768Y642500D01*
X534502Y642428D01*
X535225Y642284D01*
X535930Y642070D01*
X536611Y641788D01*
X537260Y641441D01*
X537873Y641031D01*
X538443Y640564D01*
X538964Y640043D01*
X539431Y639473D01*
X539841Y638860D01*
X540188Y638211D01*
X540470Y637530D01*
X540684Y636825D01*
X540828Y636102D01*
X540900Y635368D01*
X540900Y634632D01*
X439300Y533032D02*
X439228Y532298D01*
X439084Y531575D01*
X438870Y530870D01*
X438588Y530189D01*
X438241Y529540D01*
X437831Y528927D01*
X437364Y528357D01*
X436843Y527836D01*
X436273Y527369D01*
X435660Y526959D01*
X435011Y526612D01*
X434330Y526330D01*
X433625Y526116D01*
X432902Y525972D01*
X432168Y525900D01*
X431432Y525900D01*
X430698Y525972D01*
X429975Y526116D01*
X429270Y526330D01*
X428589Y526612D01*
X427940Y526959D01*
X427327Y527369D01*
X426757Y527836D01*
X426236Y528357D01*
X425769Y528927D01*
X425359Y529540D01*
X425012Y530189D01*
X424730Y530870D01*
X424516Y531575D01*
X424372Y532298D01*
X424300Y533032D01*
X424300Y533768D01*
X424372Y534502D01*
X424516Y535225D01*
X424730Y535930D01*
X425012Y536611D01*
X425359Y537260D01*
X425769Y537873D01*
X426236Y538443D01*
X426757Y538964D01*
X427327Y539431D01*
X427940Y539841D01*
X428589Y540188D01*
X429270Y540470D01*
X429975Y540684D01*
X430698Y540828D01*
X431432Y540900D01*
X432168Y540900D01*
X432902Y540828D01*
X433625Y540684D01*
X434330Y540470D01*
X435011Y540188D01*
X435660Y539841D01*
X436273Y539431D01*
X436843Y538964D01*
X437364Y538443D01*
X437831Y537873D01*
X438241Y537260D01*
X438588Y536611D01*
X438870Y535930D01*
X439084Y535225D01*
X439228Y534502D01*
X439300Y533768D01*
X439300Y533032D01*
X706000Y634632D02*
X705928Y633898D01*
X705784Y633175D01*
X705570Y632470D01*
X705288Y631789D01*
X704941Y631140D01*
X704531Y630527D01*
X704064Y629957D01*
X703543Y629436D01*
X702973Y628969D01*
X702360Y628559D01*
X701711Y628212D01*
X701030Y627930D01*
X700325Y627716D01*
X699602Y627572D01*
X698868Y627500D01*
X698132Y627500D01*
X697398Y627572D01*
X696675Y627716D01*
X695970Y627930D01*
X695289Y628212D01*
X694640Y628559D01*
X694027Y628969D01*
X693457Y629436D01*
X692936Y629957D01*
X692469Y630527D01*
X692059Y631140D01*
X691712Y631789D01*
X691430Y632470D01*
X691216Y633175D01*
X691072Y633898D01*
X691000Y634632D01*
X691000Y635368D01*
X691072Y636102D01*
X691216Y636825D01*
X691430Y637530D01*
X691712Y638211D01*
X692059Y638860D01*
X692469Y639473D01*
X692936Y640043D01*
X693457Y640564D01*
X694027Y641031D01*
X694640Y641441D01*
X695289Y641788D01*
X695970Y642070D01*
X696675Y642284D01*
X697398Y642428D01*
X698132Y642500D01*
X698868Y642500D01*
X699602Y642428D01*
X700325Y642284D01*
X701030Y642070D01*
X701711Y641788D01*
X702360Y641441D01*
X702973Y641031D01*
X703543Y640564D01*
X704064Y640043D01*
X704531Y639473D01*
X704941Y638860D01*
X705288Y638211D01*
X705570Y637530D01*
X705784Y636825D01*
X705928Y636102D01*
X706000Y635368D01*
X706000Y634632D01*
X604400Y533032D02*
X604328Y532298D01*
X604184Y531575D01*
X603970Y530870D01*
X603688Y530189D01*
X603341Y529540D01*
X602931Y528927D01*
X602464Y528357D01*
X601943Y527836D01*
X601373Y527369D01*
X600760Y526959D01*
X600111Y526612D01*
X599430Y526330D01*
X598725Y526116D01*
X598002Y525972D01*
X597268Y525900D01*
X596532Y525900D01*
X595798Y525972D01*
X595075Y526116D01*
X594370Y526330D01*
X593689Y526612D01*
X593040Y526959D01*
X592427Y527369D01*
X591857Y527836D01*
X591336Y528357D01*
X590869Y528927D01*
X590459Y529540D01*
X590112Y530189D01*
X589830Y530870D01*
X589616Y531575D01*
X589472Y532298D01*
X589400Y533032D01*
X589400Y533768D01*
X589472Y534502D01*
X589616Y535225D01*
X589830Y535930D01*
X590112Y536611D01*
X590459Y537260D01*
X590869Y537873D01*
X591336Y538443D01*
X591857Y538964D01*
X592427Y539431D01*
X593040Y539841D01*
X593689Y540188D01*
X594370Y540470D01*
X595075Y540684D01*
X595798Y540828D01*
X596532Y540900D01*
X597268Y540900D01*
X598002Y540828D01*
X598725Y540684D01*
X599430Y540470D01*
X600111Y540188D01*
X600760Y539841D01*
X601373Y539431D01*
X601943Y538964D01*
X602464Y538443D01*
X602931Y537873D01*
X603341Y537260D01*
X603688Y536611D01*
X603970Y535930D01*
X604184Y535225D01*
X604328Y534502D01*
X604400Y533768D01*
X604400Y533032D01*
X210700Y469532D02*
X210628Y468798D01*
X210484Y468075D01*
X210270Y467370D01*
X209988Y466689D01*
X209641Y466040D01*
X209231Y465427D01*
X208764Y464857D01*
X208243Y464336D01*
X207673Y463869D01*
X207060Y463459D01*
X206411Y463112D01*
X205730Y462830D01*
X205025Y462616D01*
X204302Y462472D01*
X203568Y462400D01*
X202832Y462400D01*
X202098Y462472D01*
X201375Y462616D01*
X200670Y462830D01*
X199989Y463112D01*
X199340Y463459D01*
X198727Y463869D01*
X198157Y464336D01*
X197636Y464857D01*
X197169Y465427D01*
X196759Y466040D01*
X196412Y466689D01*
X196130Y467370D01*
X195916Y468075D01*
X195772Y468798D01*
X195700Y469532D01*
X195700Y470268D01*
X195772Y471002D01*
X195916Y471725D01*
X196130Y472430D01*
X196412Y473111D01*
X196759Y473760D01*
X197169Y474373D01*
X197636Y474943D01*
X198157Y475464D01*
X198727Y475931D01*
X199340Y476341D01*
X199989Y476688D01*
X200670Y476970D01*
X201375Y477184D01*
X202098Y477328D01*
X202832Y477400D01*
X203568Y477400D01*
X204302Y477328D01*
X205025Y477184D01*
X205730Y476970D01*
X206411Y476688D01*
X207060Y476341D01*
X207673Y475931D01*
X208243Y475464D01*
X208764Y474943D01*
X209231Y474373D01*
X209641Y473760D01*
X209988Y473111D01*
X210270Y472430D01*
X210484Y471725D01*
X210628Y471002D01*
X210700Y470268D01*
X210700Y469532D01*
X109100Y367932D02*
X109028Y367198D01*
X108884Y366475D01*
X108670Y365770D01*
X108388Y365089D01*
X108041Y364440D01*
X107631Y363827D01*
X107164Y363257D01*
X106643Y362736D01*
X106073Y362269D01*
X105460Y361859D01*
X104811Y361512D01*
X104130Y361230D01*
X103425Y361016D01*
X102702Y360872D01*
X101968Y360800D01*
X101232Y360800D01*
X100498Y360872D01*
X99775Y361016D01*
X99070Y361230D01*
X98389Y361512D01*
X97740Y361859D01*
X97127Y362269D01*
X96557Y362736D01*
X96036Y363257D01*
X95569Y363827D01*
X95159Y364440D01*
X94812Y365089D01*
X94530Y365770D01*
X94316Y366475D01*
X94172Y367198D01*
X94100Y367932D01*
X94100Y368668D01*
X94172Y369402D01*
X94316Y370125D01*
X94530Y370830D01*
X94812Y371511D01*
X95159Y372160D01*
X95569Y372773D01*
X96036Y373343D01*
X96557Y373864D01*
X97127Y374331D01*
X97740Y374741D01*
X98389Y375088D01*
X99070Y375370D01*
X99775Y375584D01*
X100498Y375728D01*
X101232Y375800D01*
X101968Y375800D01*
X102702Y375728D01*
X103425Y375584D01*
X104130Y375370D01*
X104811Y375088D01*
X105460Y374741D01*
X106073Y374331D01*
X106643Y373864D01*
X107164Y373343D01*
X107631Y372773D01*
X108041Y372160D01*
X108388Y371511D01*
X108670Y370830D01*
X108884Y370125D01*
X109028Y369402D01*
X109100Y368668D01*
X109100Y367932D01*
X375800Y469532D02*
X375728Y468798D01*
X375584Y468075D01*
X375370Y467370D01*
X375088Y466689D01*
X374741Y466040D01*
X374331Y465427D01*
X373864Y464857D01*
X373343Y464336D01*
X372773Y463869D01*
X372160Y463459D01*
X371511Y463112D01*
X370830Y462830D01*
X370125Y462616D01*
X369402Y462472D01*
X368668Y462400D01*
X367932Y462400D01*
X367198Y462472D01*
X366475Y462616D01*
X365770Y462830D01*
X365089Y463112D01*
X364440Y463459D01*
X363827Y463869D01*
X363257Y464336D01*
X362736Y464857D01*
X362269Y465427D01*
X361859Y466040D01*
X361512Y466689D01*
X361230Y467370D01*
X361016Y468075D01*
X360872Y468798D01*
X360800Y469532D01*
X360800Y470268D01*
X360872Y471002D01*
X361016Y471725D01*
X361230Y472430D01*
X361512Y473111D01*
X361859Y473760D01*
X362269Y474373D01*
X362736Y474943D01*
X363257Y475464D01*
X363827Y475931D01*
X364440Y476341D01*
X365089Y476688D01*
X365770Y476970D01*
X366475Y477184D01*
X367198Y477328D01*
X367932Y477400D01*
X368668Y477400D01*
X369402Y477328D01*
X370125Y477184D01*
X370830Y476970D01*
X371511Y476688D01*
X372160Y476341D01*
X372773Y475931D01*
X373343Y475464D01*
X373864Y474943D01*
X374331Y474373D01*
X374741Y473760D01*
X375088Y473111D01*
X375370Y472430D01*
X375584Y471725D01*
X375728Y471002D01*
X375800Y470268D01*
X375800Y469532D01*
X274200Y367932D02*
X274128Y367198D01*
X273984Y366475D01*
X273770Y365770D01*
X273488Y365089D01*
X273141Y364440D01*
X272731Y363827D01*
X272264Y363257D01*
X271743Y362736D01*
X271173Y362269D01*
X270560Y361859D01*
X269911Y361512D01*
X269230Y361230D01*
X268525Y361016D01*
X267802Y360872D01*
X267068Y360800D01*
X266332Y360800D01*
X265598Y360872D01*
X264875Y361016D01*
X264170Y361230D01*
X263489Y361512D01*
X262840Y361859D01*
X262227Y362269D01*
X261657Y362736D01*
X261136Y363257D01*
X260669Y363827D01*
X260259Y364440D01*
X259912Y365089D01*
X259630Y365770D01*
X259416Y366475D01*
X259272Y367198D01*
X259200Y367932D01*
X259200Y368668D01*
X259272Y369402D01*
X259416Y370125D01*
X259630Y370830D01*
X259912Y371511D01*
X260259Y372160D01*
X260669Y372773D01*
X261136Y373343D01*
X261657Y373864D01*
X262227Y374331D01*
X262840Y374741D01*
X263489Y375088D01*
X264170Y375370D01*
X264875Y375584D01*
X265598Y375728D01*
X266332Y375800D01*
X267068Y375800D01*
X267802Y375728D01*
X268525Y375584D01*
X269230Y375370D01*
X269911Y375088D01*
X270560Y374741D01*
X271173Y374331D01*
X271743Y373864D01*
X272264Y373343D01*
X272731Y372773D01*
X273141Y372160D01*
X273488Y371511D01*
X273770Y370830D01*
X273984Y370125D01*
X274128Y369402D01*
X274200Y368668D01*
X274200Y367932D01*
X540900Y469532D02*
X540828Y468798D01*
X540684Y468075D01*
X540470Y467370D01*
X540188Y466689D01*
X539841Y466040D01*
X539431Y465427D01*
X538964Y464857D01*
X538443Y464336D01*
X537873Y463869D01*
X537260Y463459D01*
X536611Y463112D01*
X535930Y462830D01*
X535225Y462616D01*
X534502Y462472D01*
X533768Y462400D01*
X533032Y462400D01*
X532298Y462472D01*
X531575Y462616D01*
X530870Y462830D01*
X530189Y463112D01*
X529540Y463459D01*
X528927Y463869D01*
X528357Y464336D01*
X527836Y464857D01*
X527369Y465427D01*
X526959Y466040D01*
X526612Y466689D01*
X526330Y467370D01*
X526116Y468075D01*
X525972Y468798D01*
X525900Y469532D01*
X525900Y470268D01*
X525972Y471002D01*
X526116Y471725D01*
X526330Y472430D01*
X526612Y473111D01*
X526959Y473760D01*
X527369Y474373D01*
X527836Y474943D01*
X528357Y475464D01*
X528927Y475931D01*
X529540Y476341D01*
X530189Y476688D01*
X530870Y476970D01*
X531575Y477184D01*
X532298Y477328D01*
X533032Y477400D01*
X533768Y477400D01*
X534502Y477328D01*
X535225Y477184D01*
X535930Y476970D01*
X536611Y476688D01*
X537260Y476341D01*
X537873Y475931D01*
X538443Y475464D01*
X538964Y474943D01*
X539431Y474373D01*
X539841Y473760D01*
X540188Y473111D01*
X540470Y472430D01*
X540684Y471725D01*
X540828Y471002D01*
X540900Y470268D01*
X540900Y469532D01*
X439300Y367932D02*
X439228Y367198D01*
X439084Y366475D01*
X438870Y365770D01*
X438588Y365089D01*
X438241Y364440D01*
X437831Y363827D01*
X437364Y363257D01*
X436843Y362736D01*
X436273Y362269D01*
X435660Y361859D01*
X435011Y361512D01*
X434330Y361230D01*
X433625Y361016D01*
X432902Y360872D01*
X432168Y360800D01*
X431432Y360800D01*
X430698Y360872D01*
X429975Y361016D01*
X429270Y361230D01*
X428589Y361512D01*
X427940Y361859D01*
X427327Y362269D01*
X426757Y362736D01*
X426236Y363257D01*
X425769Y363827D01*
X425359Y364440D01*
X425012Y365089D01*
X424730Y365770D01*
X424516Y366475D01*
X424372Y367198D01*
X424300Y367932D01*
X424300Y368668D01*
X424372Y369402D01*
X424516Y370125D01*
X424730Y370830D01*
X425012Y371511D01*
X425359Y372160D01*
X425769Y372773D01*
X426236Y373343D01*
X426757Y373864D01*
X427327Y374331D01*
X427940Y374741D01*
X428589Y375088D01*
X429270Y375370D01*
X429975Y375584D01*
X430698Y375728D01*
X431432Y375800D01*
X432168Y375800D01*
X432902Y375728D01*
X433625Y375584D01*
X434330Y375370D01*
X435011Y375088D01*
X435660Y374741D01*
X436273Y374331D01*
X436843Y373864D01*
X437364Y373343D01*
X437831Y372773D01*
X438241Y372160D01*
X438588Y371511D01*
X438870Y370830D01*
X439084Y370125D01*
X439228Y369402D01*
X439300Y368668D01*
X439300Y367932D01*
X706000Y469532D02*
X705928Y468798D01*
X705784Y468075D01*
X705570Y467370D01*
X705288Y466689D01*
X704941Y466040D01*
X704531Y465427D01*
X704064Y464857D01*
X703543Y464336D01*
X702973Y463869D01*
X702360Y463459D01*
X701711Y463112D01*
X701030Y462830D01*
X700325Y462616D01*
X699602Y462472D01*
X698868Y462400D01*
X698132Y462400D01*
X697398Y462472D01*
X696675Y462616D01*
X695970Y462830D01*
X695289Y463112D01*
X694640Y463459D01*
X694027Y463869D01*
X693457Y464336D01*
X692936Y464857D01*
X692469Y465427D01*
X692059Y466040D01*
X691712Y466689D01*
X691430Y467370D01*
X691216Y468075D01*
X691072Y468798D01*
X691000Y469532D01*
X691000Y470268D01*
X691072Y471002D01*
X691216Y471725D01*
X691430Y472430D01*
X691712Y473111D01*
X692059Y473760D01*
X692469Y474373D01*
X692936Y474943D01*
X693457Y475464D01*
X694027Y475931D01*
X694640Y476341D01*
X695289Y476688D01*
X695970Y476970D01*
X696675Y477184D01*
X697398Y477328D01*
X698132Y477400D01*
X698868Y477400D01*
X699602Y477328D01*
X700325Y477184D01*
X701030Y476970D01*
X701711Y476688D01*
X702360Y476341D01*
X702973Y475931D01*
X703543Y475464D01*
X704064Y474943D01*
X704531Y474373D01*
X704941Y473760D01*
X705288Y473111D01*
X705570Y472430D01*
X705784Y471725D01*
X705928Y471002D01*
X706000Y470268D01*
X706000Y469532D01*
X604400Y367932D02*
X604328Y367198D01*
X604184Y366475D01*
X603970Y365770D01*
X603688Y365089D01*
X603341Y364440D01*
X602931Y363827D01*
X602464Y363257D01*
X601943Y362736D01*
X601373Y362269D01*
X600760Y361859D01*
X600111Y361512D01*
X599430Y361230D01*
X598725Y361016D01*
X598002Y360872D01*
X597268Y360800D01*
X596532Y360800D01*
X595798Y360872D01*
X595075Y361016D01*
X594370Y361230D01*
X593689Y361512D01*
X593040Y361859D01*
X592427Y362269D01*
X591857Y362736D01*
X591336Y363257D01*
X590869Y363827D01*
X590459Y364440D01*
X590112Y365089D01*
X589830Y365770D01*
X589616Y366475D01*
X589472Y367198D01*
X589400Y367932D01*
X589400Y368668D01*
X589472Y369402D01*
X589616Y370125D01*
X589830Y370830D01*
X590112Y371511D01*
X590459Y372160D01*
X590869Y372773D01*
X591336Y373343D01*
X591857Y373864D01*
X592427Y374331D01*
X593040Y374741D01*
X593689Y375088D01*
X594370Y375370D01*
X595075Y375584D01*
X595798Y375728D01*
X596532Y375800D01*
X597268Y375800D01*
X598002Y375728D01*
X598725Y375584D01*
X599430Y375370D01*
X600111Y375088D01*
X600760Y374741D01*
X601373Y374331D01*
X601943Y373864D01*
X602464Y373343D01*
X602931Y372773D01*
X603341Y372160D01*
X603688Y371511D01*
X603970Y370830D01*
X604184Y370125D01*
X604328Y369402D01*
X604400Y368668D01*
X604400Y367932D01*
X210700Y304432D02*
X210628Y303698D01*
X210484Y302975D01*
X210270Y302270D01*
X209988Y301589D01*
X209641Y300940D01*
X209231Y300327D01*
X208764Y299757D01*
X208243Y299236D01*
X207673Y298769D01*
X207060Y298359D01*
X206411Y298012D01*
X205730Y297730D01*
X205025Y297516D01*
X204302Y297372D01*
X203568Y297300D01*
X202832Y297300D01*
X202098Y297372D01*
X201375Y297516D01*
X200670Y297730D01*
X199989Y298012D01*
X199340Y298359D01*
X198727Y298769D01*
X198157Y299236D01*
X197636Y299757D01*
X197169Y300327D01*
X196759Y300940D01*
X196412Y301589D01*
X196130Y302270D01*
X195916Y302975D01*
X195772Y303698D01*
X195700Y304432D01*
X195700Y305168D01*
X195772Y305902D01*
X195916Y306625D01*
X196130Y307330D01*
X196412Y308011D01*
X196759Y308660D01*
X197169Y309273D01*
X197636Y309843D01*
X198157Y310364D01*
X198727Y310831D01*
X199340Y311241D01*
X199989Y311588D01*
X200670Y311870D01*
X201375Y312084D01*
X202098Y312228D01*
X202832Y312300D01*
X203568Y312300D01*
X204302Y312228D01*
X205025Y312084D01*
X205730Y311870D01*
X206411Y311588D01*
X207060Y311241D01*
X207673Y310831D01*
X208243Y310364D01*
X208764Y309843D01*
X209231Y309273D01*
X209641Y308660D01*
X209988Y308011D01*
X210270Y307330D01*
X210484Y306625D01*
X210628Y305902D01*
X210700Y305168D01*
X210700Y304432D01*
X109100Y202832D02*
X109028Y202098D01*
X108884Y201375D01*
X108670Y200670D01*
X108388Y199989D01*
X108041Y199340D01*
X107631Y198727D01*
X107164Y198157D01*
X106643Y197636D01*
X106073Y197169D01*
X105460Y196759D01*
X104811Y196412D01*
X104130Y196130D01*
X103425Y195916D01*
X102702Y195772D01*
X101968Y195700D01*
X101232Y195700D01*
X100498Y195772D01*
X99775Y195916D01*
X99070Y196130D01*
X98389Y196412D01*
X97740Y196759D01*
X97127Y197169D01*
X96557Y197636D01*
X96036Y198157D01*
X95569Y198727D01*
X95159Y199340D01*
X94812Y199989D01*
X94530Y200670D01*
X94316Y201375D01*
X94172Y202098D01*
X94100Y202832D01*
X94100Y203568D01*
X94172Y204302D01*
X94316Y205025D01*
X94530Y205730D01*
X94812Y206411D01*
X95159Y207060D01*
X95569Y207673D01*
X96036Y208243D01*
X96557Y208764D01*
X97127Y209231D01*
X97740Y209641D01*
X98389Y209988D01*
X99070Y210270D01*
X99775Y210484D01*
X100498Y210628D01*
X101232Y210700D01*
X101968Y210700D01*
X102702Y210628D01*
X103425Y210484D01*
X104130Y210270D01*
X104811Y209988D01*
X105460Y209641D01*
X106073Y209231D01*
X106643Y208764D01*
X107164Y208243D01*
X107631Y207673D01*
X108041Y207060D01*
X108388Y206411D01*
X108670Y205730D01*
X108884Y205025D01*
X109028Y204302D01*
X109100Y203568D01*
X109100Y202832D01*
X375800Y304432D02*
X375728Y303698D01*
X375584Y302975D01*
X375370Y302270D01*
X375088Y301589D01*
X374741Y300940D01*
X374331Y300327D01*
X373864Y299757D01*
X373343Y299236D01*
X372773Y298769D01*
X372160Y298359D01*
X371511Y298012D01*
X370830Y297730D01*
X370125Y297516D01*
X369402Y297372D01*
X368668Y297300D01*
X367932Y297300D01*
X367198Y297372D01*
X366475Y297516D01*
X365770Y297730D01*
X365089Y298012D01*
X364440Y298359D01*
X363827Y298769D01*
X363257Y299236D01*
X362736Y299757D01*
X362269Y300327D01*
X361859Y300940D01*
X361512Y301589D01*
X361230Y302270D01*
X361016Y302975D01*
X360872Y303698D01*
X360800Y304432D01*
X360800Y305168D01*
X360872Y305902D01*
X361016Y306625D01*
X361230Y307330D01*
X361512Y308011D01*
X361859Y308660D01*
X362269Y309273D01*
X362736Y309843D01*
X363257Y310364D01*
X363827Y310831D01*
X364440Y311241D01*
X365089Y311588D01*
X365770Y311870D01*
X366475Y312084D01*
X367198Y312228D01*
X367932Y312300D01*
X368668Y312300D01*
X369402Y312228D01*
X370125Y312084D01*
X370830Y311870D01*
X371511Y311588D01*
X372160Y311241D01*
X372773Y310831D01*
X373343Y310364D01*
X373864Y309843D01*
X374331Y309273D01*
X374741Y308660D01*
X375088Y308011D01*
X375370Y307330D01*
X375584Y306625D01*
X375728Y305902D01*
X375800Y305168D01*
X375800Y304432D01*
X274200Y202832D02*
X274128Y202098D01*
X273984Y201375D01*
X273770Y200670D01*
X273488Y199989D01*
X273141Y199340D01*
X272731Y198727D01*
X272264Y198157D01*
X271743Y197636D01*
X271173Y197169D01*
X270560Y196759D01*
X269911Y196412D01*
X269230Y196130D01*
X268525Y195916D01*
X267802Y195772D01*
X267068Y195700D01*
X266332Y195700D01*
X265598Y195772D01*
X264875Y195916D01*
X264170Y196130D01*
X263489Y196412D01*
X262840Y196759D01*
X262227Y197169D01*
X261657Y197636D01*
X261136Y198157D01*
X260669Y198727D01*
X260259Y199340D01*
X259912Y199989D01*
X259630Y200670D01*
X259416Y201375D01*
X259272Y202098D01*
X259200Y202832D01*
X259200Y203568D01*
X259272Y204302D01*
X259416Y205025D01*
X259630Y205730D01*
X259912Y206411D01*
X260259Y207060D01*
X260669Y207673D01*
X261136Y208243D01*
X261657Y208764D01*
X262227Y209231D01*
X262840Y209641D01*
X263489Y209988D01*
X264170Y210270D01*
X264875Y210484D01*
X265598Y210628D01*
X266332Y210700D01*
X267068Y210700D01*
X267802Y210628D01*
X268525Y210484D01*
X269230Y210270D01*
X269911Y209988D01*
X270560Y209641D01*
X271173Y209231D01*
X271743Y208764D01*
X272264Y208243D01*
X272731Y207673D01*
X273141Y207060D01*
X273488Y206411D01*
X273770Y205730D01*
X273984Y205025D01*
X274128Y204302D01*
X274200Y203568D01*
X274200Y202832D01*
X540900Y304432D02*
X540828Y303698D01*
X540684Y302975D01*
X540470Y302270D01*
X540188Y301589D01*
X539841Y300940D01*
X539431Y300327D01*
X538964Y299757D01*
X538443Y299236D01*
X537873Y298769D01*
X537260Y298359D01*
X536611Y298012D01*
X535930Y297730D01*
X535225Y297516D01*
X534502Y297372D01*
X533768Y297300D01*
X533032Y297300D01*
X532298Y297372D01*
X531575Y297516D01*
X530870Y297730D01*
X530189Y298012D01*
X529540Y298359D01*
X528927Y298769D01*
X528357Y299236D01*
X527836Y299757D01*
X527369Y300327D01*
X526959Y300940D01*
X526612Y301589D01*
X526330Y302270D01*
X526116Y302975D01*
X525972Y303698D01*
X525900Y304432D01*
X525900Y305168D01*
X525972Y305902D01*
X526116Y306625D01*
X526330Y307330D01*
X526612Y308011D01*
X526959Y308660D01*
X527369Y309273D01*
X527836Y309843D01*
X528357Y310364D01*
X528927Y310831D01*
X529540Y311241D01*
X530189Y311588D01*
X530870Y311870D01*
X531575Y312084D01*
X532298Y312228D01*
X533032Y312300D01*
X533768Y312300D01*
X534502Y312228D01*
X535225Y312084D01*
X535930Y311870D01*
X536611Y311588D01*
X537260Y311241D01*
X537873Y310831D01*
X538443Y310364D01*
X538964Y309843D01*
X539431Y309273D01*
X539841Y308660D01*
X540188Y308011D01*
X540470Y307330D01*
X540684Y306625D01*
X540828Y305902D01*
X540900Y305168D01*
X540900Y304432D01*
X439300Y202832D02*
X439228Y202098D01*
X439084Y201375D01*
X438870Y200670D01*
X438588Y199989D01*
X438241Y199340D01*
X437831Y198727D01*
X437364Y198157D01*
X436843Y197636D01*
X436273Y197169D01*
X435660Y196759D01*
X435011Y196412D01*
X434330Y196130D01*
X433625Y195916D01*
X432902Y195772D01*
X432168Y195700D01*
X431432Y195700D01*
X430698Y195772D01*
X429975Y195916D01*
X429270Y196130D01*
X428589Y196412D01*
X427940Y196759D01*
X427327Y197169D01*
X426757Y197636D01*
X426236Y198157D01*
X425769Y198727D01*
X425359Y199340D01*
X425012Y199989D01*
X424730Y200670D01*
X424516Y201375D01*
X424372Y202098D01*
X424300Y202832D01*
X424300Y203568D01*
X424372Y204302D01*
X424516Y205025D01*
X424730Y205730D01*
X425012Y206411D01*
X425359Y207060D01*
X425769Y207673D01*
X426236Y208243D01*
X426757Y208764D01*
X427327Y209231D01*
X427940Y209641D01*
X428589Y209988D01*
X429270Y210270D01*
X429975Y210484D01*
X430698Y210628D01*
X431432Y210700D01*
X432168Y210700D01*
X432902Y210628D01*
X433625Y210484D01*
X434330Y210270D01*
X435011Y209988D01*
X435660Y209641D01*
X436273Y209231D01*
X436843Y208764D01*
X437364Y208243D01*
X437831Y207673D01*
X438241Y207060D01*
X438588Y206411D01*
X438870Y205730D01*
X439084Y205025D01*
X439228Y204302D01*
X439300Y203568D01*
X439300Y202832D01*
X706000Y304432D02*
X705928Y303698D01*
X705784Y302975D01*
X705570Y302270D01*
X705288Y301589D01*
X704941Y300940D01*
X704531Y300327D01*
X704064Y299757D01*
X703543Y299236D01*
X702973Y298769D01*
X702360Y298359D01*
X701711Y298012D01*
X701030Y297730D01*
X700325Y297516D01*
X699602Y297372D01*
X698868Y297300D01*
X698132Y297300D01*
X697398Y297372D01*
X696675Y297516D01*
X695970Y297730D01*
X695289Y298012D01*
X694640Y298359D01*
X694027Y298769D01*
X693457Y299236D01*
X692936Y299757D01*
X692469Y300327D01*
X692059Y300940D01*
X691712Y301589D01*
X691430Y302270D01*
X691216Y302975D01*
X691072Y303698D01*
X691000Y304432D01*
X691000Y305168D01*
X691072Y305902D01*
X691216Y306625D01*
X691430Y307330D01*
X691712Y308011D01*
X692059Y308660D01*
X692469Y309273D01*
X692936Y309843D01*
X693457Y310364D01*
X694027Y310831D01*
X694640Y311241D01*
X695289Y311588D01*
X695970Y311870D01*
X696675Y312084D01*
X697398Y312228D01*
X698132Y312300D01*
X698868Y312300D01*
X699602Y312228D01*
X700325Y312084D01*
X701030Y311870D01*
X701711Y311588D01*
X702360Y311241D01*
X702973Y310831D01*
X703543Y310364D01*
X704064Y309843D01*
X704531Y309273D01*
X704941Y308660D01*
X705288Y308011D01*
X705570Y307330D01*
X705784Y306625D01*
X705928Y305902D01*
X706000Y305168D01*
X706000Y304432D01*
X604400Y202832D02*
X604328Y202098D01*
X604184Y201375D01*
X603970Y200670D01*
X603688Y199989D01*
X603341Y199340D01*
X602931Y198727D01*
X602464Y198157D01*
X601943Y197636D01*
X601373Y197169D01*
X600760Y196759D01*
X600111Y196412D01*
X599430Y196130D01*
X598725Y195916D01*
X598002Y195772D01*
X597268Y195700D01*
X596532Y195700D01*
X595798Y195772D01*
X595075Y195916D01*
X594370Y196130D01*
X593689Y196412D01*
X593040Y196759D01*
X592427Y197169D01*
X591857Y197636D01*
X591336Y198157D01*
X590869Y198727D01*
X590459Y199340D01*
X590112Y199989D01*
X589830Y200670D01*
X589616Y201375D01*
X589472Y202098D01*
X589400Y202832D01*
X589400Y203568D01*
X589472Y204302D01*
X589616Y205025D01*
X589830Y205730D01*
X590112Y206411D01*
X590459Y207060D01*
X590869Y207673D01*
X591336Y208243D01*
X591857Y208764D01*
X592427Y209231D01*
X593040Y209641D01*
X593689Y209988D01*
X594370Y210270D01*
X595075Y210484D01*
X595798Y210628D01*
X596532Y210700D01*
X597268Y210700D01*
X598002Y210628D01*
X598725Y210484D01*
X599430Y210270D01*
X600111Y209988D01*
X600760Y209641D01*
X601373Y209231D01*
X601943Y208764D01*
X602464Y208243D01*
X602931Y207673D01*
X603341Y207060D01*
X603688Y206411D01*
X603970Y205730D01*
X604184Y205025D01*
X604328Y204302D01*
X604400Y203568D01*
X604400Y202832D01*
X210700Y139332D02*
X210628Y138598D01*
X210484Y137875D01*
X210270Y137170D01*
X209988Y136489D01*
X209641Y135840D01*
X209231Y135227D01*
X208764Y134657D01*
X208243Y134136D01*
X207673Y133669D01*
X207060Y133259D01*
X206411Y132912D01*
X205730Y132630D01*
X205025Y132416D01*
X204302Y132272D01*
X203568Y132200D01*
X202832Y132200D01*
X202098Y132272D01*
X201375Y132416D01*
X200670Y132630D01*
X199989Y132912D01*
X199340Y133259D01*
X198727Y133669D01*
X198157Y134136D01*
X197636Y134657D01*
X197169Y135227D01*
X196759Y135840D01*
X196412Y136489D01*
X196130Y137170D01*
X195916Y137875D01*
X195772Y138598D01*
X195700Y139332D01*
X195700Y140068D01*
X195772Y140802D01*
X195916Y141525D01*
X196130Y142230D01*
X196412Y142911D01*
X196759Y143560D01*
X197169Y144173D01*
X197636Y144743D01*
X198157Y145264D01*
X198727Y145731D01*
X199340Y146141D01*
X199989Y146488D01*
X200670Y146770D01*
X201375Y146984D01*
X202098Y147128D01*
X202832Y147200D01*
X203568Y147200D01*
X204302Y147128D01*
X205025Y146984D01*
X205730Y146770D01*
X206411Y146488D01*
X207060Y146141D01*
X207673Y145731D01*
X208243Y145264D01*
X208764Y144743D01*
X209231Y144173D01*
X209641Y143560D01*
X209988Y142911D01*
X210270Y142230D01*
X210484Y141525D01*
X210628Y140802D01*
X210700Y140068D01*
X210700Y139332D01*
X109100Y37732D02*
X109028Y36998D01*
X108884Y36275D01*
X108670Y35570D01*
X108388Y34889D01*
X108041Y34240D01*
X107631Y33627D01*
X107164Y33057D01*
X106643Y32536D01*
X106073Y32069D01*
X105460Y31659D01*
X104811Y31312D01*
X104130Y31030D01*
X103425Y30816D01*
X102702Y30672D01*
X101968Y30600D01*
X101232Y30600D01*
X100498Y30672D01*
X99775Y30816D01*
X99070Y31030D01*
X98389Y31312D01*
X97740Y31659D01*
X97127Y32069D01*
X96557Y32536D01*
X96036Y33057D01*
X95569Y33627D01*
X95159Y34240D01*
X94812Y34889D01*
X94530Y35570D01*
X94316Y36275D01*
X94172Y36998D01*
X94100Y37732D01*
X94100Y38468D01*
X94172Y39202D01*
X94316Y39925D01*
X94530Y40630D01*
X94812Y41311D01*
X95159Y41960D01*
X95569Y42573D01*
X96036Y43143D01*
X96557Y43664D01*
X97127Y44131D01*
X97740Y44541D01*
X98389Y44888D01*
X99070Y45170D01*
X99775Y45384D01*
X100498Y45528D01*
X101232Y45600D01*
X101968Y45600D01*
X102702Y45528D01*
X103425Y45384D01*
X104130Y45170D01*
X104811Y44888D01*
X105460Y44541D01*
X106073Y44131D01*
X106643Y43664D01*
X107164Y43143D01*
X107631Y42573D01*
X108041Y41960D01*
X108388Y41311D01*
X108670Y40630D01*
X108884Y39925D01*
X109028Y39202D01*
X109100Y38468D01*
X109100Y37732D01*
X375800Y139332D02*
X375728Y138598D01*
X375584Y137875D01*
X375370Y137170D01*
X375088Y136489D01*
X374741Y135840D01*
X374331Y135227D01*
X373864Y134657D01*
X373343Y134136D01*
X372773Y133669D01*
X372160Y133259D01*
X371511Y132912D01*
X370830Y132630D01*
X370125Y132416D01*
X369402Y132272D01*
X368668Y132200D01*
X367932Y132200D01*
X367198Y132272D01*
X366475Y132416D01*
X365770Y132630D01*
X365089Y132912D01*
X364440Y133259D01*
X363827Y133669D01*
X363257Y134136D01*
X362736Y134657D01*
X362269Y135227D01*
X361859Y135840D01*
X361512Y136489D01*
X361230Y137170D01*
X361016Y137875D01*
X360872Y138598D01*
X360800Y139332D01*
X360800Y140068D01*
X360872Y140802D01*
X361016Y141525D01*
X361230Y142230D01*
X361512Y142911D01*
X361859Y143560D01*
X362269Y144173D01*
X362736Y144743D01*
X363257Y145264D01*
X363827Y145731D01*
X364440Y146141D01*
X365089Y146488D01*
X365770Y146770D01*
X366475Y146984D01*
X367198Y147128D01*
X367932Y147200D01*
X368668Y147200D01*
X369402Y147128D01*
X370125Y146984D01*
X370830Y146770D01*
X371511Y146488D01*
X372160Y146141D01*
X372773Y145731D01*
X373343Y145264D01*
X373864Y144743D01*
X374331Y144173D01*
X374741Y143560D01*
X375088Y142911D01*
X375370Y142230D01*
X375584Y141525D01*
X375728Y140802D01*
X375800Y140068D01*
X375800Y139332D01*
X274200Y37732D02*
X274128Y36998D01*
X273984Y36275D01*
X273770Y35570D01*
X273488Y34889D01*
X273141Y34240D01*
X272731Y33627D01*
X272264Y33057D01*
X271743Y32536D01*
X271173Y32069D01*
X270560Y31659D01*
X269911Y31312D01*
X269230Y31030D01*
X268525Y30816D01*
X267802Y30672D01*
X267068Y30600D01*
X266332Y30600D01*
X265598Y30672D01*
X264875Y30816D01*
X264170Y31030D01*
X263489Y31312D01*
X262840Y31659D01*
X262227Y32069D01*
X261657Y32536D01*
X261136Y33057D01*
X260669Y33627D01*
X260259Y34240D01*
X259912Y34889D01*
X259630Y35570D01*
X259416Y36275D01*
X259272Y36998D01*
X259200Y37732D01*
X259200Y38468D01*
X259272Y39202D01*
X259416Y39925D01*
X259630Y40630D01*
X259912Y41311D01*
X260259Y41960D01*
X260669Y42573D01*
X261136Y43143D01*
X261657Y43664D01*
X262227Y44131D01*
X262840Y44541D01*
X263489Y44888D01*
X264170Y45170D01*
X264875Y45384D01*
X265598Y45528D01*
X266332Y45600D01*
X267068Y45600D01*
X267802Y45528D01*
X268525Y45384D01*
X269230Y45170D01*
X269911Y44888D01*
X270560Y44541D01*
X271173Y44131D01*
X271743Y43664D01*
X272264Y43143D01*
X272731Y42573D01*
X273141Y41960D01*
X273488Y41311D01*
X273770Y40630D01*
X273984Y39925D01*
X274128Y39202D01*
X274200Y38468D01*
X274200Y37732D01*
X540900Y139332D02*
X540828Y138598D01*
X540684Y137875D01*
X540470Y137170D01*
X540188Y136489D01*
X539841Y135840D01*
X539431Y135227D01*
X538964Y134657D01*
X538443Y134136D01*
X537873Y133669D01*
X537260Y133259D01*
X536611Y132912D01*
X535930Y132630D01*
X535225Y132416D01*
X534502Y132272D01*
X533768Y132200D01*
X533032Y132200D01*
X532298Y132272D01*
X531575Y132416D01*
X530870Y132630D01*
X530189Y132912D01*
X529540Y133259D01*
X528927Y133669D01*
X528357Y134136D01*
X527836Y134657D01*
X527369Y135227D01*
X526959Y135840D01*
X526612Y136489D01*
X526330Y137170D01*
X526116Y137875D01*
X525972Y138598D01*
X525900Y139332D01*
X525900Y140068D01*
X525972Y140802D01*
X526116Y141525D01*
X526330Y142230D01*
X526612Y142911D01*
X526959Y143560D01*
X527369Y144173D01*
X527836Y144743D01*
X528357Y145264D01*
X528927Y145731D01*
X529540Y146141D01*
X530189Y146488D01*
X530870Y146770D01*
X531575Y146984D01*
X532298Y147128D01*
X533032Y147200D01*
X533768Y147200D01*
X534502Y147128D01*
X535225Y146984D01*
X535930Y146770D01*
X536611Y146488D01*
X537260Y146141D01*
X537873Y145731D01*
X538443Y145264D01*
X538964Y144743D01*
X539431Y144173D01*
X539841Y143560D01*
X540188Y142911D01*
X540470Y142230D01*
X540684Y141525D01*
X540828Y140802D01*
X540900Y140068D01*
X540900Y139332D01*
X439300Y37732D02*
X439228Y36998D01*
X439084Y36275D01*
X438870Y35570D01*
X438588Y34889D01*
X438241Y34240D01*
X437831Y33627D01*
X437364Y33057D01*
X436843Y32536D01*
X436273Y32069D01*
X435660Y31659D01*
X435011Y31312D01*
X434330Y31030D01*
X433625Y30816D01*
X432902Y30672D01*
X432168Y30600D01*
X431432Y30600D01*
X430698Y30672D01*
X429975Y30816D01*
X429270Y31030D01*
X428589Y31312D01*
X427940Y31659D01*
X427327Y32069D01*
X426757Y32536D01*
X426236Y33057D01*
X425769Y33627D01*
X425359Y34240D01*
X425012Y34889D01*
X424730Y35570D01*
X424516Y36275D01*
X424372Y36998D01*
X424300Y37732D01*
X424300Y38468D01*
X424372Y39202D01*
X424516Y39925D01*
X424730Y40630D01*
X425012Y41311D01*
X425359Y41960D01*
X425769Y42573D01*
X426236Y43143D01*
X426757Y43664D01*
X427327Y44131D01*
X427940Y44541D01*
X428589Y44888D01*
X429270Y45170D01*
X429975Y45384D01*
X430698Y45528D01*
X431432Y45600D01*
X432168Y45600D01*
X432902Y45528D01*
X433625Y45384D01*
X434330Y45170D01*
X435011Y44888D01*
X435660Y44541D01*
X436273Y44131D01*
X436843Y43664D01*
X437364Y43143D01*
X437831Y42573D01*
X438241Y41960D01*
X438588Y41311D01*
X438870Y40630D01*
X439084Y39925D01*
X439228Y39202D01*
X439300Y38468D01*
X439300Y37732D01*
X706000Y139332D02*
X705928Y138598D01*
X705784Y137875D01*
X705570Y137170D01*
X705288Y136489D01*
X704941Y135840D01*
X704531Y135227D01*
X704064Y134657D01*
X703543Y134136D01*
X702973Y133669D01*
X702360Y133259D01*
X701711Y132912D01*
X701030Y132630D01*
X700325Y132416D01*
X699602Y132272D01*
X698868Y132200D01*
X698132Y132200D01*
X697398Y132272D01*
X696675Y132416D01*
X695970Y132630D01*
X695289Y132912D01*
X694640Y133259D01*
X694027Y133669D01*
X693457Y134136D01*
X692936Y134657D01*
X692469Y135227D01*
X692059Y135840D01*
X691712Y136489D01*
X691430Y137170D01*
X691216Y137875D01*
X691072Y138598D01*
X691000Y139332D01*
X691000Y140068D01*
X691072Y140802D01*
X691216Y141525D01*
X691430Y142230D01*
X691712Y142911D01*
X692059Y143560D01*
X692469Y144173D01*
X692936Y144743D01*
X693457Y145264D01*
X694027Y145731D01*
X694640Y146141D01*
X695289Y146488D01*
X695970Y146770D01*
X696675Y146984D01*
X697398Y147128D01*
X698132Y147200D01*
X698868Y147200D01*
X699602Y147128D01*
X700325Y146984D01*
X701030Y146770D01*
X701711Y146488D01*
X702360Y146141D01*
X702973Y145731D01*
X703543Y145264D01*
X704064Y144743D01*
X704531Y144173D01*
X704941Y143560D01*
X705288Y142911D01*
X705570Y142230D01*
X705784Y141525D01*
X705928Y140802D01*
X706000Y140068D01*
X706000Y139332D01*
X604400Y37732D02*
X604328Y36998D01*
X604184Y36275D01*
X603970Y35570D01*
X603688Y34889D01*
X603341Y34240D01*
X602931Y33627D01*
X602464Y33057D01*
X601943Y32536D01*
X601373Y32069D01*
X600760Y31659D01*
X600111Y31312D01*
X599430Y31030D01*
X598725Y30816D01*
X598002Y30672D01*
X597268Y30600D01*
X596532Y30600D01*
X595798Y30672D01*
X595075Y30816D01*
X594370Y31030D01*
X593689Y31312D01*
X593040Y31659D01*
X592427Y32069D01*
X591857Y32536D01*
X591336Y33057D01*
X590869Y33627D01*
X590459Y34240D01*
X590112Y34889D01*
X589830Y35570D01*
X589616Y36275D01*
X589472Y36998D01*
X589400Y37732D01*
X589400Y38468D01*
X589472Y39202D01*
X589616Y39925D01*
X589830Y40630D01*
X590112Y41311D01*
X590459Y41960D01*
X590869Y42573D01*
X591336Y43143D01*
X591857Y43664D01*
X592427Y44131D01*
X593040Y44541D01*
X593689Y44888D01*
X594370Y45170D01*
X595075Y45384D01*
X595798Y45528D01*
X596532Y45600D01*
X597268Y45600D01*
X598002Y45528D01*
X598725Y45384D01*
X599430Y45170D01*
X600111Y44888D01*
X600760Y44541D01*
X601373Y44131D01*
X601943Y43664D01*
X602464Y43143D01*
X602931Y42573D01*
X603341Y41960D01*
X603688Y41311D01*
X603970Y40630D01*
X604184Y39925D01*
X604328Y39202D01*
X604400Y38468D01*
X604400Y37732D01*
M02*
